<!-- Generator: Adobe Illustrator 18.1.1, SVG Export Plug-In  -->
<svg version="1.1"
	 xmlns="http://www.w3.org/2000/svg" xmlns:xlink="http://www.w3.org/1999/xlink" xmlns:a="http://ns.adobe.com/AdobeSVGViewerExtensions/3.0/"
	 x="0px" y="0px" width="79.9px" height="21.2px" viewBox="0 0 79.9 21.2" enable-background="new 0 0 79.9 21.2"
	 xml:space="preserve">
<defs>
</defs>
<path fill="#005095" stroke="#005095" stroke-miterlimit="10" d="M4.3,19.8c-0.1-1.5-0.3-3-0.6-4.5C3.4,11.9,3.5,8.6,4,5.2
	c0,0,0-0.1,0-0.1c13.1,26.1,53.9,12.9,75,6.6c0.8-0.2,0-2.4-0.9-2.2c-12.5,3.7-25.2,7.1-38.3,8.2C26.8,18.8,11.2,17,4.8,3.9
	C4.6,3.5,4.5,3.4,4.3,3.3c4.9,1,9.5,3.2,14.4,4.1c1,0.2,0.7-2.2-0.1-2.3c-6-1.1-11.4-4-17.5-4.6c-0.4,0-0.6,0.3-0.6,0.7
	c-0.1,4.6,1.1,9,1.9,13.5C2.5,16.4,2.7,18,3,19.7C3.2,20.8,4.4,21.1,4.3,19.8z M1.9,2.9C2.6,3,3.4,3.1,4.2,3.3
	c-0.2,0-0.4,0.4-0.4,0.9C3.4,3.6,2.9,3.3,2.7,4.3C2.5,5.4,2.4,6.6,2.3,7.8C2,6.2,1.9,4.5,1.9,2.9z"/>
</svg>
