<!-- Generator: Adobe Illustrator 18.1.1, SVG Export Plug-In  -->
<svg version="1.1"
	 xmlns="http://www.w3.org/2000/svg" xmlns:xlink="http://www.w3.org/1999/xlink" xmlns:a="http://ns.adobe.com/AdobeSVGViewerExtensions/3.0/"
	 x="0px" y="0px" width="44px" height="32.9px" viewBox="0 0 44 32.9" enable-background="new 0 0 44 32.9" xml:space="preserve">
<defs>
</defs>
<path fill="#005095" stroke="#005095" stroke-miterlimit="10" d="M43.5,2.7c-0.3-1.9-1.7-1.5-3.2-1.7c-1.4-0.2-2.4-0.9-3.3-0.1
	c-0.3-0.6-0.3-0.3-0.8-0.3c-5.1,0.4-9.1,2.5-13.6,3.9c-1.2,0.4-2.5,0.4-3.6,1.2c0.3,1.1,0.7,1.4,1.4,1.9c5.9-1.6,12.6-4.2,17.1-4.1
	c-2.5,1.6-5.1,3-6.9,4.6c-6.4,3.7-12.3,8.5-18.4,13.4c-1.3,1.1-2.9,2-4.2,3.1c-2.6,2.2-4.7,4.9-7.6,6.1c0.1,1.7,1.8,1.8,2.5,1.5
	c2.8-1.1,6-5.8,8.6-7.1c0.4-0.2,0-0.5,0.2-0.6c2.3-1.1,4.2-3,6.2-4.6c6.2-4.9,12.8-9.4,19.8-13.7c-1.4,4-3.4,7.6-5,11.4
	c-0.8,0.8-1.5,2.2-2.5,3.8c-0.7,1.1-2.3,3-2,3.8c0.3,0.8,1.1,0.7,2,1.1c1.7-1.6,3.8-3,3.7-5.8c2.6-4.7,5.6-10.4,7.5-16.5
	C42.3,3.7,43.1,3.3,43.5,2.7z"/>
</svg>
