<!-- Generator: Adobe Illustrator 18.1.1, SVG Export Plug-In  -->
<svg version="1.1"
	 xmlns="http://www.w3.org/2000/svg" xmlns:xlink="http://www.w3.org/1999/xlink" xmlns:a="http://ns.adobe.com/AdobeSVGViewerExtensions/3.0/"
	 x="0px" y="0px" width="55.4px" height="73.2px" viewBox="0 0 55.4 73.2" enable-background="new 0 0 55.4 73.2"
	 xml:space="preserve">
<defs>
</defs>
<path fill="#005095" stroke="#005095" stroke-miterlimit="10" d="M0.5,19.4c-0.1,1.1,0.8,2,1.5,2.6c6.7,5.6,12,13.3,20.2,16.9
	c2.5,1.1,5,1.7,7.4,1.7c3.3,10.1,9.4,19.4,16.5,27c-5.6-3.1-10.2-8.3-16.6-9.6c-1.5-0.3,0.6,3.3,1.7,3.5c7.7,1.6,12.7,8.8,20.1,11.1
	c0.7,0.2,0.7-0.4,0.6-0.9c-2-7-5.1-13.6-7.2-20.6c-0.3-0.9-1.1-1.9-1.9-2.4c-0.7-0.5-1.1-0.1-0.9,0.7c1.7,5.7,4,11.1,5.9,16.7
	C41,59,35.4,50.1,32.3,40.5c2.2-0.3,4.5-1,6.7-2.1c8.7-4.6,17.2-15.1,15.6-25.6c-1-6.7-6.6-13.7-14-12.1
	c-8.8,1.9-12.6,10.4-13.5,18.7c-0.7,6-0.1,12,1.4,17.8c-0.5,0-1,0-1.5-0.1C16.4,35.5,10,25.7,2.2,19.1C1.7,18.7,0.6,18.5,0.5,19.4z
	 M31.3,36.9c-0.1-0.6-0.3-1.2-0.4-1.8c-1.1-5.2-1.1-10.8-0.1-16c1-5.1,3.3-10.6,8-13.2C42.3,4,47,3.1,49.6,6.6
	c1.6,2.1,2.2,4.8,2,7.4c-0.5,6.2-4.1,12-8.5,16.1C40,32.9,35.8,36,31.3,36.9z"/>
</svg>
