<!-- Generator: Adobe Illustrator 18.1.1, SVG Export Plug-In  -->
<svg version="1.1"
	 xmlns="http://www.w3.org/2000/svg" xmlns:xlink="http://www.w3.org/1999/xlink" xmlns:a="http://ns.adobe.com/AdobeSVGViewerExtensions/3.0/"
	 x="0px" y="0px" width="27.3px" height="48.8px" viewBox="0 0 27.3 48.8" enable-background="new 0 0 27.3 48.8"
	 xml:space="preserve">
<defs>
</defs>
<path fill="#005095" stroke="#005095" stroke-miterlimit="10" d="M12.2,45.8c-3.5,1.1-9.7,5.3-11.1-0.3c-1.5-6.3,0.5-12.1,0.2-17.8
	c1.3-1.2,3.2-1.3,3.9-0.1c0.6,0.6-0.2,1.2-0.3,1.7c-0.1,4.5-1.2,9-0.3,13.5c8.2-5.1,16.3-13.5,18-22.2c0.9-4.3,0.8-10.7-1.3-14.5
	c-1-1.8-2.9-2.2-3.2-4.3c-0.1-1.1,2.1-1.4,3.1-1.4c4,3.9,5.4,8.8,5.5,13.2c0.2,10.7-5.8,20.8-16.5,28.9c3.8-0.4,7.8-2.4,11.7-3.7
	c0.9,0.4,1.9,0.1,2.8,1.2C21.7,43.7,16.8,44.2,12.2,45.8z"/>
</svg>
