<svg width="1232" height="38" viewBox="0 0 1232 38" fill="none" xmlns="http://www.w3.org/2000/svg">
<g filter="url(#filter0_ddi)">
<rect width="1232" height="37" fill="url(#paint0_linear)"/>
</g>
<g filter="url(#filter1_ii)">
<rect x="1207" y="12" width="25" height="25" fill="#BDBEBE"/>
</g>
<path d="M1220 19H1219V24H1214V25H1219V30H1220V25H1225V24H1220V19Z" fill="#646565"/>
<rect x="1117" y="8" width="37" height="22" rx="4" fill="url(#paint1_linear)"/>
<rect x="1116.75" y="7.75" width="37.5" height="22.5" rx="4.25" stroke="url(#paint2_linear)" stroke-opacity="0.15" stroke-width="0.5"/>
<path d="M1137.61 14.8148C1137.79 15.0294 1138.1 15.0623 1138.31 14.8885C1138.53 14.7146 1138.56 14.3998 1138.39 14.1852L1136.01 11.2457C1135.98 11.2089 1135.94 11.1744 1135.9 11.1433C1135.87 11.116 1135.83 11.0914 1135.79 11.0706C1135.73 11.0415 1135.67 11.0206 1135.61 11.0094C1135.57 11.0032 1135.54 11 1135.5 11C1135.4 11 1135.3 11.0255 1135.21 11.0706C1135.12 11.1152 1135.05 11.1767 1134.99 11.2457L1132.61 14.1852C1132.44 14.3997 1132.47 14.7146 1132.69 14.8885C1132.9 15.0623 1133.21 15.0294 1133.39 14.8148L1135 12.8261V21H1136V12.8261L1137.61 14.8148Z" fill="#575757"/>
<path d="M1136 16H1135V17H1136V16Z" fill="#575757"/>
<path d="M1137 17H1140V25H1131V17H1134V16H1131C1130.45 16 1130 16.4477 1130 17V25C1130 25.5523 1130.45 26 1131 26H1140C1140.55 26 1141 25.5523 1141 25V17C1141 16.4477 1140.55 16 1140 16H1137V17Z" fill="#575757"/>
<rect x="1162" y="8" width="37" height="22" rx="4" fill="url(#paint3_linear)"/>
<rect x="1161.75" y="7.75" width="37.5" height="22.5" rx="4.25" stroke="url(#paint4_linear)" stroke-opacity="0.15" stroke-width="0.5"/>
<path d="M1185.5 14H1178.5V15H1177.5V14C1177.5 13.4477 1177.95 13 1178.5 13H1185.5C1186.05 13 1186.5 13.4477 1186.5 14V21C1186.5 21.5523 1186.05 22 1185.5 22H1184.5V21H1185.5V14Z" fill="#575757"/>
<path fill-rule="evenodd" clip-rule="evenodd" d="M1174.5 17C1174.5 16.4477 1174.95 16 1175.5 16H1182.5C1183.05 16 1183.5 16.4477 1183.5 17V24C1183.5 24.5523 1183.05 25 1182.5 25H1175.5C1174.95 25 1174.5 24.5523 1174.5 24V17ZM1175.5 17H1182.5V24H1175.5V17Z" fill="#575757"/>
<rect x="365.75" y="8" width="500.5" height="22" rx="4" fill="url(#paint5_linear)"/>
<rect x="365.5" y="7.75" width="501" height="22.5" rx="4.25" stroke="url(#paint6_linear)" stroke-opacity="0.15" stroke-width="0.5"/>
<path d="M854.25 17.5646L858.75 14.75L854.25 11.9354V14.0224C851.447 14.275 849.25 16.631 849.25 19.5C849.25 22.5375 851.712 25 854.75 25C857.788 25 860.25 22.5375 860.25 19.5V19H859.25V19.5C859.25 21.9853 857.235 24 854.75 24C852.265 24 850.25 21.9853 850.25 19.5C850.25 17.1837 852 15.2762 854.25 15.0275V17.5646Z" fill="#7B7C7C"/>
<g clip-path="url(#clip0)">
<path fill-rule="evenodd" clip-rule="evenodd" d="M521.75 18.5H520.75V24.5H528.75V18.5H527.75V17.5C527.75 15.8431 526.407 14.5 524.75 14.5C523.093 14.5 521.75 15.8431 521.75 17.5V18.5ZM522.75 18.5H526.75V17.5C526.75 16.3954 525.855 15.5 524.75 15.5C523.645 15.5 522.75 16.3954 522.75 17.5V18.5Z" fill="#A09FA0"/>
<path d="M536.67 24H537.676V19.9091C537.676 18.9503 538.375 18.2727 539.159 18.2727C539.922 18.2727 540.455 18.7713 540.455 19.517V24H541.477V19.7386C541.477 18.8949 542.006 18.2727 542.926 18.2727C543.642 18.2727 544.256 18.652 544.256 19.6193V24H545.261V19.6193C545.261 18.081 544.435 17.3693 543.267 17.3693C542.33 17.3693 541.643 17.7997 541.307 18.4773H541.239C540.915 17.7784 540.344 17.3693 539.483 17.3693C538.631 17.3693 538 17.7784 537.727 18.4773H537.642V17.4545H536.67V24ZM547.513 26.4545C548.421 26.4545 549.06 25.973 549.44 24.9545L552.227 17.4716L551.127 17.4545L549.32 22.6705H549.252L547.445 17.4545H546.354L548.775 24.0341L548.587 24.5455C548.221 25.5426 547.769 25.6364 547.036 25.4489L546.781 26.3352C546.883 26.3864 547.173 26.4545 547.513 26.4545ZM555.284 24.1534C556.426 24.1534 557.023 23.5398 557.227 23.1136H557.278V24H558.284V19.6875C558.284 17.608 556.699 17.3693 555.864 17.3693C554.875 17.3693 553.75 17.7102 553.239 18.9034L554.193 19.2443C554.415 18.767 554.939 18.2557 555.898 18.2557C556.822 18.2557 557.278 18.7457 557.278 19.5852V19.6193C557.278 20.1051 556.784 20.0625 555.591 20.2159C554.376 20.3736 553.051 20.642 553.051 22.142C553.051 23.4205 554.04 24.1534 555.284 24.1534ZM555.438 23.25C554.636 23.25 554.057 22.892 554.057 22.1932C554.057 21.4261 554.756 21.1875 555.54 21.0852C555.966 21.0341 557.108 20.9148 557.278 20.7102V21.6307C557.278 22.4489 556.631 23.25 555.438 23.25ZM560.256 24H561.228V22.9943H561.347C561.569 23.3523 561.995 24.1364 563.256 24.1364C564.892 24.1364 566.034 22.8239 566.034 20.7443C566.034 18.6818 564.892 17.3693 563.239 17.3693C561.961 17.3693 561.569 18.1534 561.347 18.4943H561.262V15.2727H560.256V24ZM561.245 20.7273C561.245 19.2614 561.892 18.2727 563.12 18.2727C564.398 18.2727 565.029 19.3466 565.029 20.7273C565.029 22.125 564.381 23.233 563.12 23.233C561.909 23.233 561.245 22.2102 561.245 20.7273ZM569.499 24.1534C570.641 24.1534 571.238 23.5398 571.442 23.1136H571.493V24H572.499V19.6875C572.499 17.608 570.914 17.3693 570.078 17.3693C569.09 17.3693 567.965 17.7102 567.453 18.9034L568.408 19.2443C568.63 18.767 569.154 18.2557 570.113 18.2557C571.037 18.2557 571.493 18.7457 571.493 19.5852V19.6193C571.493 20.1051 570.999 20.0625 569.806 20.2159C568.591 20.3736 567.266 20.642 567.266 22.142C567.266 23.4205 568.255 24.1534 569.499 24.1534ZM569.652 23.25C568.851 23.25 568.272 22.892 568.272 22.1932C568.272 21.4261 568.971 21.1875 569.755 21.0852C570.181 21.0341 571.323 20.9148 571.493 20.7102V21.6307C571.493 22.4489 570.846 23.25 569.652 23.25ZM574.335 24H575.34V21.5497L576.043 20.8977L578.494 24H579.772L576.802 20.25L579.567 17.4545H578.323L575.46 20.3693H575.34V15.2727H574.335V24ZM584.987 21.3239C584.987 22.5511 584.049 23.1136 583.299 23.1136C582.464 23.1136 581.868 22.5 581.868 21.5455V17.4545H580.862V21.6136C580.862 23.2841 581.748 24.0852 582.975 24.0852C583.964 24.0852 584.612 23.5568 584.919 22.892H584.987V24H585.993V17.4545H584.987V21.3239ZM592.471 18.9205C592.156 17.9915 591.448 17.3693 590.153 17.3693C588.772 17.3693 587.749 18.1534 587.749 19.2614C587.749 20.1648 588.286 20.7699 589.488 21.0511L590.579 21.3068C591.239 21.4602 591.55 21.7756 591.55 22.2273C591.55 22.7898 590.954 23.25 590.016 23.25C589.194 23.25 588.678 22.8963 588.499 22.1932L587.545 22.4318C587.779 23.544 588.695 24.1364 590.033 24.1364C591.555 24.1364 592.59 23.3054 592.59 22.1761C592.59 21.2642 592.019 20.6889 590.852 20.4034L589.88 20.1648C589.104 19.973 588.755 19.7131 588.755 19.2102C588.755 18.6477 589.352 18.2386 590.153 18.2386C591.031 18.2386 591.393 18.7244 591.567 19.1761L592.471 18.9205ZM594.837 24.0682C595.259 24.0682 595.604 23.723 595.604 23.3011C595.604 22.8793 595.259 22.5341 594.837 22.5341C594.415 22.5341 594.07 22.8793 594.07 23.3011C594.07 23.723 594.415 24.0682 594.837 24.0682ZM600.068 24.1364C601.517 24.1364 602.471 23.25 602.642 22.0909H601.636C601.449 22.8068 600.852 23.233 600.068 23.233C598.875 23.233 598.108 22.2443 598.108 20.7273C598.108 19.2443 598.892 18.2727 600.068 18.2727C600.954 18.2727 601.483 18.8182 601.636 19.4148H602.642C602.471 18.1875 601.431 17.3693 600.051 17.3693C598.278 17.3693 597.102 18.767 597.102 20.7614C597.102 22.7216 598.227 24.1364 600.068 24.1364ZM606.771 24.1364C608.544 24.1364 609.737 22.7898 609.737 20.7614C609.737 18.7159 608.544 17.3693 606.771 17.3693C604.998 17.3693 603.805 18.7159 603.805 20.7614C603.805 22.7898 604.998 24.1364 606.771 24.1364ZM606.771 23.233C605.424 23.233 604.811 22.0739 604.811 20.7614C604.811 19.4489 605.424 18.2727 606.771 18.2727C608.118 18.2727 608.731 19.4489 608.731 20.7614C608.731 22.0739 608.118 23.233 606.771 23.233ZM611.272 24H612.278V19.9091C612.278 18.9503 612.977 18.2727 613.761 18.2727C614.523 18.2727 615.056 18.7713 615.056 19.517V24H616.079V19.7386C616.079 18.8949 616.607 18.2727 617.528 18.2727C618.244 18.2727 618.857 18.652 618.857 19.6193V24H619.863V19.6193C619.863 18.081 619.036 17.3693 617.869 17.3693C616.931 17.3693 616.245 17.7997 615.908 18.4773H615.84C615.516 17.7784 614.945 17.3693 614.085 17.3693C613.232 17.3693 612.602 17.7784 612.329 18.4773H612.244V17.4545H611.272V24ZM624.787 14.8636H623.866L621.054 25.3125H621.974L624.787 14.8636ZM627.905 24.1534C629.047 24.1534 629.644 23.5398 629.848 23.1136H629.9V24H630.905V19.6875C630.905 17.608 629.32 17.3693 628.485 17.3693C627.496 17.3693 626.371 17.7102 625.86 18.9034L626.814 19.2443C627.036 18.767 627.56 18.2557 628.519 18.2557C629.444 18.2557 629.9 18.7457 629.9 19.5852V19.6193C629.9 20.1051 629.405 20.0625 628.212 20.2159C626.998 20.3736 625.672 20.642 625.672 22.142C625.672 23.4205 626.661 24.1534 627.905 24.1534ZM628.059 23.25C627.257 23.25 626.678 22.892 626.678 22.1932C626.678 21.4261 627.377 21.1875 628.161 21.0852C628.587 21.0341 629.729 20.9148 629.9 20.7102V21.6307C629.9 22.4489 629.252 23.25 628.059 23.25ZM632.741 26.4545H633.746V22.9943H633.832C634.053 23.3523 634.479 24.1364 635.741 24.1364C637.377 24.1364 638.519 22.8239 638.519 20.7443C638.519 18.6818 637.377 17.3693 635.724 17.3693C634.445 17.3693 634.053 18.1534 633.832 18.4943H633.712V17.4545H632.741V26.4545ZM633.729 20.7273C633.729 19.2614 634.377 18.2727 635.604 18.2727C636.883 18.2727 637.513 19.3466 637.513 20.7273C637.513 22.125 636.866 23.233 635.604 23.233C634.394 23.233 633.729 22.2102 633.729 20.7273ZM640.053 26.4545H641.059V22.9943H641.144C641.366 23.3523 641.792 24.1364 643.053 24.1364C644.69 24.1364 645.832 22.8239 645.832 20.7443C645.832 18.6818 644.69 17.3693 643.036 17.3693C641.758 17.3693 641.366 18.1534 641.144 18.4943H641.025V17.4545H640.053V26.4545ZM641.042 20.7273C641.042 19.2614 641.69 18.2727 642.917 18.2727C644.195 18.2727 644.826 19.3466 644.826 20.7273C644.826 22.125 644.178 23.233 642.917 23.233C641.707 23.233 641.042 22.2102 641.042 20.7273ZM650.451 14.8636H649.531L646.718 25.3125H647.638L650.451 14.8636ZM654.115 24.1364C655.376 24.1364 655.802 23.3523 656.024 22.9943H656.143V24H657.115V15.2727H656.109V18.4943H656.024C655.802 18.1534 655.41 17.3693 654.132 17.3693C652.478 17.3693 651.336 18.6818 651.336 20.7443C651.336 22.8239 652.478 24.1364 654.115 24.1364ZM654.251 23.233C652.99 23.233 652.342 22.125 652.342 20.7273C652.342 19.3466 652.973 18.2727 654.251 18.2727C655.478 18.2727 656.126 19.2614 656.126 20.7273C656.126 22.2102 655.461 23.233 654.251 23.233ZM661.022 24.1534C662.164 24.1534 662.761 23.5398 662.966 23.1136H663.017V24H664.022V19.6875C664.022 17.608 662.437 17.3693 661.602 17.3693C660.613 17.3693 659.488 17.7102 658.977 18.9034L659.931 19.2443C660.153 18.767 660.677 18.2557 661.636 18.2557C662.561 18.2557 663.017 18.7457 663.017 19.5852V19.6193C663.017 20.1051 662.522 20.0625 661.329 20.2159C660.115 20.3736 658.789 20.642 658.789 22.142C658.789 23.4205 659.778 24.1534 661.022 24.1534ZM661.176 23.25C660.375 23.25 659.795 22.892 659.795 22.1932C659.795 21.4261 660.494 21.1875 661.278 21.0852C661.704 21.0341 662.846 20.9148 663.017 20.7102V21.6307C663.017 22.4489 662.369 23.25 661.176 23.25ZM670.494 18.9205C670.179 17.9915 669.472 17.3693 668.176 17.3693C666.795 17.3693 665.773 18.1534 665.773 19.2614C665.773 20.1648 666.31 20.7699 667.511 21.0511L668.602 21.3068C669.263 21.4602 669.574 21.7756 669.574 22.2273C669.574 22.7898 668.977 23.25 668.04 23.25C667.217 23.25 666.702 22.8963 666.523 22.1932L665.568 22.4318C665.803 23.544 666.719 24.1364 668.057 24.1364C669.578 24.1364 670.614 23.3054 670.614 22.1761C670.614 21.2642 670.043 20.6889 668.875 20.4034L667.903 20.1648C667.128 19.973 666.778 19.7131 666.778 19.2102C666.778 18.6477 667.375 18.2386 668.176 18.2386C669.054 18.2386 669.416 18.7244 669.591 19.1761L670.494 18.9205ZM673.133 20.0625C673.133 18.9205 673.862 18.2727 674.855 18.2727C675.801 18.2727 676.372 18.8693 676.372 19.9091V24H677.377V19.8409C677.377 18.1577 676.483 17.3693 675.145 17.3693C674.113 17.3693 673.525 17.7997 673.218 18.4773H673.133V15.2727H672.127V24H673.133V20.0625ZM679.354 24H680.325V22.9943H680.445C680.666 23.3523 681.092 24.1364 682.354 24.1364C683.99 24.1364 685.132 22.8239 685.132 20.7443C685.132 18.6818 683.99 17.3693 682.337 17.3693C681.058 17.3693 680.666 18.1534 680.445 18.4943H680.359V15.2727H679.354V24ZM680.342 20.7273C680.342 19.2614 680.99 18.2727 682.217 18.2727C683.496 18.2727 684.126 19.3466 684.126 20.7273C684.126 22.125 683.479 23.233 682.217 23.233C681.007 23.233 680.342 22.2102 680.342 20.7273ZM689.33 24.1364C691.102 24.1364 692.295 22.7898 692.295 20.7614C692.295 18.7159 691.102 17.3693 689.33 17.3693C687.557 17.3693 686.364 18.7159 686.364 20.7614C686.364 22.7898 687.557 24.1364 689.33 24.1364ZM689.33 23.233C687.983 23.233 687.369 22.0739 687.369 20.7614C687.369 19.4489 687.983 18.2727 689.33 18.2727C690.676 18.2727 691.29 19.4489 691.29 20.7614C691.29 22.0739 690.676 23.233 689.33 23.233ZM695.757 24.1534C696.899 24.1534 697.495 23.5398 697.7 23.1136H697.751V24H698.757V19.6875C698.757 17.608 697.172 17.3693 696.336 17.3693C695.348 17.3693 694.223 17.7102 693.711 18.9034L694.666 19.2443C694.887 18.767 695.412 18.2557 696.37 18.2557C697.295 18.2557 697.751 18.7457 697.751 19.5852V19.6193C697.751 20.1051 697.257 20.0625 696.064 20.2159C694.849 20.3736 693.524 20.642 693.524 22.142C693.524 23.4205 694.512 24.1534 695.757 24.1534ZM695.91 23.25C695.109 23.25 694.529 22.892 694.529 22.1932C694.529 21.4261 695.228 21.1875 696.012 21.0852C696.439 21.0341 697.581 20.9148 697.751 20.7102V21.6307C697.751 22.4489 697.103 23.25 695.91 23.25ZM700.592 24H701.598V19.858C701.598 18.9716 702.297 18.3239 703.251 18.3239C703.52 18.3239 703.797 18.375 703.865 18.392V17.3693C703.75 17.3608 703.486 17.3523 703.337 17.3523C702.553 17.3523 701.871 17.7955 701.632 18.4432H701.564V17.4545H700.592V24ZM707.33 24.1364C708.591 24.1364 709.017 23.3523 709.239 22.9943H709.358V24H710.33V15.2727H709.324V18.4943H709.239C709.017 18.1534 708.625 17.3693 707.347 17.3693C705.693 17.3693 704.551 18.6818 704.551 20.7443C704.551 22.8239 705.693 24.1364 707.33 24.1364ZM707.466 23.233C706.205 23.233 705.557 22.125 705.557 20.7273C705.557 19.3466 706.188 18.2727 707.466 18.2727C708.693 18.2727 709.341 19.2614 709.341 20.7273C709.341 22.2102 708.676 23.233 707.466 23.233Z" fill="#4C4C4C"/>
</g>
<rect x="139" y="8" width="37" height="22" rx="4" fill="url(#paint7_linear)"/>
<rect x="138.75" y="7.75" width="37.5" height="22.5" rx="4.25" stroke="url(#paint8_linear)" stroke-opacity="0.15" stroke-width="0.5"/>
<path fill-rule="evenodd" clip-rule="evenodd" d="M164 13C164.552 13 165 13.4477 165 14V24C165 24.5523 164.552 25 164 25H151C150.448 25 150 24.5523 150 24V14C150 13.4477 150.448 13 151 13H164ZM156 14H164V24H156V14ZM155 24H151L151 14H155V24Z" fill="#585758"/>
<path d="M152 15H154V16H152V15Z" fill="#979798"/>
<path d="M152 17H154V18H152V17Z" fill="#979798"/>
<path d="M154 19H152V20H154V19Z" fill="#979798"/>
<rect x="104" y="8" width="25" height="22" rx="4" fill="url(#paint9_linear)"/>
<rect x="103.75" y="7.75" width="25.5" height="22.5" rx="4.25" stroke="url(#paint10_linear)" stroke-opacity="0.15" stroke-width="0.5"/>
<path d="M113.934 24.1563L118.847 19.2429C118.879 19.211 118.904 19.1732 118.922 19.1315C118.939 19.0898 118.948 19.0451 118.948 19C118.948 18.9549 118.939 18.9102 118.922 18.8685C118.904 18.8268 118.879 18.789 118.847 18.7571L113.934 13.8438" stroke="#ADADAD" stroke-width="1.5" stroke-linecap="round" stroke-linejoin="round"/>
<rect x="78" y="8" width="25" height="22" rx="4" fill="url(#paint11_linear)"/>
<rect x="77.75" y="7.75" width="25.5" height="22.5" rx="4.25" stroke="url(#paint12_linear)" stroke-opacity="0.15" stroke-width="0.5"/>
<path d="M92.9478 24.1563L88.0345 19.2429C88.0026 19.211 87.9773 19.1732 87.96 19.1315C87.9427 19.0898 87.9338 19.0451 87.9338 19C87.9338 18.9549 87.9427 18.9102 87.96 18.8685C87.9773 18.8268 88.0026 18.789 88.0345 18.7571L92.9478 13.8438" stroke="#575757" stroke-width="1.5" stroke-linecap="round" stroke-linejoin="round"/>
<g filter="url(#filter2_i)">
<path fill-rule="evenodd" clip-rule="evenodd" d="M19 25C22.3137 25 25 22.3137 25 19C25 15.6863 22.3137 13 19 13C15.6863 13 13 15.6863 13 19C13 22.3137 15.6863 25 19 25Z" fill="#ED6A5E"/>
</g>
<path d="M24.75 19C24.75 22.1756 22.1756 24.75 19 24.75C15.8244 24.75 13.25 22.1756 13.25 19C13.25 15.8244 15.8244 13.25 19 13.25C22.1756 13.25 24.75 15.8244 24.75 19Z" stroke="#CE5347" stroke-width="0.5"/>
<g filter="url(#filter3_i)">
<path fill-rule="evenodd" clip-rule="evenodd" d="M39 25C42.3137 25 45 22.3137 45 19C45 15.6863 42.3137 13 39 13C35.6863 13 33 15.6863 33 19C33 22.3137 35.6863 25 39 25Z" fill="#F6BE4F"/>
</g>
<path d="M44.75 19C44.75 22.1756 42.1756 24.75 39 24.75C35.8244 24.75 33.25 22.1756 33.25 19C33.25 15.8244 35.8244 13.25 39 13.25C42.1756 13.25 44.75 15.8244 44.75 19Z" stroke="#D6A243" stroke-width="0.5"/>
<g filter="url(#filter4_i)">
<path fill-rule="evenodd" clip-rule="evenodd" d="M59 25C62.3137 25 65 22.3137 65 19C65 15.6863 62.3137 13 59 13C55.6863 13 53 15.6863 53 19C53 22.3137 55.6863 25 59 25Z" fill="#62C554"/>
</g>
<path d="M64.75 19C64.75 22.1756 62.1756 24.75 59 24.75C55.8244 24.75 53.25 22.1756 53.25 19C53.25 15.8244 55.8244 13.25 59 13.25C62.1756 13.25 64.75 15.8244 64.75 19Z" stroke="#58A942" stroke-width="0.5"/>
<defs>
<filter id="filter0_ddi" x="0" y="0" width="1232" height="38" filterUnits="userSpaceOnUse" color-interpolation-filters="sRGB">
<feFlood flood-opacity="0" result="BackgroundImageFix"/>
<feColorMatrix in="SourceAlpha" type="matrix" values="0 0 0 0 0 0 0 0 0 0 0 0 0 0 0 0 0 0 127 0"/>
<feOffset dy="1"/>
<feColorMatrix type="matrix" values="0 0 0 0 0.658824 0 0 0 0 0.654902 0 0 0 0 0.654902 0 0 0 1 0"/>
<feBlend mode="normal" in2="BackgroundImageFix" result="effect1_dropShadow"/>
<feColorMatrix in="SourceAlpha" type="matrix" values="0 0 0 0 0 0 0 0 0 0 0 0 0 0 0 0 0 0 127 0"/>
<feOffset dy="0.5"/>
<feColorMatrix type="matrix" values="0 0 0 0 0.741176 0 0 0 0 0.745098 0 0 0 0 0.745098 0 0 0 1 0"/>
<feBlend mode="normal" in2="effect1_dropShadow" result="effect2_dropShadow"/>
<feBlend mode="normal" in="SourceGraphic" in2="effect2_dropShadow" result="shape"/>
<feColorMatrix in="SourceAlpha" type="matrix" values="0 0 0 0 0 0 0 0 0 0 0 0 0 0 0 0 0 0 127 0" result="hardAlpha"/>
<feOffset dy="0.5"/>
<feComposite in2="hardAlpha" operator="arithmetic" k2="-1" k3="1"/>
<feColorMatrix type="matrix" values="0 0 0 0 1 0 0 0 0 1 0 0 0 0 1 0 0 0 0.6 0"/>
<feBlend mode="normal" in2="shape" result="effect3_innerShadow"/>
</filter>
<filter id="filter1_ii" x="1207" y="12" width="25" height="25" filterUnits="userSpaceOnUse" color-interpolation-filters="sRGB">
<feFlood flood-opacity="0" result="BackgroundImageFix"/>
<feBlend mode="normal" in="SourceGraphic" in2="BackgroundImageFix" result="shape"/>
<feColorMatrix in="SourceAlpha" type="matrix" values="0 0 0 0 0 0 0 0 0 0 0 0 0 0 0 0 0 0 127 0" result="hardAlpha"/>
<feOffset dy="0.5"/>
<feComposite in2="hardAlpha" operator="arithmetic" k2="-1" k3="1"/>
<feColorMatrix type="matrix" values="0 0 0 0 0.705882 0 0 0 0 0.709804 0 0 0 0 0.705882 0 0 0 1 0"/>
<feBlend mode="normal" in2="shape" result="effect1_innerShadow"/>
<feColorMatrix in="SourceAlpha" type="matrix" values="0 0 0 0 0 0 0 0 0 0 0 0 0 0 0 0 0 0 127 0" result="hardAlpha"/>
<feOffset dx="1"/>
<feComposite in2="hardAlpha" operator="arithmetic" k2="-1" k3="1"/>
<feColorMatrix type="matrix" values="0 0 0 0 0.705882 0 0 0 0 0.709804 0 0 0 0 0.705882 0 0 0 1 0"/>
<feBlend mode="normal" in2="effect1_innerShadow" result="effect2_innerShadow"/>
</filter>
<filter id="filter2_i" x="13" y="13" width="12" height="12" filterUnits="userSpaceOnUse" color-interpolation-filters="sRGB">
<feFlood flood-opacity="0" result="BackgroundImageFix"/>
<feBlend mode="normal" in="SourceGraphic" in2="BackgroundImageFix" result="shape"/>
<feColorMatrix in="SourceAlpha" type="matrix" values="0 0 0 0 0 0 0 0 0 0 0 0 0 0 0 0 0 0 127 0" result="hardAlpha"/>
<feOffset/>
<feGaussianBlur stdDeviation="3"/>
<feComposite in2="hardAlpha" operator="arithmetic" k2="-1" k3="1"/>
<feColorMatrix type="matrix" values="0 0 0 0 0.92549 0 0 0 0 0.427451 0 0 0 0 0.384314 0 0 0 1 0"/>
<feBlend mode="normal" in2="shape" result="effect1_innerShadow"/>
</filter>
<filter id="filter3_i" x="33" y="13" width="12" height="12" filterUnits="userSpaceOnUse" color-interpolation-filters="sRGB">
<feFlood flood-opacity="0" result="BackgroundImageFix"/>
<feBlend mode="normal" in="SourceGraphic" in2="BackgroundImageFix" result="shape"/>
<feColorMatrix in="SourceAlpha" type="matrix" values="0 0 0 0 0 0 0 0 0 0 0 0 0 0 0 0 0 0 127 0" result="hardAlpha"/>
<feOffset/>
<feGaussianBlur stdDeviation="3"/>
<feComposite in2="hardAlpha" operator="arithmetic" k2="-1" k3="1"/>
<feColorMatrix type="matrix" values="0 0 0 0 0.960784 0 0 0 0 0.768627 0 0 0 0 0.317647 0 0 0 1 0"/>
<feBlend mode="normal" in2="shape" result="effect1_innerShadow"/>
</filter>
<filter id="filter4_i" x="53" y="13" width="12" height="12" filterUnits="userSpaceOnUse" color-interpolation-filters="sRGB">
<feFlood flood-opacity="0" result="BackgroundImageFix"/>
<feBlend mode="normal" in="SourceGraphic" in2="BackgroundImageFix" result="shape"/>
<feColorMatrix in="SourceAlpha" type="matrix" values="0 0 0 0 0 0 0 0 0 0 0 0 0 0 0 0 0 0 127 0" result="hardAlpha"/>
<feOffset/>
<feGaussianBlur stdDeviation="3"/>
<feComposite in2="hardAlpha" operator="arithmetic" k2="-1" k3="1"/>
<feColorMatrix type="matrix" values="0 0 0 0 0.407843 0 0 0 0 0.8 0 0 0 0 0.345098 0 0 0 1 0"/>
<feBlend mode="normal" in2="shape" result="effect1_innerShadow"/>
</filter>
<linearGradient id="paint0_linear" x1="616" y1="0" x2="616" y2="37" gradientUnits="userSpaceOnUse">
<stop offset="0.00595238" stop-color="#E6E5E5"/>
<stop offset="0.994048" stop-color="#CDCDCC"/>
</linearGradient>
<linearGradient id="paint1_linear" x1="1135.5" y1="8" x2="1135.5" y2="30" gradientUnits="userSpaceOnUse">
<stop stop-color="#FDFDFD"/>
<stop offset="1" stop-color="#F3F3F3"/>
</linearGradient>
<linearGradient id="paint2_linear" x1="1135.5" y1="8" x2="1135.5" y2="30" gradientUnits="userSpaceOnUse">
<stop stop-opacity="0.5"/>
<stop offset="1"/>
</linearGradient>
<linearGradient id="paint3_linear" x1="1180.5" y1="8" x2="1180.5" y2="30" gradientUnits="userSpaceOnUse">
<stop stop-color="#FDFDFD"/>
<stop offset="1" stop-color="#F3F3F3"/>
</linearGradient>
<linearGradient id="paint4_linear" x1="1180.5" y1="8" x2="1180.5" y2="30" gradientUnits="userSpaceOnUse">
<stop stop-opacity="0.5"/>
<stop offset="1"/>
</linearGradient>
<linearGradient id="paint5_linear" x1="616" y1="8" x2="616" y2="30" gradientUnits="userSpaceOnUse">
<stop stop-color="#FDFDFD"/>
<stop offset="1" stop-color="#F3F3F3"/>
</linearGradient>
<linearGradient id="paint6_linear" x1="616" y1="8" x2="616" y2="30" gradientUnits="userSpaceOnUse">
<stop stop-opacity="0.5"/>
<stop offset="1"/>
</linearGradient>
<linearGradient id="paint7_linear" x1="157.5" y1="8" x2="157.5" y2="30" gradientUnits="userSpaceOnUse">
<stop stop-color="#FDFDFD"/>
<stop offset="1" stop-color="#F3F3F3"/>
</linearGradient>
<linearGradient id="paint8_linear" x1="157.5" y1="8" x2="157.5" y2="30" gradientUnits="userSpaceOnUse">
<stop stop-opacity="0.5"/>
<stop offset="1"/>
</linearGradient>
<linearGradient id="paint9_linear" x1="116.5" y1="8" x2="116.5" y2="30" gradientUnits="userSpaceOnUse">
<stop stop-color="#FDFDFD"/>
<stop offset="1" stop-color="#F3F3F3"/>
</linearGradient>
<linearGradient id="paint10_linear" x1="116.5" y1="8" x2="116.5" y2="30" gradientUnits="userSpaceOnUse">
<stop stop-opacity="0.5"/>
<stop offset="1"/>
</linearGradient>
<linearGradient id="paint11_linear" x1="90.5" y1="8" x2="90.5" y2="30" gradientUnits="userSpaceOnUse">
<stop stop-color="#FDFDFD"/>
<stop offset="1" stop-color="#F3F3F3"/>
</linearGradient>
<linearGradient id="paint12_linear" x1="90.5" y1="8" x2="90.5" y2="30" gradientUnits="userSpaceOnUse">
<stop stop-opacity="0.5"/>
<stop offset="1"/>
</linearGradient>
<clipPath id="clip0">
<rect width="191" height="15" fill="white" transform="translate(520.75 12)"/>
</clipPath>
</defs>
</svg>
