<!-- Generator: Adobe Illustrator 18.1.1, SVG Export Plug-In  -->
<svg version="1.1"
	 xmlns="http://www.w3.org/2000/svg" xmlns:xlink="http://www.w3.org/1999/xlink" xmlns:a="http://ns.adobe.com/AdobeSVGViewerExtensions/3.0/"
	 x="0px" y="0px" width="251.5px" height="48.8px" viewBox="0 0 251.5 48.8" enable-background="new 0 0 251.5 48.8"
	 xml:space="preserve">
<defs>
</defs>
<g>
	<g opacity="0.3">
		<path d="M4.8,24.7V38v0.2c0,0.5-0.2,1-0.6,1.3C3.9,39.8,3.4,40,2.9,40c-0.5,0-0.9-0.2-1.3-0.5C1.2,39.1,1,38.7,1,38.1V24.7
			c0-0.5,0.2-1,0.6-1.3C2,23,2.4,22.9,2.9,22.9c0.5,0,0.9,0.2,1.3,0.5C4.6,23.8,4.8,24.2,4.8,24.7z M11.4,38.1v-7.4
			c0-0.4,0-0.9-0.1-1.4c-0.1-0.5-0.2-0.9-0.5-1.3c-0.2-0.4-0.5-0.7-0.9-1c-0.4-0.3-0.9-0.4-1.6-0.4c-0.6,0-1.1,0.1-1.5,0.3
			c-0.4,0.2-0.7,0.4-1,0.7v-3.5c0.4-0.3,0.9-0.6,1.5-0.8c0.6-0.2,1.3-0.4,2.1-0.4c0.4,0,0.8,0.1,1.3,0.2c0.5,0.1,0.9,0.3,1.4,0.5
			c0.4,0.2,0.9,0.6,1.2,0.9c0.4,0.4,0.7,0.9,1,1.5c0.2-0.4,0.5-0.8,0.9-1.2c0.3-0.4,0.7-0.7,1.2-1c0.4-0.3,0.9-0.5,1.5-0.7
			c0.5-0.2,1.1-0.3,1.8-0.3c0.7,0,1.4,0.1,2.2,0.3c0.8,0.2,1.5,0.7,2.1,1.3c0.4,0.4,0.7,0.8,0.9,1.1c0.2,0.4,0.4,0.8,0.5,1.3
			c0.1,0.5,0.2,1,0.3,1.6c0.1,0.6,0.1,1.3,0.1,2.1v7.4c0,0.5-0.2,1-0.6,1.3c-0.4,0.4-0.8,0.6-1.4,0.6c-0.6,0-1-0.2-1.4-0.6
			c-0.4-0.4-0.6-0.8-0.6-1.3v-7.3c0-0.5,0-1-0.1-1.5c-0.1-0.5-0.2-1-0.4-1.4c-0.2-0.4-0.5-0.8-0.9-1c-0.4-0.3-1-0.4-1.7-0.4
			c-0.7,0-1.3,0.1-1.7,0.4c-0.4,0.3-0.8,0.6-1,1c-0.2,0.4-0.4,0.8-0.5,1.3c-0.1,0.5-0.1,1-0.1,1.5v7.3c0,0.6-0.2,1-0.5,1.4
			c-0.3,0.4-0.8,0.6-1.4,0.6c-0.5,0-1-0.2-1.3-0.6S11.4,38.6,11.4,38.1z"/>
		<path d="M27.4,25.6l-0.1-0.1c-0.1-0.2-0.1-0.4-0.1-0.6c0-0.5,0.2-1,0.6-1.3c0.4-0.4,0.8-0.6,1.3-0.6c0.5,0,0.8,0.1,1.1,0.4
			c0.3,0.3,0.5,0.6,0.7,1l3,8.2l-1.9,5L27.4,25.6z M38.1,24.2l0-0.1c0.2-0.4,0.4-0.7,0.7-0.9c0.3-0.2,0.7-0.3,1-0.3
			c0.5,0,1,0.2,1.3,0.6c0.4,0.4,0.6,0.8,0.6,1.3v0.2c0,0.2-0.1,0.5-0.2,0.7l-7.3,18.7c-0.1,0.3-0.4,0.7-0.7,0.9
			c-0.3,0.3-0.7,0.4-1.1,0.4c-0.5,0-1-0.2-1.3-0.5c-0.4-0.4-0.6-0.8-0.6-1.3c0-0.1,0-0.2,0-0.3c0-0.1,0.1-0.2,0.1-0.3L38.1,24.2z"/>
		<path d="M4.8,24.7V38v0.2c0,0.5-0.2,1-0.6,1.3C3.9,39.8,3.4,40,2.9,40c-0.5,0-0.9-0.2-1.3-0.5C1.2,39.1,1,38.7,1,38.1V24.7
			c0-0.5,0.2-1,0.6-1.3C2,23,2.4,22.9,2.9,22.9c0.5,0,0.9,0.2,1.3,0.5C4.6,23.8,4.8,24.2,4.8,24.7z M11.4,38.1v-7.4
			c0-0.4,0-0.9-0.1-1.4c-0.1-0.5-0.2-0.9-0.5-1.3c-0.2-0.4-0.5-0.7-0.9-1c-0.4-0.3-0.9-0.4-1.6-0.4c-0.6,0-1.1,0.1-1.5,0.3
			c-0.4,0.2-0.7,0.4-1,0.7v-3.5c0.4-0.3,0.9-0.6,1.5-0.8c0.6-0.2,1.3-0.4,2.1-0.4c0.4,0,0.8,0.1,1.3,0.2c0.5,0.1,0.9,0.3,1.4,0.5
			c0.4,0.2,0.9,0.6,1.2,0.9c0.4,0.4,0.7,0.9,1,1.5c0.2-0.4,0.5-0.8,0.9-1.2c0.3-0.4,0.7-0.7,1.2-1c0.4-0.3,0.9-0.5,1.5-0.7
			c0.5-0.2,1.1-0.3,1.8-0.3c0.7,0,1.4,0.1,2.2,0.3c0.8,0.2,1.5,0.7,2.1,1.3c0.4,0.4,0.7,0.8,0.9,1.1c0.2,0.4,0.4,0.8,0.5,1.3
			c0.1,0.5,0.2,1,0.3,1.6c0.1,0.6,0.1,1.3,0.1,2.1v7.4c0,0.5-0.2,1-0.6,1.3c-0.4,0.4-0.8,0.6-1.4,0.6c-0.6,0-1-0.2-1.4-0.6
			c-0.4-0.4-0.6-0.8-0.6-1.3v-7.3c0-0.5,0-1-0.1-1.5c-0.1-0.5-0.2-1-0.4-1.4c-0.2-0.4-0.5-0.8-0.9-1c-0.4-0.3-1-0.4-1.7-0.4
			c-0.7,0-1.3,0.1-1.7,0.4c-0.4,0.3-0.8,0.6-1,1c-0.2,0.4-0.4,0.8-0.5,1.3c-0.1,0.5-0.1,1-0.1,1.5v7.3c0,0.6-0.2,1-0.5,1.4
			c-0.3,0.4-0.8,0.6-1.4,0.6c-0.5,0-1-0.2-1.3-0.6S11.4,38.6,11.4,38.1z"/>
		<path d="M27.4,25.6l-0.1-0.1c-0.1-0.2-0.1-0.4-0.1-0.6c0-0.5,0.2-1,0.6-1.3c0.4-0.4,0.8-0.6,1.3-0.6c0.5,0,0.8,0.1,1.1,0.4
			c0.3,0.3,0.5,0.6,0.7,1l3,8.2l-1.9,5L27.4,25.6z M38.1,24.2l0-0.1c0.2-0.4,0.4-0.7,0.7-0.9c0.3-0.2,0.7-0.3,1-0.3
			c0.5,0,1,0.2,1.3,0.6c0.4,0.4,0.6,0.8,0.6,1.3v0.2c0,0.2-0.1,0.5-0.2,0.7l-7.3,18.7c-0.1,0.3-0.4,0.7-0.7,0.9
			c-0.3,0.3-0.7,0.4-1.1,0.4c-0.5,0-1-0.2-1.3-0.5c-0.4-0.4-0.6-0.8-0.6-1.3c0-0.1,0-0.2,0-0.3c0-0.1,0.1-0.2,0.1-0.3L38.1,24.2z"/>
		<path fill="none" stroke="#000000" stroke-miterlimit="10" d="M4.8,24.7V38v0.2c0,0.5-0.2,1-0.6,1.3C3.9,39.8,3.4,40,2.9,40
			c-0.5,0-0.9-0.2-1.3-0.5C1.2,39.1,1,38.7,1,38.1V24.7c0-0.5,0.2-1,0.6-1.3C2,23,2.4,22.9,2.9,22.9c0.5,0,0.9,0.2,1.3,0.5
			C4.6,23.8,4.8,24.2,4.8,24.7z M11.4,38.1v-7.4c0-0.4,0-0.9-0.1-1.4c-0.1-0.5-0.2-0.9-0.5-1.3c-0.2-0.4-0.5-0.7-0.9-1
			c-0.4-0.3-0.9-0.4-1.6-0.4c-0.6,0-1.1,0.1-1.5,0.3c-0.4,0.2-0.7,0.4-1,0.7v-3.5c0.4-0.3,0.9-0.6,1.5-0.8c0.6-0.2,1.3-0.4,2.1-0.4
			c0.4,0,0.8,0.1,1.3,0.2c0.5,0.1,0.9,0.3,1.4,0.5c0.4,0.2,0.9,0.6,1.2,0.9c0.4,0.4,0.7,0.9,1,1.5c0.2-0.4,0.5-0.8,0.9-1.2
			c0.3-0.4,0.7-0.7,1.2-1c0.4-0.3,0.9-0.5,1.5-0.7c0.5-0.2,1.1-0.3,1.8-0.3c0.7,0,1.4,0.1,2.2,0.3c0.8,0.2,1.5,0.7,2.1,1.3
			c0.4,0.4,0.7,0.8,0.9,1.1c0.2,0.4,0.4,0.8,0.5,1.3c0.1,0.5,0.2,1,0.3,1.6c0.1,0.6,0.1,1.3,0.1,2.1v7.4c0,0.5-0.2,1-0.6,1.3
			c-0.4,0.4-0.8,0.6-1.4,0.6c-0.6,0-1-0.2-1.4-0.6c-0.4-0.4-0.6-0.8-0.6-1.3v-7.3c0-0.5,0-1-0.1-1.5c-0.1-0.5-0.2-1-0.4-1.4
			c-0.2-0.4-0.5-0.8-0.9-1c-0.4-0.3-1-0.4-1.7-0.4c-0.7,0-1.3,0.1-1.7,0.4c-0.4,0.3-0.8,0.6-1,1c-0.2,0.4-0.4,0.8-0.5,1.3
			c-0.1,0.5-0.1,1-0.1,1.5v7.3c0,0.6-0.2,1-0.5,1.4c-0.3,0.4-0.8,0.6-1.4,0.6c-0.5,0-1-0.2-1.3-0.6S11.4,38.6,11.4,38.1z"/>
		<path fill="none" stroke="#000000" stroke-miterlimit="10" d="M27.4,25.6l-0.1-0.1c-0.1-0.2-0.1-0.4-0.1-0.6c0-0.5,0.2-1,0.6-1.3
			c0.4-0.4,0.8-0.6,1.3-0.6c0.5,0,0.8,0.1,1.1,0.4c0.3,0.3,0.5,0.6,0.7,1l3,8.2l-1.9,5L27.4,25.6z M38.1,24.2l0-0.1
			c0.2-0.4,0.4-0.7,0.7-0.9c0.3-0.2,0.7-0.3,1-0.3c0.5,0,1,0.2,1.3,0.6c0.4,0.4,0.6,0.8,0.6,1.3v0.2c0,0.2-0.1,0.5-0.2,0.7
			l-7.3,18.7c-0.1,0.3-0.4,0.7-0.7,0.9c-0.3,0.3-0.7,0.4-1.1,0.4c-0.5,0-1-0.2-1.3-0.5c-0.4-0.4-0.6-0.8-0.6-1.3c0-0.1,0-0.2,0-0.3
			c0-0.1,0.1-0.2,0.1-0.3L38.1,24.2z"/>
	</g>
	<g>
		<g>
			<path d="M4.3,24.2v13.3v0.2c0,0.5-0.2,1-0.6,1.3c-0.4,0.3-0.8,0.5-1.3,0.5c-0.5,0-0.9-0.2-1.3-0.5c-0.4-0.3-0.6-0.8-0.6-1.3V24.2
				c0-0.5,0.2-1,0.6-1.3c0.4-0.3,0.8-0.5,1.3-0.5c0.5,0,0.9,0.2,1.3,0.5C4.1,23.3,4.3,23.7,4.3,24.2z M10.9,37.6v-7.4
				c0-0.4,0-0.9-0.1-1.4c-0.1-0.5-0.2-0.9-0.5-1.3c-0.2-0.4-0.5-0.7-0.9-1C8.9,26.1,8.4,26,7.7,26c-0.6,0-1.1,0.1-1.5,0.3
				c-0.4,0.2-0.7,0.4-1,0.7v-3.5c0.4-0.3,0.9-0.6,1.5-0.8c0.6-0.2,1.3-0.4,2.1-0.4c0.4,0,0.8,0.1,1.3,0.2c0.5,0.1,0.9,0.3,1.4,0.5
				c0.4,0.2,0.9,0.6,1.2,0.9c0.4,0.4,0.7,0.9,1,1.5c0.2-0.4,0.5-0.8,0.9-1.2c0.3-0.4,0.7-0.7,1.2-1c0.4-0.3,0.9-0.5,1.5-0.7
				c0.5-0.2,1.1-0.3,1.8-0.3c0.7,0,1.4,0.1,2.2,0.3c0.8,0.2,1.5,0.7,2.1,1.3c0.4,0.4,0.7,0.8,0.9,1.1c0.2,0.4,0.4,0.8,0.5,1.3
				c0.1,0.5,0.2,1,0.3,1.6c0.1,0.6,0.1,1.3,0.1,2.1v7.4c0,0.5-0.2,1-0.6,1.3c-0.4,0.4-0.8,0.6-1.4,0.6c-0.6,0-1-0.2-1.4-0.6
				c-0.4-0.4-0.6-0.8-0.6-1.3v-7.3c0-0.5,0-1-0.1-1.5c-0.1-0.5-0.2-1-0.4-1.4c-0.2-0.4-0.5-0.8-0.9-1c-0.4-0.3-1-0.4-1.7-0.4
				c-0.7,0-1.3,0.1-1.7,0.4c-0.4,0.3-0.8,0.6-1,1c-0.2,0.4-0.4,0.8-0.5,1.3c-0.1,0.5-0.1,1-0.1,1.5v7.3c0,0.6-0.2,1-0.5,1.4
				c-0.3,0.4-0.8,0.6-1.4,0.6c-0.5,0-1-0.2-1.3-0.6S10.9,38.1,10.9,37.6z"/>
			<path fill="#336699" d="M26.9,25.1L26.8,25c-0.1-0.2-0.1-0.4-0.1-0.6c0-0.5,0.2-1,0.6-1.3c0.4-0.4,0.8-0.6,1.3-0.6
				c0.5,0,0.8,0.1,1.1,0.4c0.3,0.3,0.5,0.6,0.7,1l3,8.2l-1.9,5L26.9,25.1z M37.6,23.7l0-0.1c0.2-0.4,0.4-0.7,0.7-0.9
				c0.3-0.2,0.7-0.3,1-0.3c0.5,0,1,0.2,1.3,0.6c0.4,0.4,0.6,0.8,0.6,1.3v0.2c0,0.2-0.1,0.5-0.2,0.7l-7.3,18.7
				c-0.1,0.3-0.4,0.7-0.7,0.9c-0.3,0.3-0.7,0.4-1.1,0.4c-0.5,0-1-0.2-1.3-0.5c-0.4-0.4-0.6-0.8-0.6-1.3c0-0.1,0-0.2,0-0.3
				c0-0.1,0.1-0.2,0.1-0.3L37.6,23.7z"/>
		</g>
		<g>
			<linearGradient id="SVGID_1_" gradientUnits="userSpaceOnUse" x1="0.5" y1="33.7649" x2="41.3286" y2="33.7649">
				<stop  offset="0" style="stop-color:#336699"/>
				<stop  offset="1" style="stop-color:#005095"/>
			</linearGradient>
			<path fill="url(#SVGID_1_)" d="M4.3,24.2v13.3v0.2c0,0.5-0.2,1-0.6,1.3c-0.4,0.3-0.8,0.5-1.3,0.5c-0.5,0-0.9-0.2-1.3-0.5
				c-0.4-0.3-0.6-0.8-0.6-1.3V24.2c0-0.5,0.2-1,0.6-1.3c0.4-0.3,0.8-0.5,1.3-0.5c0.5,0,0.9,0.2,1.3,0.5C4.1,23.3,4.3,23.7,4.3,24.2z
				 M10.9,37.6v-7.4c0-0.4,0-0.9-0.1-1.4c-0.1-0.5-0.2-0.9-0.5-1.3c-0.2-0.4-0.5-0.7-0.9-1C8.9,26.1,8.4,26,7.7,26
				c-0.6,0-1.1,0.1-1.5,0.3c-0.4,0.2-0.7,0.4-1,0.7v-3.5c0.4-0.3,0.9-0.6,1.5-0.8c0.6-0.2,1.3-0.4,2.1-0.4c0.4,0,0.8,0.1,1.3,0.2
				c0.5,0.1,0.9,0.3,1.4,0.5c0.4,0.2,0.9,0.6,1.2,0.9c0.4,0.4,0.7,0.9,1,1.5c0.2-0.4,0.5-0.8,0.9-1.2c0.3-0.4,0.7-0.7,1.2-1
				c0.4-0.3,0.9-0.5,1.5-0.7c0.5-0.2,1.1-0.3,1.8-0.3c0.7,0,1.4,0.1,2.2,0.3c0.8,0.2,1.5,0.7,2.1,1.3c0.4,0.4,0.7,0.8,0.9,1.1
				c0.2,0.4,0.4,0.8,0.5,1.3c0.1,0.5,0.2,1,0.3,1.6c0.1,0.6,0.1,1.3,0.1,2.1v7.4c0,0.5-0.2,1-0.6,1.3c-0.4,0.4-0.8,0.6-1.4,0.6
				c-0.6,0-1-0.2-1.4-0.6c-0.4-0.4-0.6-0.8-0.6-1.3v-7.3c0-0.5,0-1-0.1-1.5c-0.1-0.5-0.2-1-0.4-1.4c-0.2-0.4-0.5-0.8-0.9-1
				c-0.4-0.3-1-0.4-1.7-0.4c-0.7,0-1.3,0.1-1.7,0.4c-0.4,0.3-0.8,0.6-1,1c-0.2,0.4-0.4,0.8-0.5,1.3c-0.1,0.5-0.1,1-0.1,1.5v7.3
				c0,0.6-0.2,1-0.5,1.4c-0.3,0.4-0.8,0.6-1.4,0.6c-0.5,0-1-0.2-1.3-0.6S10.9,38.1,10.9,37.6z"/>
			<linearGradient id="SVGID_2_" gradientUnits="userSpaceOnUse" x1="0.5" y1="33.7649" x2="41.3286" y2="33.7649">
				<stop  offset="0" style="stop-color:#336699"/>
				<stop  offset="1" style="stop-color:#005095"/>
			</linearGradient>
			<path fill="url(#SVGID_2_)" d="M26.9,25.1L26.8,25c-0.1-0.2-0.1-0.4-0.1-0.6c0-0.5,0.2-1,0.6-1.3c0.4-0.4,0.8-0.6,1.3-0.6
				c0.5,0,0.8,0.1,1.1,0.4c0.3,0.3,0.5,0.6,0.7,1l3,8.2l-1.9,5L26.9,25.1z M37.6,23.7l0-0.1c0.2-0.4,0.4-0.7,0.7-0.9
				c0.3-0.2,0.7-0.3,1-0.3c0.5,0,1,0.2,1.3,0.6c0.4,0.4,0.6,0.8,0.6,1.3v0.2c0,0.2-0.1,0.5-0.2,0.7l-7.3,18.7
				c-0.1,0.3-0.4,0.7-0.7,0.9c-0.3,0.3-0.7,0.4-1.1,0.4c-0.5,0-1-0.2-1.3-0.5c-0.4-0.4-0.6-0.8-0.6-1.3c0-0.1,0-0.2,0-0.3
				c0-0.1,0.1-0.2,0.1-0.3L37.6,23.7z"/>
		</g>
		<g opacity="0.5">
			<path fill="none" stroke="#003366" stroke-miterlimit="10" d="M4.3,24.2v13.3v0.2c0,0.5-0.2,1-0.6,1.3c-0.4,0.3-0.8,0.5-1.3,0.5
				c-0.5,0-0.9-0.2-1.3-0.5c-0.4-0.3-0.6-0.8-0.6-1.3V24.2c0-0.5,0.2-1,0.6-1.3c0.4-0.3,0.8-0.5,1.3-0.5c0.5,0,0.9,0.2,1.3,0.5
				C4.1,23.3,4.3,23.7,4.3,24.2z M10.9,37.6v-7.4c0-0.4,0-0.9-0.1-1.4c-0.1-0.5-0.2-0.9-0.5-1.3c-0.2-0.4-0.5-0.7-0.9-1
				C8.9,26.1,8.4,26,7.7,26c-0.6,0-1.1,0.1-1.5,0.3c-0.4,0.2-0.7,0.4-1,0.7v-3.5c0.4-0.3,0.9-0.6,1.5-0.8c0.6-0.2,1.3-0.4,2.1-0.4
				c0.4,0,0.8,0.1,1.3,0.2c0.5,0.1,0.9,0.3,1.4,0.5c0.4,0.2,0.9,0.6,1.2,0.9c0.4,0.4,0.7,0.9,1,1.5c0.2-0.4,0.5-0.8,0.9-1.2
				c0.3-0.4,0.7-0.7,1.2-1c0.4-0.3,0.9-0.5,1.5-0.7c0.5-0.2,1.1-0.3,1.8-0.3c0.7,0,1.4,0.1,2.2,0.3c0.8,0.2,1.5,0.7,2.1,1.3
				c0.4,0.4,0.7,0.8,0.9,1.1c0.2,0.4,0.4,0.8,0.5,1.3c0.1,0.5,0.2,1,0.3,1.6c0.1,0.6,0.1,1.3,0.1,2.1v7.4c0,0.5-0.2,1-0.6,1.3
				c-0.4,0.4-0.8,0.6-1.4,0.6c-0.6,0-1-0.2-1.4-0.6c-0.4-0.4-0.6-0.8-0.6-1.3v-7.3c0-0.5,0-1-0.1-1.5c-0.1-0.5-0.2-1-0.4-1.4
				c-0.2-0.4-0.5-0.8-0.9-1c-0.4-0.3-1-0.4-1.7-0.4c-0.7,0-1.3,0.1-1.7,0.4c-0.4,0.3-0.8,0.6-1,1c-0.2,0.4-0.4,0.8-0.5,1.3
				c-0.1,0.5-0.1,1-0.1,1.5v7.3c0,0.6-0.2,1-0.5,1.4c-0.3,0.4-0.8,0.6-1.4,0.6c-0.5,0-1-0.2-1.3-0.6S10.9,38.1,10.9,37.6z"/>
			<path fill="none" stroke="#003366" stroke-miterlimit="10" d="M26.9,25.1L26.8,25c-0.1-0.2-0.1-0.4-0.1-0.6c0-0.5,0.2-1,0.6-1.3
				c0.4-0.4,0.8-0.6,1.3-0.6c0.5,0,0.8,0.1,1.1,0.4c0.3,0.3,0.5,0.6,0.7,1l3,8.2l-1.9,5L26.9,25.1z M37.6,23.7l0-0.1
				c0.2-0.4,0.4-0.7,0.7-0.9c0.3-0.2,0.7-0.3,1-0.3c0.5,0,1,0.2,1.3,0.6c0.4,0.4,0.6,0.8,0.6,1.3v0.2c0,0.2-0.1,0.5-0.2,0.7
				l-7.3,18.7c-0.1,0.3-0.4,0.7-0.7,0.9c-0.3,0.3-0.7,0.4-1.1,0.4c-0.5,0-1-0.2-1.3-0.5c-0.4-0.4-0.6-0.8-0.6-1.3c0-0.1,0-0.2,0-0.3
				c0-0.1,0.1-0.2,0.1-0.3L37.6,23.7z"/>
		</g>
	</g>
</g>
<g>
	<path fill="#008800" stroke="#14542B" stroke-miterlimit="10" stroke-opacity="0.5" d="M51.6,28.2c2.8-4.2,6.1-8,8.9-12.1
		c0.6-0.9,1.2-1.8,1-2.9c-0.2-1.2-1.4-2-2.6-1.9c-1.2,0-2.3,0.8-3,1.7c-0.8,0.9-1.2,2-1.7,3.1c-3.8,8.1-8.8,15.6-13.5,23.2
		c-0.8,1.2-1.5,2.5-1.6,4c0,1.4,1,3,2.5,3c1.1,0,2.2-1,2.7-2c0.7-1.3,1-2.9,1.5-4.3c1.1-2.8,2.2-5.6,3.7-8.3
		C50.1,30.4,50.8,29.3,51.6,28.2z"/>
	<path fill="#CC3333" stroke="#990033" stroke-miterlimit="10" stroke-opacity="0.5" d="M72,41.7c0.5,1.3,0.8,2.6,0.6,4
		C72.3,47,71.2,48,69.9,48c-1.3,0-2.3-0.9-2.7-2.1C66.8,44.6,67,43.3,67,42c0.1-6.7-3-13-6.2-19c-1.1-2.1-2.2-4.2-3.5-6.1
		c-0.7-1-1.5-2.2-1.2-3.4c0.3-1.3,1.8-2.1,3.2-2c0.5,0,1.1,0.2,1.5,0.6c0.5,0.4,0.7,1,0.9,1.5C64.2,20,66.7,26.5,69,33
		c0.8,2.3,1.6,4.6,2.4,7C71.6,40.5,71.8,41.1,72,41.7z"/>
	<path fill="#FFCC00" stroke="#CC9900" stroke-miterlimit="10" stroke-opacity="0.5" d="M48.1,34c0.3,0.1,0.5,0.1,0.8,0.1
		c0.6,0,1.2-0.1,1.8-0.3c0.5-0.2,1-0.3,1.5-0.5c1-0.4,2.1-0.9,3-1.5c2-1.1,6-2.9,6-2.9l3.4-1.2c0,0,4-0.8,6-1.1
		c0.8-0.1,1.6-0.3,2.1-0.8c0.8-0.7,1.1-1.9,0.7-2.8s-1.4-1.6-2.4-1.7c-0.9,0-1.7,0.3-2.5,0.6c-6.1,2.6-12.1,5.9-18.7,6.8
		c-0.7,0.1-1.5,0.2-2.1,0.6c-0.4,0.2-0.7,0.6-0.9,1c-0.4,0.7-0.6,1.6-0.3,2.4C46.9,33.4,47.5,33.8,48.1,34z"/>
	<path fill="#008800" stroke="#14542B" stroke-miterlimit="10" stroke-opacity="0.5" d="M51.6,28.2c2.8-4.2,6.1-8,8.9-12.1
		c0.6-0.9,1.2-1.8,1-2.9c-0.2-1.2-1.4-2-2.6-1.9c-1.2,0-2.3,0.8-3,1.7c-0.8,0.9-1.2,2-1.7,3.1c-3.8,8.1-8.8,15.6-13.5,23.2
		c-0.8,1.2-1.5,2.5-1.6,4c0,1.4,1,3,2.5,3c1.1,0,2.2-1,2.7-2c0.7-1.3,1-2.9,1.5-4.3c1.1-2.8,2.2-5.6,3.7-8.3
		C50.1,30.4,50.8,29.3,51.6,28.2z"/>
	<path fill="#CC3333" stroke="#990033" stroke-miterlimit="10" stroke-opacity="0.5" d="M72,41.7c0.5,1.3,0.8,2.6,0.6,4
		C72.3,47,71.2,48,69.9,48c-1.3,0-2.3-0.9-2.7-2.1C66.8,44.6,67,43.3,67,42c0.1-6.7-3-13-6.2-19c-1.1-2.1-2.2-4.2-3.5-6.1
		c-0.7-1-1.5-2.2-1.2-3.4c0.3-1.3,1.8-2.1,3.2-2c0.5,0,1.1,0.2,1.5,0.6c0.5,0.4,0.7,1,0.9,1.5C64.2,20,66.7,26.5,69,33
		c0.8,2.3,1.6,4.6,2.4,7C71.6,40.5,71.8,41.1,72,41.7z"/>
	<path fill="#FFCC00" stroke="#CC9900" stroke-miterlimit="10" stroke-opacity="0.5" d="M48.1,34c0.3,0.1,0.5,0.1,0.8,0.1
		c0.6,0,1.2-0.1,1.8-0.3c0.5-0.2,1-0.3,1.5-0.5c1-0.4,2.1-0.9,3-1.5c2-1.1,6-2.9,6-2.9l3.4-1.2c0,0,4-0.8,6-1.1
		c0.8-0.1,1.6-0.3,2.1-0.8c0.8-0.7,1.1-1.9,0.7-2.8s-1.4-1.6-2.4-1.7c-0.9,0-1.7,0.3-2.5,0.6c-6.1,2.6-12.1,5.9-18.7,6.8
		c-0.7,0.1-1.5,0.2-2.1,0.6c-0.4,0.2-0.7,0.6-0.9,1c-0.4,0.7-0.6,1.6-0.3,2.4C46.9,33.4,47.5,33.8,48.1,34z"/>
</g>
<g>
	<g opacity="0.3">
		<path d="M80.2,19.7c0.6,0.5,0.8,1.1,0.8,1.8v24.3c0,0.6-0.2,1.2-0.7,1.7c-0.5,0.5-1.1,0.7-1.7,0.7c-0.6,0-1.2-0.2-1.7-0.7
			c-0.5-0.4-0.8-1-0.8-1.7V21.5c0.1-0.7,0.3-1.3,0.8-1.7c0.5-0.5,1-0.7,1.7-0.7C79.2,19.1,79.8,19.3,80.2,19.7z M87.7,48.2
			c-1.1,0-2.2-0.2-3.1-0.5c-0.9-0.4-1.7-0.8-2.4-1.4v-4.9c0.5,0.7,1.2,1.2,2,1.6c0.8,0.4,1.7,0.6,2.8,0.6c1,0,1.9-0.2,2.7-0.6
			c0.8-0.4,1.4-0.9,2-1.5c0.5-0.6,0.9-1.3,1.2-2c0.3-0.8,0.4-1.5,0.4-2.4c0-0.9-0.2-1.7-0.5-2.4c-0.3-0.8-0.7-1.4-1.3-2
			c-0.6-0.6-1.2-1.1-2-1.4c-0.8-0.3-1.6-0.5-2.5-0.5c-1.1,0-2,0.2-2.8,0.6s-1.5,1-2,1.7v-4.9c0.9-0.8,1.9-1.3,3-1.6
			c1-0.3,2-0.4,2.7-0.4c1.2,0,2.4,0.2,3.7,0.7c1.2,0.4,2.3,1.1,3.3,2c1,0.9,1.8,2,2.4,3.4c0.6,1.4,0.9,2.9,0.9,4.8
			c0,1.8-0.3,3.3-0.8,4.7c-0.6,1.4-1.3,2.5-2.3,3.5c-1,0.9-2.1,1.7-3.4,2.2C90.5,47.9,89.1,48.2,87.7,48.2z"/>
		<path d="M116.5,46.1c-0.7,0.7-1.6,1.2-2.6,1.6c-1,0.3-2.1,0.5-3.2,0.5c-1.7,0-3.1-0.3-4.4-0.9c-1.3-0.6-2.4-1.4-3.3-2.4
			c-0.9-1-1.6-2.2-2.1-3.5c-0.5-1.3-0.7-2.7-0.7-4.2c0-1.6,0.3-3.1,0.8-4.5c0.6-1.3,1.3-2.5,2.3-3.5c1-1,2.1-1.7,3.3-2.2
			c1.3-0.5,2.6-0.8,4.1-0.8c1.3,0,2.5,0.2,3.4,0.6c1,0.4,1.7,0.9,2.3,1.5v5c-0.5-0.7-1.2-1.3-2-1.8c-0.8-0.5-1.8-0.7-3-0.7
			c-1,0-1.9,0.2-2.7,0.6c-0.8,0.4-1.4,0.9-2,1.5c-0.5,0.6-0.9,1.3-1.2,2.1c-0.3,0.8-0.4,1.6-0.4,2.4c0,0.7,0.1,1.3,0.4,2.1
			c0.2,0.7,0.6,1.4,1.1,2c0.5,0.6,1.2,1.1,2,1.6c0.8,0.4,1.7,0.6,2.8,0.6c1.2,0,2.2-0.2,3-0.7c0.8-0.5,1.5-1.1,2-1.8V46.1z
			 M117.7,28.7c0-0.7,0.2-1.2,0.7-1.7c0.5-0.5,1.1-0.7,1.7-0.7c0.7,0,1.3,0.2,1.7,0.7c0.5,0.5,0.7,1.1,0.7,1.7v17
			c0,0.2,0,0.4-0.1,0.5c0,0.1-0.1,0.3-0.1,0.4v0c-0.2,0.4-0.5,0.8-0.9,1.1c-0.4,0.3-0.9,0.4-1.4,0.4c-0.7,0-1.3-0.2-1.7-0.7
			c-0.5-0.5-0.7-1-0.7-1.7V28.7z"/>
		<path d="M129.6,19.7c0.5,0.5,0.8,1.1,0.8,1.8v24.4c0,0.7-0.3,1.2-0.7,1.7c-0.5,0.4-1,0.7-1.7,0.7c-0.7,0-1.3-0.2-1.7-0.7
			c-0.5-0.5-0.7-1-0.7-1.7V21.5c0-0.7,0.2-1.3,0.7-1.7c0.5-0.5,1-0.7,1.7-0.7C128.6,19.1,129.2,19.3,129.6,19.7z M137.6,47.2l-6-8.3
			v-5.4l5.9-6.5c0.2-0.3,0.5-0.5,0.8-0.6c0.3-0.1,0.6-0.2,1-0.2c0.5,0,1,0.2,1.4,0.5l0.1,0.1c0.4,0.4,0.6,0.9,0.6,1.5v0.2
			c0,0.3-0.1,0.6-0.2,0.8c-0.1,0.2-0.3,0.5-0.5,0.7l-5.8,6.1l6.3,8.5c0.3,0.4,0.5,0.8,0.6,1.4V46c-0.1,0.6-0.3,1.1-0.7,1.5
			c-0.4,0.4-1,0.6-1.6,0.6c-0.3,0-0.7-0.1-1-0.2c-0.4-0.2-0.6-0.4-0.7-0.6L137.6,47.2z"/>
		<path d="M156.9,46.7c-0.6,0.5-1.2,0.8-2,1.1c-0.8,0.3-1.8,0.4-2.9,0.4c-1.7,0-3.1-0.3-4.1-0.9c-1-0.6-1.8-1.3-2.4-2.2
			c-0.6-0.9-1-1.8-1.2-2.9c-0.2-1-0.3-2-0.3-2.9V28.7c0-0.7,0.2-1.3,0.7-1.7c0.5-0.5,1-0.7,1.7-0.7c0.7,0,1.3,0.2,1.7,0.7
			c0.5,0.5,0.7,1,0.8,1.7v9.5c0,0.8,0.1,1.5,0.2,2.1c0.1,0.7,0.4,1.2,0.7,1.7c0.3,0.5,0.8,0.9,1.4,1.1c0.6,0.3,1.3,0.4,2.2,0.4
			c0.8,0,1.5-0.1,2.1-0.4c0.6-0.2,1-0.6,1.4-1V46.7z M163,28.6l0,17.2c0,0.7-0.3,1.2-0.7,1.7c-0.5,0.4-1,0.7-1.7,0.7
			c-0.7,0-1.3-0.2-1.7-0.7c-0.5-0.4-0.7-1-0.8-1.7V28.6c0.1-0.7,0.3-1.2,0.8-1.7c0.5-0.5,1-0.7,1.7-0.7c0.7,0,1.2,0.2,1.7,0.7
			C162.7,27.4,163,27.9,163,28.6z"/>
		<path d="M164.7,43.9c-0.1-0.2-0.1-0.4-0.1-0.5c0-0.1-0.1-0.3-0.1-0.5c0-0.7,0.2-1.2,0.7-1.7c0.5-0.5,1-0.7,1.7-0.7
			c0.4,0,0.9,0.1,1.2,0.3c0.4,0.2,0.7,0.5,0.9,0.9l0.1,0.1c0,0.1,0.1,0.2,0.1,0.3v0.1c0.2,0.7,0.6,1.1,1,1.4
			c0.5,0.3,0.9,0.5,1.4,0.5v4c-0.6,0-1.3-0.1-2-0.3c-0.7-0.2-1.3-0.4-2-0.8c-0.6-0.3-1.2-0.8-1.7-1.3
			C165.5,45.3,165.1,44.7,164.7,43.9z M171.7,38.9c-0.9-0.3-1.8-0.6-2.6-0.9c-0.8-0.3-1.6-0.7-2.3-1.1c-0.7-0.4-1.2-1-1.6-1.6
			c-0.4-0.6-0.6-1.4-0.6-2.4c0-1,0.2-1.9,0.6-2.7c0.4-0.8,0.9-1.5,1.5-2.1c0.6-0.6,1.4-1,2.2-1.3c0.9-0.3,1.8-0.5,2.7-0.5v4
			c-0.7,0.1-1.3,0.3-1.6,0.7c-0.4,0.4-0.5,0.9-0.5,1.3c0,0.5,0.2,1,0.6,1.3c0.4,0.3,0.9,0.6,1.5,0.9V38.9z M172.8,26.3
			c0.5,0.1,1.1,0.2,1.6,0.3c0.6,0.1,1.1,0.4,1.6,0.6c0.5,0.3,1,0.6,1.5,1.1c0.4,0.4,0.8,1,1.1,1.6v0.1c0.2,0.4,0.2,0.7,0.2,1
			c0,0.7-0.2,1.2-0.7,1.7c-0.5,0.4-1,0.7-1.6,0.7c-0.2,0-0.4,0-0.7-0.1c-0.3-0.1-0.5-0.2-0.7-0.4c-0.2-0.2-0.4-0.3-0.6-0.6
			c-0.2-0.2-0.2-0.4-0.2-0.7c-0.1-0.3-0.3-0.5-0.5-0.8c-0.2-0.2-0.5-0.4-1-0.5V26.3z M172.8,44.1c0.6-0.1,1.1-0.4,1.6-0.8
			c0.4-0.4,0.6-0.9,0.6-1.5c0-0.6-0.2-1.1-0.5-1.4c-0.3-0.3-0.9-0.7-1.7-1v-4.5l0.2,0.1c0.8,0.2,1.6,0.5,2.5,0.7
			c0.8,0.3,1.6,0.6,2.2,1.1c0.7,0.5,1.2,1,1.6,1.8c0.4,0.7,0.6,1.6,0.6,2.8c0,1-0.2,1.9-0.6,2.7c-0.4,0.8-0.9,1.5-1.5,2.1
			c-0.7,0.6-1.4,1.1-2.3,1.4c-0.9,0.4-1.8,0.6-2.8,0.6V44.1z"/>
		<path d="M80.2,19.7c0.6,0.5,0.8,1.1,0.8,1.8v24.3c0,0.6-0.2,1.2-0.7,1.7c-0.5,0.5-1.1,0.7-1.7,0.7c-0.6,0-1.2-0.2-1.7-0.7
			c-0.5-0.4-0.8-1-0.8-1.7V21.5c0.1-0.7,0.3-1.3,0.8-1.7c0.5-0.5,1-0.7,1.7-0.7C79.2,19.1,79.8,19.3,80.2,19.7z M87.7,48.2
			c-1.1,0-2.2-0.2-3.1-0.5c-0.9-0.4-1.7-0.8-2.4-1.4v-4.9c0.5,0.7,1.2,1.2,2,1.6c0.8,0.4,1.7,0.6,2.8,0.6c1,0,1.9-0.2,2.7-0.6
			c0.8-0.4,1.4-0.9,2-1.5c0.5-0.6,0.9-1.3,1.2-2c0.3-0.8,0.4-1.5,0.4-2.4c0-0.9-0.2-1.7-0.5-2.4c-0.3-0.8-0.7-1.4-1.3-2
			c-0.6-0.6-1.2-1.1-2-1.4c-0.8-0.3-1.6-0.5-2.5-0.5c-1.1,0-2,0.2-2.8,0.6s-1.5,1-2,1.7v-4.9c0.9-0.8,1.9-1.3,3-1.6
			c1-0.3,2-0.4,2.7-0.4c1.2,0,2.4,0.2,3.7,0.7c1.2,0.4,2.3,1.1,3.3,2c1,0.9,1.8,2,2.4,3.4c0.6,1.4,0.9,2.9,0.9,4.8
			c0,1.8-0.3,3.3-0.8,4.7c-0.6,1.4-1.3,2.5-2.3,3.5c-1,0.9-2.1,1.7-3.4,2.2C90.5,47.9,89.1,48.2,87.7,48.2z"/>
		<path d="M116.5,46.1c-0.7,0.7-1.6,1.2-2.6,1.6c-1,0.3-2.1,0.5-3.2,0.5c-1.7,0-3.1-0.3-4.4-0.9c-1.3-0.6-2.4-1.4-3.3-2.4
			c-0.9-1-1.6-2.2-2.1-3.5c-0.5-1.3-0.7-2.7-0.7-4.2c0-1.6,0.3-3.1,0.8-4.5c0.6-1.3,1.3-2.5,2.3-3.5c1-1,2.1-1.7,3.3-2.2
			c1.3-0.5,2.6-0.8,4.1-0.8c1.3,0,2.5,0.2,3.4,0.6c1,0.4,1.7,0.9,2.3,1.5v5c-0.5-0.7-1.2-1.3-2-1.8c-0.8-0.5-1.8-0.7-3-0.7
			c-1,0-1.9,0.2-2.7,0.6c-0.8,0.4-1.4,0.9-2,1.5c-0.5,0.6-0.9,1.3-1.2,2.1c-0.3,0.8-0.4,1.6-0.4,2.4c0,0.7,0.1,1.3,0.4,2.1
			c0.2,0.7,0.6,1.4,1.1,2c0.5,0.6,1.2,1.1,2,1.6c0.8,0.4,1.7,0.6,2.8,0.6c1.2,0,2.2-0.2,3-0.7c0.8-0.5,1.5-1.1,2-1.8V46.1z
			 M117.7,28.7c0-0.7,0.2-1.2,0.7-1.7c0.5-0.5,1.1-0.7,1.7-0.7c0.7,0,1.3,0.2,1.7,0.7c0.5,0.5,0.7,1.1,0.7,1.7v17
			c0,0.2,0,0.4-0.1,0.5c0,0.1-0.1,0.3-0.1,0.4v0c-0.2,0.4-0.5,0.8-0.9,1.1c-0.4,0.3-0.9,0.4-1.4,0.4c-0.7,0-1.3-0.2-1.7-0.7
			c-0.5-0.5-0.7-1-0.7-1.7V28.7z"/>
		<path d="M129.6,19.7c0.5,0.5,0.8,1.1,0.8,1.8v24.4c0,0.7-0.3,1.2-0.7,1.7c-0.5,0.4-1,0.7-1.7,0.7c-0.7,0-1.3-0.2-1.7-0.7
			c-0.5-0.5-0.7-1-0.7-1.7V21.5c0-0.7,0.2-1.3,0.7-1.7c0.5-0.5,1-0.7,1.7-0.7C128.6,19.1,129.2,19.3,129.6,19.7z M137.6,47.2l-6-8.3
			v-5.4l5.9-6.5c0.2-0.3,0.5-0.5,0.8-0.6c0.3-0.1,0.6-0.2,1-0.2c0.5,0,1,0.2,1.4,0.5l0.1,0.1c0.4,0.4,0.6,0.9,0.6,1.5v0.2
			c0,0.3-0.1,0.6-0.2,0.8c-0.1,0.2-0.3,0.5-0.5,0.7l-5.8,6.1l6.3,8.5c0.3,0.4,0.5,0.8,0.6,1.4V46c-0.1,0.6-0.3,1.1-0.7,1.5
			c-0.4,0.4-1,0.6-1.6,0.6c-0.3,0-0.7-0.1-1-0.2c-0.4-0.2-0.6-0.4-0.7-0.6L137.6,47.2z"/>
		<path d="M156.9,46.7c-0.6,0.5-1.2,0.8-2,1.1c-0.8,0.3-1.8,0.4-2.9,0.4c-1.7,0-3.1-0.3-4.1-0.9c-1-0.6-1.8-1.3-2.4-2.2
			c-0.6-0.9-1-1.8-1.2-2.9c-0.2-1-0.3-2-0.3-2.9V28.7c0-0.7,0.2-1.3,0.7-1.7c0.5-0.5,1-0.7,1.7-0.7c0.7,0,1.3,0.2,1.7,0.7
			c0.5,0.5,0.7,1,0.8,1.7v9.5c0,0.8,0.1,1.5,0.2,2.1c0.1,0.7,0.4,1.2,0.7,1.7c0.3,0.5,0.8,0.9,1.4,1.1c0.6,0.3,1.3,0.4,2.2,0.4
			c0.8,0,1.5-0.1,2.1-0.4c0.6-0.2,1-0.6,1.4-1V46.7z M163,28.6l0,17.2c0,0.7-0.3,1.2-0.7,1.7c-0.5,0.4-1,0.7-1.7,0.7
			c-0.7,0-1.3-0.2-1.7-0.7c-0.5-0.4-0.7-1-0.8-1.7V28.6c0.1-0.7,0.3-1.2,0.8-1.7c0.5-0.5,1-0.7,1.7-0.7c0.7,0,1.2,0.2,1.7,0.7
			C162.7,27.4,163,27.9,163,28.6z"/>
		<path d="M164.7,43.9c-0.1-0.2-0.1-0.4-0.1-0.5c0-0.1-0.1-0.3-0.1-0.5c0-0.7,0.2-1.2,0.7-1.7c0.5-0.5,1-0.7,1.7-0.7
			c0.4,0,0.9,0.1,1.2,0.3c0.4,0.2,0.7,0.5,0.9,0.9l0.1,0.1c0,0.1,0.1,0.2,0.1,0.3v0.1c0.2,0.7,0.6,1.1,1,1.4
			c0.5,0.3,0.9,0.5,1.4,0.5v4c-0.6,0-1.3-0.1-2-0.3c-0.7-0.2-1.3-0.4-2-0.8c-0.6-0.3-1.2-0.8-1.7-1.3
			C165.5,45.3,165.1,44.7,164.7,43.9z M171.7,38.9c-0.9-0.3-1.8-0.6-2.6-0.9c-0.8-0.3-1.6-0.7-2.3-1.1c-0.7-0.4-1.2-1-1.6-1.6
			c-0.4-0.6-0.6-1.4-0.6-2.4c0-1,0.2-1.9,0.6-2.7c0.4-0.8,0.9-1.5,1.5-2.1c0.6-0.6,1.4-1,2.2-1.3c0.9-0.3,1.8-0.5,2.7-0.5v4
			c-0.7,0.1-1.3,0.3-1.6,0.7c-0.4,0.4-0.5,0.9-0.5,1.3c0,0.5,0.2,1,0.6,1.3c0.4,0.3,0.9,0.6,1.5,0.9V38.9z M172.8,26.3
			c0.5,0.1,1.1,0.2,1.6,0.3c0.6,0.1,1.1,0.4,1.6,0.6c0.5,0.3,1,0.6,1.5,1.1c0.4,0.4,0.8,1,1.1,1.6v0.1c0.2,0.4,0.2,0.7,0.2,1
			c0,0.7-0.2,1.2-0.7,1.7c-0.5,0.4-1,0.7-1.6,0.7c-0.2,0-0.4,0-0.7-0.1c-0.3-0.1-0.5-0.2-0.7-0.4c-0.2-0.2-0.4-0.3-0.6-0.6
			c-0.2-0.2-0.2-0.4-0.2-0.7c-0.1-0.3-0.3-0.5-0.5-0.8c-0.2-0.2-0.5-0.4-1-0.5V26.3z M172.8,44.1c0.6-0.1,1.1-0.4,1.6-0.8
			c0.4-0.4,0.6-0.9,0.6-1.5c0-0.6-0.2-1.1-0.5-1.4c-0.3-0.3-0.9-0.7-1.7-1v-4.5l0.2,0.1c0.8,0.2,1.6,0.5,2.5,0.7
			c0.8,0.3,1.6,0.6,2.2,1.1c0.7,0.5,1.2,1,1.6,1.8c0.4,0.7,0.6,1.6,0.6,2.8c0,1-0.2,1.9-0.6,2.7c-0.4,0.8-0.9,1.5-1.5,2.1
			c-0.7,0.6-1.4,1.1-2.3,1.4c-0.9,0.4-1.8,0.6-2.8,0.6V44.1z"/>
		<path fill="none" stroke="#000000" stroke-miterlimit="10" d="M80.2,19.7c0.6,0.5,0.8,1.1,0.8,1.8v24.3c0,0.6-0.2,1.2-0.7,1.7
			c-0.5,0.5-1.1,0.7-1.7,0.7c-0.6,0-1.2-0.2-1.7-0.7c-0.5-0.4-0.8-1-0.8-1.7V21.5c0.1-0.7,0.3-1.3,0.8-1.7c0.5-0.5,1-0.7,1.7-0.7
			C79.2,19.1,79.8,19.3,80.2,19.7z M87.7,48.2c-1.1,0-2.2-0.2-3.1-0.5c-0.9-0.4-1.7-0.8-2.4-1.4v-4.9c0.5,0.7,1.2,1.2,2,1.6
			c0.8,0.4,1.7,0.6,2.8,0.6c1,0,1.9-0.2,2.7-0.6c0.8-0.4,1.4-0.9,2-1.5c0.5-0.6,0.9-1.3,1.2-2c0.3-0.8,0.4-1.5,0.4-2.4
			c0-0.9-0.2-1.7-0.5-2.4c-0.3-0.8-0.7-1.4-1.3-2c-0.6-0.6-1.2-1.1-2-1.4c-0.8-0.3-1.6-0.5-2.5-0.5c-1.1,0-2,0.2-2.8,0.6
			s-1.5,1-2,1.7v-4.9c0.9-0.8,1.9-1.3,3-1.6c1-0.3,2-0.4,2.7-0.4c1.2,0,2.4,0.2,3.7,0.7c1.2,0.4,2.3,1.1,3.3,2c1,0.9,1.8,2,2.4,3.4
			c0.6,1.4,0.9,2.9,0.9,4.8c0,1.8-0.3,3.3-0.8,4.7c-0.6,1.4-1.3,2.5-2.3,3.5c-1,0.9-2.1,1.7-3.4,2.2C90.5,47.9,89.1,48.2,87.7,48.2z
			"/>
		<path fill="none" stroke="#000000" stroke-miterlimit="10" d="M116.5,46.1c-0.7,0.7-1.6,1.2-2.6,1.6c-1,0.3-2.1,0.5-3.2,0.5
			c-1.7,0-3.1-0.3-4.4-0.9c-1.3-0.6-2.4-1.4-3.3-2.4c-0.9-1-1.6-2.2-2.1-3.5c-0.5-1.3-0.7-2.7-0.7-4.2c0-1.6,0.3-3.1,0.8-4.5
			c0.6-1.3,1.3-2.5,2.3-3.5c1-1,2.1-1.7,3.3-2.2c1.3-0.5,2.6-0.8,4.1-0.8c1.3,0,2.5,0.2,3.4,0.6c1,0.4,1.7,0.9,2.3,1.5v5
			c-0.5-0.7-1.2-1.3-2-1.8c-0.8-0.5-1.8-0.7-3-0.7c-1,0-1.9,0.2-2.7,0.6c-0.8,0.4-1.4,0.9-2,1.5c-0.5,0.6-0.9,1.3-1.2,2.1
			c-0.3,0.8-0.4,1.6-0.4,2.4c0,0.7,0.1,1.3,0.4,2.1c0.2,0.7,0.6,1.4,1.1,2c0.5,0.6,1.2,1.1,2,1.6c0.8,0.4,1.7,0.6,2.8,0.6
			c1.2,0,2.2-0.2,3-0.7c0.8-0.5,1.5-1.1,2-1.8V46.1z M117.7,28.7c0-0.7,0.2-1.2,0.7-1.7c0.5-0.5,1.1-0.7,1.7-0.7
			c0.7,0,1.3,0.2,1.7,0.7c0.5,0.5,0.7,1.1,0.7,1.7v17c0,0.2,0,0.4-0.1,0.5c0,0.1-0.1,0.3-0.1,0.4v0c-0.2,0.4-0.5,0.8-0.9,1.1
			c-0.4,0.3-0.9,0.4-1.4,0.4c-0.7,0-1.3-0.2-1.7-0.7c-0.5-0.5-0.7-1-0.7-1.7V28.7z"/>
		<path fill="none" stroke="#000000" stroke-miterlimit="10" d="M129.6,19.7c0.5,0.5,0.8,1.1,0.8,1.8v24.4c0,0.7-0.3,1.2-0.7,1.7
			c-0.5,0.4-1,0.7-1.7,0.7c-0.7,0-1.3-0.2-1.7-0.7c-0.5-0.5-0.7-1-0.7-1.7V21.5c0-0.7,0.2-1.3,0.7-1.7c0.5-0.5,1-0.7,1.7-0.7
			C128.6,19.1,129.2,19.3,129.6,19.7z M137.6,47.2l-6-8.3v-5.4l5.9-6.5c0.2-0.3,0.5-0.5,0.8-0.6c0.3-0.1,0.6-0.2,1-0.2
			c0.5,0,1,0.2,1.4,0.5l0.1,0.1c0.4,0.4,0.6,0.9,0.6,1.5v0.2c0,0.3-0.1,0.6-0.2,0.8c-0.1,0.2-0.3,0.5-0.5,0.7l-5.8,6.1l6.3,8.5
			c0.3,0.4,0.5,0.8,0.6,1.4V46c-0.1,0.6-0.3,1.1-0.7,1.5c-0.4,0.4-1,0.6-1.6,0.6c-0.3,0-0.7-0.1-1-0.2c-0.4-0.2-0.6-0.4-0.7-0.6
			L137.6,47.2z"/>
		<path fill="none" stroke="#000000" stroke-miterlimit="10" d="M156.9,46.7c-0.6,0.5-1.2,0.8-2,1.1c-0.8,0.3-1.8,0.4-2.9,0.4
			c-1.7,0-3.1-0.3-4.1-0.9c-1-0.6-1.8-1.3-2.4-2.2c-0.6-0.9-1-1.8-1.2-2.9c-0.2-1-0.3-2-0.3-2.9V28.7c0-0.7,0.2-1.3,0.7-1.7
			c0.5-0.5,1-0.7,1.7-0.7c0.7,0,1.3,0.2,1.7,0.7c0.5,0.5,0.7,1,0.8,1.7v9.5c0,0.8,0.1,1.5,0.2,2.1c0.1,0.7,0.4,1.2,0.7,1.7
			c0.3,0.5,0.8,0.9,1.4,1.1c0.6,0.3,1.3,0.4,2.2,0.4c0.8,0,1.5-0.1,2.1-0.4c0.6-0.2,1-0.6,1.4-1V46.7z M163,28.6l0,17.2
			c0,0.7-0.3,1.2-0.7,1.7c-0.5,0.4-1,0.7-1.7,0.7c-0.7,0-1.3-0.2-1.7-0.7c-0.5-0.4-0.7-1-0.8-1.7V28.6c0.1-0.7,0.3-1.2,0.8-1.7
			c0.5-0.5,1-0.7,1.7-0.7c0.7,0,1.2,0.2,1.7,0.7C162.7,27.4,163,27.9,163,28.6z"/>
		<path fill="none" stroke="#000000" stroke-miterlimit="10" d="M164.7,43.9c-0.1-0.2-0.1-0.4-0.1-0.5c0-0.1-0.1-0.3-0.1-0.5
			c0-0.7,0.2-1.2,0.7-1.7c0.5-0.5,1-0.7,1.7-0.7c0.4,0,0.9,0.1,1.2,0.3c0.4,0.2,0.7,0.5,0.9,0.9l0.1,0.1c0,0.1,0.1,0.2,0.1,0.3v0.1
			c0.2,0.7,0.6,1.1,1,1.4c0.5,0.3,0.9,0.5,1.4,0.5v4c-0.6,0-1.3-0.1-2-0.3c-0.7-0.2-1.3-0.4-2-0.8c-0.6-0.3-1.2-0.8-1.7-1.3
			C165.5,45.3,165.1,44.7,164.7,43.9z M171.7,38.9c-0.9-0.3-1.8-0.6-2.6-0.9c-0.8-0.3-1.6-0.7-2.3-1.1c-0.7-0.4-1.2-1-1.6-1.6
			c-0.4-0.6-0.6-1.4-0.6-2.4c0-1,0.2-1.9,0.6-2.7c0.4-0.8,0.9-1.5,1.5-2.1c0.6-0.6,1.4-1,2.2-1.3c0.9-0.3,1.8-0.5,2.7-0.5v4
			c-0.7,0.1-1.3,0.3-1.6,0.7c-0.4,0.4-0.5,0.9-0.5,1.3c0,0.5,0.2,1,0.6,1.3c0.4,0.3,0.9,0.6,1.5,0.9V38.9z M172.8,26.3
			c0.5,0.1,1.1,0.2,1.6,0.3c0.6,0.1,1.1,0.4,1.6,0.6c0.5,0.3,1,0.6,1.5,1.1c0.4,0.4,0.8,1,1.1,1.6v0.1c0.2,0.4,0.2,0.7,0.2,1
			c0,0.7-0.2,1.2-0.7,1.7c-0.5,0.4-1,0.7-1.6,0.7c-0.2,0-0.4,0-0.7-0.1c-0.3-0.1-0.5-0.2-0.7-0.4c-0.2-0.2-0.4-0.3-0.6-0.6
			c-0.2-0.2-0.2-0.4-0.2-0.7c-0.1-0.3-0.3-0.5-0.5-0.8c-0.2-0.2-0.5-0.4-1-0.5V26.3z M172.8,44.1c0.6-0.1,1.1-0.4,1.6-0.8
			c0.4-0.4,0.6-0.9,0.6-1.5c0-0.6-0.2-1.1-0.5-1.4c-0.3-0.3-0.9-0.7-1.7-1v-4.5l0.2,0.1c0.8,0.2,1.6,0.5,2.5,0.7
			c0.8,0.3,1.6,0.6,2.2,1.1c0.7,0.5,1.2,1,1.6,1.8c0.4,0.7,0.6,1.6,0.6,2.8c0,1-0.2,1.9-0.6,2.7c-0.4,0.8-0.9,1.5-1.5,2.1
			c-0.7,0.6-1.4,1.1-2.3,1.4c-0.9,0.4-1.8,0.6-2.8,0.6V44.1z"/>
	</g>
	<g>
		<g>
			<path fill="#336699" d="M79.7,19.2c0.6,0.5,0.8,1.1,0.8,1.8v24.3c0,0.6-0.2,1.2-0.7,1.7c-0.5,0.5-1.1,0.7-1.7,0.7
				c-0.6,0-1.2-0.2-1.7-0.7c-0.5-0.4-0.8-1-0.8-1.7V21c0.1-0.7,0.3-1.3,0.8-1.7c0.5-0.5,1-0.7,1.7-0.7
				C78.7,18.6,79.3,18.8,79.7,19.2z M87.2,47.7c-1.1,0-2.2-0.2-3.1-0.5c-0.9-0.4-1.7-0.8-2.4-1.4v-4.9c0.5,0.7,1.2,1.2,2,1.6
				c0.8,0.4,1.7,0.6,2.8,0.6c1,0,1.9-0.2,2.7-0.6c0.8-0.4,1.4-0.9,2-1.5c0.5-0.6,0.9-1.3,1.2-2c0.3-0.8,0.4-1.5,0.4-2.4
				c0-0.9-0.2-1.7-0.5-2.4c-0.3-0.8-0.7-1.4-1.3-2c-0.6-0.6-1.2-1.1-2-1.4c-0.8-0.3-1.6-0.5-2.5-0.5c-1.1,0-2,0.2-2.8,0.6
				s-1.5,1-2,1.7v-4.9c0.9-0.8,1.9-1.3,3-1.6c1-0.3,2-0.4,2.7-0.4c1.2,0,2.4,0.2,3.7,0.7c1.2,0.4,2.3,1.1,3.3,2c1,0.9,1.8,2,2.4,3.4
				c0.6,1.4,0.9,2.9,0.9,4.8c0,1.8-0.3,3.3-0.8,4.7c-0.6,1.4-1.3,2.5-2.3,3.5c-1,0.9-2.1,1.7-3.4,2.2C90,47.4,88.6,47.7,87.2,47.7z"
				/>
			<path fill="#336699" d="M116,45.6c-0.7,0.7-1.6,1.2-2.6,1.6c-1,0.3-2.1,0.5-3.2,0.5c-1.7,0-3.1-0.3-4.4-0.9
				c-1.3-0.6-2.4-1.4-3.3-2.4c-0.9-1-1.6-2.2-2.1-3.5c-0.5-1.3-0.7-2.7-0.7-4.2c0-1.6,0.3-3.1,0.8-4.5c0.6-1.3,1.3-2.5,2.3-3.5
				c1-1,2.1-1.7,3.3-2.2c1.3-0.5,2.6-0.8,4.1-0.8c1.3,0,2.5,0.2,3.4,0.6c1,0.4,1.7,0.9,2.3,1.5v5c-0.5-0.7-1.2-1.3-2-1.8
				c-0.8-0.5-1.8-0.7-3-0.7c-1,0-1.9,0.2-2.7,0.6c-0.8,0.4-1.4,0.9-2,1.5c-0.5,0.6-0.9,1.3-1.2,2.1c-0.3,0.8-0.4,1.6-0.4,2.4
				c0,0.7,0.1,1.3,0.4,2.1c0.2,0.7,0.6,1.4,1.1,2c0.5,0.6,1.2,1.1,2,1.6c0.8,0.4,1.7,0.6,2.8,0.6c1.2,0,2.2-0.2,3-0.7
				c0.8-0.5,1.5-1.1,2-1.8V45.6z M117.2,28.2c0-0.7,0.2-1.2,0.7-1.7c0.5-0.5,1.1-0.7,1.7-0.7c0.7,0,1.3,0.2,1.7,0.7
				c0.5,0.5,0.7,1.1,0.7,1.7v17c0,0.2,0,0.4-0.1,0.5c0,0.1-0.1,0.3-0.1,0.4v0c-0.2,0.4-0.5,0.8-0.9,1.1c-0.4,0.3-0.9,0.4-1.4,0.4
				c-0.7,0-1.3-0.2-1.7-0.7c-0.5-0.5-0.7-1-0.7-1.7V28.2z"/>
			<path fill="#336699" d="M129.1,19.2c0.5,0.5,0.8,1.1,0.8,1.8v24.4c0,0.7-0.3,1.2-0.7,1.7c-0.5,0.4-1,0.7-1.7,0.7
				c-0.7,0-1.3-0.2-1.7-0.7c-0.5-0.5-0.7-1-0.7-1.7V21c0-0.7,0.2-1.3,0.7-1.7c0.5-0.5,1-0.7,1.7-0.7
				C128.1,18.6,128.7,18.8,129.1,19.2z M137.1,46.7l-6-8.3V33l5.9-6.5c0.2-0.3,0.5-0.5,0.8-0.6c0.3-0.1,0.6-0.2,1-0.2
				c0.5,0,1,0.2,1.4,0.5l0.1,0.1c0.4,0.4,0.6,0.9,0.6,1.5v0.2c0,0.3-0.1,0.6-0.2,0.8c-0.1,0.2-0.3,0.5-0.5,0.7l-5.8,6.1l6.3,8.5
				c0.3,0.4,0.5,0.8,0.6,1.4v0.2c-0.1,0.6-0.3,1.1-0.7,1.5c-0.4,0.4-1,0.6-1.6,0.6c-0.3,0-0.7-0.1-1-0.2c-0.4-0.2-0.6-0.4-0.7-0.6
				L137.1,46.7z"/>
			<path fill="#336699" d="M156.4,46.2c-0.6,0.5-1.2,0.8-2,1.1c-0.8,0.3-1.8,0.4-2.9,0.4c-1.7,0-3.1-0.3-4.1-0.9
				c-1-0.6-1.8-1.3-2.4-2.2c-0.6-0.9-1-1.8-1.2-2.9c-0.2-1-0.3-2-0.3-2.9V28.2c0-0.7,0.2-1.3,0.7-1.7c0.5-0.5,1-0.7,1.7-0.7
				c0.7,0,1.3,0.2,1.7,0.7c0.5,0.5,0.7,1,0.8,1.7v9.5c0,0.8,0.1,1.5,0.2,2.1c0.1,0.7,0.4,1.2,0.7,1.7c0.3,0.5,0.8,0.9,1.4,1.1
				c0.6,0.3,1.3,0.4,2.2,0.4c0.8,0,1.5-0.1,2.1-0.4c0.6-0.2,1-0.6,1.4-1V46.2z M162.5,28.1l0,17.2c0,0.7-0.3,1.2-0.7,1.7
				c-0.5,0.4-1,0.7-1.7,0.7c-0.7,0-1.3-0.2-1.7-0.7c-0.5-0.4-0.7-1-0.8-1.7V28.1c0.1-0.7,0.3-1.2,0.8-1.7c0.5-0.5,1-0.7,1.7-0.7
				c0.7,0,1.2,0.2,1.7,0.7C162.2,26.9,162.5,27.4,162.5,28.1z"/>
			<path fill="#336699" d="M164.2,43.4c-0.1-0.2-0.1-0.4-0.1-0.5c0-0.1-0.1-0.3-0.1-0.5c0-0.7,0.2-1.2,0.7-1.7
				c0.5-0.5,1-0.7,1.7-0.7c0.4,0,0.9,0.1,1.2,0.3c0.4,0.2,0.7,0.5,0.9,0.9l0.1,0.1c0,0.1,0.1,0.2,0.1,0.3v0.1c0.2,0.7,0.6,1.1,1,1.4
				c0.5,0.3,0.9,0.5,1.4,0.5v4c-0.6,0-1.3-0.1-2-0.3c-0.7-0.2-1.3-0.4-2-0.8c-0.6-0.3-1.2-0.8-1.7-1.3
				C165,44.8,164.6,44.2,164.2,43.4z M171.2,38.4c-0.9-0.3-1.8-0.6-2.6-0.9c-0.8-0.3-1.6-0.7-2.3-1.1c-0.7-0.4-1.2-1-1.6-1.6
				c-0.4-0.6-0.6-1.4-0.6-2.4c0-1,0.2-1.9,0.6-2.7c0.4-0.8,0.9-1.5,1.5-2.1c0.6-0.6,1.4-1,2.2-1.3c0.9-0.3,1.8-0.5,2.7-0.5v4
				c-0.7,0.1-1.3,0.3-1.6,0.7c-0.4,0.4-0.5,0.9-0.5,1.3c0,0.5,0.2,1,0.6,1.3c0.4,0.3,0.9,0.6,1.5,0.9V38.4z M172.3,25.8
				c0.5,0.1,1.1,0.2,1.6,0.3c0.6,0.1,1.1,0.4,1.6,0.6c0.5,0.3,1,0.6,1.5,1.1c0.4,0.4,0.8,1,1.1,1.6v0.1c0.2,0.4,0.2,0.7,0.2,1
				c0,0.7-0.2,1.2-0.7,1.7c-0.5,0.4-1,0.7-1.6,0.7c-0.2,0-0.4,0-0.7-0.1c-0.3-0.1-0.5-0.2-0.7-0.4c-0.2-0.2-0.4-0.3-0.6-0.6
				c-0.2-0.2-0.2-0.4-0.2-0.7c-0.1-0.3-0.3-0.5-0.5-0.8c-0.2-0.2-0.5-0.4-1-0.5V25.8z M172.3,43.6c0.6-0.1,1.1-0.4,1.6-0.8
				c0.4-0.4,0.6-0.9,0.6-1.5c0-0.6-0.2-1.1-0.5-1.4c-0.3-0.3-0.9-0.7-1.7-1v-4.5l0.2,0.1c0.8,0.2,1.6,0.5,2.5,0.7
				c0.8,0.3,1.6,0.6,2.2,1.1c0.7,0.5,1.2,1,1.6,1.8c0.4,0.7,0.6,1.6,0.6,2.8c0,1-0.2,1.9-0.6,2.7c-0.4,0.8-0.9,1.5-1.5,2.1
				c-0.7,0.6-1.4,1.1-2.3,1.4c-0.9,0.4-1.8,0.6-2.8,0.6V43.6z"/>
		</g>
		<g>
			<linearGradient id="SVGID_3_" gradientUnits="userSpaceOnUse" x1="127.5267" y1="18.5637" x2="127.5267" y2="47.6907">
				<stop  offset="0" style="stop-color:#336699"/>
				<stop  offset="1" style="stop-color:#005095"/>
			</linearGradient>
			<path fill="url(#SVGID_3_)" d="M79.7,19.2c0.6,0.5,0.8,1.1,0.8,1.8v24.3c0,0.6-0.2,1.2-0.7,1.7c-0.5,0.5-1.1,0.7-1.7,0.7
				c-0.6,0-1.2-0.2-1.7-0.7c-0.5-0.4-0.8-1-0.8-1.7V21c0.1-0.7,0.3-1.3,0.8-1.7c0.5-0.5,1-0.7,1.7-0.7
				C78.7,18.6,79.3,18.8,79.7,19.2z M87.2,47.7c-1.1,0-2.2-0.2-3.1-0.5c-0.9-0.4-1.7-0.8-2.4-1.4v-4.9c0.5,0.7,1.2,1.2,2,1.6
				c0.8,0.4,1.7,0.6,2.8,0.6c1,0,1.9-0.2,2.7-0.6c0.8-0.4,1.4-0.9,2-1.5c0.5-0.6,0.9-1.3,1.2-2c0.3-0.8,0.4-1.5,0.4-2.4
				c0-0.9-0.2-1.7-0.5-2.4c-0.3-0.8-0.7-1.4-1.3-2c-0.6-0.6-1.2-1.1-2-1.4c-0.8-0.3-1.6-0.5-2.5-0.5c-1.1,0-2,0.2-2.8,0.6
				s-1.5,1-2,1.7v-4.9c0.9-0.8,1.9-1.3,3-1.6c1-0.3,2-0.4,2.7-0.4c1.2,0,2.4,0.2,3.7,0.7c1.2,0.4,2.3,1.1,3.3,2c1,0.9,1.8,2,2.4,3.4
				c0.6,1.4,0.9,2.9,0.9,4.8c0,1.8-0.3,3.3-0.8,4.7c-0.6,1.4-1.3,2.5-2.3,3.5c-1,0.9-2.1,1.7-3.4,2.2C90,47.4,88.6,47.7,87.2,47.7z"
				/>
			<linearGradient id="SVGID_4_" gradientUnits="userSpaceOnUse" x1="127.5267" y1="18.5637" x2="127.5267" y2="47.6907">
				<stop  offset="0" style="stop-color:#336699"/>
				<stop  offset="1" style="stop-color:#005095"/>
			</linearGradient>
			<path fill="url(#SVGID_4_)" d="M116,45.6c-0.7,0.7-1.6,1.2-2.6,1.6c-1,0.3-2.1,0.5-3.2,0.5c-1.7,0-3.1-0.3-4.4-0.9
				c-1.3-0.6-2.4-1.4-3.3-2.4c-0.9-1-1.6-2.2-2.1-3.5c-0.5-1.3-0.7-2.7-0.7-4.2c0-1.6,0.3-3.1,0.8-4.5c0.6-1.3,1.3-2.5,2.3-3.5
				c1-1,2.1-1.7,3.3-2.2c1.3-0.5,2.6-0.8,4.1-0.8c1.3,0,2.5,0.2,3.4,0.6c1,0.4,1.7,0.9,2.3,1.5v5c-0.5-0.7-1.2-1.3-2-1.8
				c-0.8-0.5-1.8-0.7-3-0.7c-1,0-1.9,0.2-2.7,0.6c-0.8,0.4-1.4,0.9-2,1.5c-0.5,0.6-0.9,1.3-1.2,2.1c-0.3,0.8-0.4,1.6-0.4,2.4
				c0,0.7,0.1,1.3,0.4,2.1c0.2,0.7,0.6,1.4,1.1,2c0.5,0.6,1.2,1.1,2,1.6c0.8,0.4,1.7,0.6,2.8,0.6c1.2,0,2.2-0.2,3-0.7
				c0.8-0.5,1.5-1.1,2-1.8V45.6z M117.2,28.2c0-0.7,0.2-1.2,0.7-1.7c0.5-0.5,1.1-0.7,1.7-0.7c0.7,0,1.3,0.2,1.7,0.7
				c0.5,0.5,0.7,1.1,0.7,1.7v17c0,0.2,0,0.4-0.1,0.5c0,0.1-0.1,0.3-0.1,0.4v0c-0.2,0.4-0.5,0.8-0.9,1.1c-0.4,0.3-0.9,0.4-1.4,0.4
				c-0.7,0-1.3-0.2-1.7-0.7c-0.5-0.5-0.7-1-0.7-1.7V28.2z"/>
			<linearGradient id="SVGID_5_" gradientUnits="userSpaceOnUse" x1="127.5267" y1="18.5637" x2="127.5267" y2="47.6907">
				<stop  offset="0" style="stop-color:#336699"/>
				<stop  offset="1" style="stop-color:#005095"/>
			</linearGradient>
			<path fill="url(#SVGID_5_)" d="M129.1,19.2c0.5,0.5,0.8,1.1,0.8,1.8v24.4c0,0.7-0.3,1.2-0.7,1.7c-0.5,0.4-1,0.7-1.7,0.7
				c-0.7,0-1.3-0.2-1.7-0.7c-0.5-0.5-0.7-1-0.7-1.7V21c0-0.7,0.2-1.3,0.7-1.7c0.5-0.5,1-0.7,1.7-0.7
				C128.1,18.6,128.7,18.8,129.1,19.2z M137.1,46.7l-6-8.3V33l5.9-6.5c0.2-0.3,0.5-0.5,0.8-0.6c0.3-0.1,0.6-0.2,1-0.2
				c0.5,0,1,0.2,1.4,0.5l0.1,0.1c0.4,0.4,0.6,0.9,0.6,1.5v0.2c0,0.3-0.1,0.6-0.2,0.8c-0.1,0.2-0.3,0.5-0.5,0.7l-5.8,6.1l6.3,8.5
				c0.3,0.4,0.5,0.8,0.6,1.4v0.2c-0.1,0.6-0.3,1.1-0.7,1.5c-0.4,0.4-1,0.6-1.6,0.6c-0.3,0-0.7-0.1-1-0.2c-0.4-0.2-0.6-0.4-0.7-0.6
				L137.1,46.7z"/>
			<linearGradient id="SVGID_6_" gradientUnits="userSpaceOnUse" x1="127.5267" y1="18.5637" x2="127.5267" y2="47.6907">
				<stop  offset="0" style="stop-color:#336699"/>
				<stop  offset="1" style="stop-color:#005095"/>
			</linearGradient>
			<path fill="url(#SVGID_6_)" d="M156.4,46.2c-0.6,0.5-1.2,0.8-2,1.1c-0.8,0.3-1.8,0.4-2.9,0.4c-1.7,0-3.1-0.3-4.1-0.9
				c-1-0.6-1.8-1.3-2.4-2.2c-0.6-0.9-1-1.8-1.2-2.9c-0.2-1-0.3-2-0.3-2.9V28.2c0-0.7,0.2-1.3,0.7-1.7c0.5-0.5,1-0.7,1.7-0.7
				c0.7,0,1.3,0.2,1.7,0.7c0.5,0.5,0.7,1,0.8,1.7v9.5c0,0.8,0.1,1.5,0.2,2.1c0.1,0.7,0.4,1.2,0.7,1.7c0.3,0.5,0.8,0.9,1.4,1.1
				c0.6,0.3,1.3,0.4,2.2,0.4c0.8,0,1.5-0.1,2.1-0.4c0.6-0.2,1-0.6,1.4-1V46.2z M162.5,28.1l0,17.2c0,0.7-0.3,1.2-0.7,1.7
				c-0.5,0.4-1,0.7-1.7,0.7c-0.7,0-1.3-0.2-1.7-0.7c-0.5-0.4-0.7-1-0.8-1.7V28.1c0.1-0.7,0.3-1.2,0.8-1.7c0.5-0.5,1-0.7,1.7-0.7
				c0.7,0,1.2,0.2,1.7,0.7C162.2,26.9,162.5,27.4,162.5,28.1z"/>
			<linearGradient id="SVGID_7_" gradientUnits="userSpaceOnUse" x1="127.5267" y1="18.5637" x2="127.5267" y2="47.6907">
				<stop  offset="0" style="stop-color:#336699"/>
				<stop  offset="1" style="stop-color:#005095"/>
			</linearGradient>
			<path fill="url(#SVGID_7_)" d="M164.2,43.4c-0.1-0.2-0.1-0.4-0.1-0.5c0-0.1-0.1-0.3-0.1-0.5c0-0.7,0.2-1.2,0.7-1.7
				c0.5-0.5,1-0.7,1.7-0.7c0.4,0,0.9,0.1,1.2,0.3c0.4,0.2,0.7,0.5,0.9,0.9l0.1,0.1c0,0.1,0.1,0.2,0.1,0.3v0.1c0.2,0.7,0.6,1.1,1,1.4
				c0.5,0.3,0.9,0.5,1.4,0.5v4c-0.6,0-1.3-0.1-2-0.3c-0.7-0.2-1.3-0.4-2-0.8c-0.6-0.3-1.2-0.8-1.7-1.3
				C165,44.8,164.6,44.2,164.2,43.4z M171.2,38.4c-0.9-0.3-1.8-0.6-2.6-0.9c-0.8-0.3-1.6-0.7-2.3-1.1c-0.7-0.4-1.2-1-1.6-1.6
				c-0.4-0.6-0.6-1.4-0.6-2.4c0-1,0.2-1.9,0.6-2.7c0.4-0.8,0.9-1.5,1.5-2.1c0.6-0.6,1.4-1,2.2-1.3c0.9-0.3,1.8-0.5,2.7-0.5v4
				c-0.7,0.1-1.3,0.3-1.6,0.7c-0.4,0.4-0.5,0.9-0.5,1.3c0,0.5,0.2,1,0.6,1.3c0.4,0.3,0.9,0.6,1.5,0.9V38.4z M172.3,25.8
				c0.5,0.1,1.1,0.2,1.6,0.3c0.6,0.1,1.1,0.4,1.6,0.6c0.5,0.3,1,0.6,1.5,1.1c0.4,0.4,0.8,1,1.1,1.6v0.1c0.2,0.4,0.2,0.7,0.2,1
				c0,0.7-0.2,1.2-0.7,1.7c-0.5,0.4-1,0.7-1.6,0.7c-0.2,0-0.4,0-0.7-0.1c-0.3-0.1-0.5-0.2-0.7-0.4c-0.2-0.2-0.4-0.3-0.6-0.6
				c-0.2-0.2-0.2-0.4-0.2-0.7c-0.1-0.3-0.3-0.5-0.5-0.8c-0.2-0.2-0.5-0.4-1-0.5V25.8z M172.3,43.6c0.6-0.1,1.1-0.4,1.6-0.8
				c0.4-0.4,0.6-0.9,0.6-1.5c0-0.6-0.2-1.1-0.5-1.4c-0.3-0.3-0.9-0.7-1.7-1v-4.5l0.2,0.1c0.8,0.2,1.6,0.5,2.5,0.7
				c0.8,0.3,1.6,0.6,2.2,1.1c0.7,0.5,1.2,1,1.6,1.8c0.4,0.7,0.6,1.6,0.6,2.8c0,1-0.2,1.9-0.6,2.7c-0.4,0.8-0.9,1.5-1.5,2.1
				c-0.7,0.6-1.4,1.1-2.3,1.4c-0.9,0.4-1.8,0.6-2.8,0.6V43.6z"/>
		</g>
		<g opacity="0.5">
			<path fill="none" stroke="#003366" stroke-miterlimit="10" d="M79.7,19.2c0.6,0.5,0.8,1.1,0.8,1.8v24.3c0,0.6-0.2,1.2-0.7,1.7
				c-0.5,0.5-1.1,0.7-1.7,0.7c-0.6,0-1.2-0.2-1.7-0.7c-0.5-0.4-0.8-1-0.8-1.7V21c0.1-0.7,0.3-1.3,0.8-1.7c0.5-0.5,1-0.7,1.7-0.7
				C78.7,18.6,79.3,18.8,79.7,19.2z M87.2,47.7c-1.1,0-2.2-0.2-3.1-0.5c-0.9-0.4-1.7-0.8-2.4-1.4v-4.9c0.5,0.7,1.2,1.2,2,1.6
				c0.8,0.4,1.7,0.6,2.8,0.6c1,0,1.9-0.2,2.7-0.6c0.8-0.4,1.4-0.9,2-1.5c0.5-0.6,0.9-1.3,1.2-2c0.3-0.8,0.4-1.5,0.4-2.4
				c0-0.9-0.2-1.7-0.5-2.4c-0.3-0.8-0.7-1.4-1.3-2c-0.6-0.6-1.2-1.1-2-1.4c-0.8-0.3-1.6-0.5-2.5-0.5c-1.1,0-2,0.2-2.8,0.6
				s-1.5,1-2,1.7v-4.9c0.9-0.8,1.9-1.3,3-1.6c1-0.3,2-0.4,2.7-0.4c1.2,0,2.4,0.2,3.7,0.7c1.2,0.4,2.3,1.1,3.3,2c1,0.9,1.8,2,2.4,3.4
				c0.6,1.4,0.9,2.9,0.9,4.8c0,1.8-0.3,3.3-0.8,4.7c-0.6,1.4-1.3,2.5-2.3,3.5c-1,0.9-2.1,1.7-3.4,2.2C90,47.4,88.6,47.7,87.2,47.7z"
				/>
			<path fill="none" stroke="#003366" stroke-miterlimit="10" d="M116,45.6c-0.7,0.7-1.6,1.2-2.6,1.6c-1,0.3-2.1,0.5-3.2,0.5
				c-1.7,0-3.1-0.3-4.4-0.9c-1.3-0.6-2.4-1.4-3.3-2.4c-0.9-1-1.6-2.2-2.1-3.5c-0.5-1.3-0.7-2.7-0.7-4.2c0-1.6,0.3-3.1,0.8-4.5
				c0.6-1.3,1.3-2.5,2.3-3.5c1-1,2.1-1.7,3.3-2.2c1.3-0.5,2.6-0.8,4.1-0.8c1.3,0,2.5,0.2,3.4,0.6c1,0.4,1.7,0.9,2.3,1.5v5
				c-0.5-0.7-1.2-1.3-2-1.8c-0.8-0.5-1.8-0.7-3-0.7c-1,0-1.9,0.2-2.7,0.6c-0.8,0.4-1.4,0.9-2,1.5c-0.5,0.6-0.9,1.3-1.2,2.1
				c-0.3,0.8-0.4,1.6-0.4,2.4c0,0.7,0.1,1.3,0.4,2.1c0.2,0.7,0.6,1.4,1.1,2c0.5,0.6,1.2,1.1,2,1.6c0.8,0.4,1.7,0.6,2.8,0.6
				c1.2,0,2.2-0.2,3-0.7c0.8-0.5,1.5-1.1,2-1.8V45.6z M117.2,28.2c0-0.7,0.2-1.2,0.7-1.7c0.5-0.5,1.1-0.7,1.7-0.7
				c0.7,0,1.3,0.2,1.7,0.7c0.5,0.5,0.7,1.1,0.7,1.7v17c0,0.2,0,0.4-0.1,0.5c0,0.1-0.1,0.3-0.1,0.4v0c-0.2,0.4-0.5,0.8-0.9,1.1
				c-0.4,0.3-0.9,0.4-1.4,0.4c-0.7,0-1.3-0.2-1.7-0.7c-0.5-0.5-0.7-1-0.7-1.7V28.2z"/>
			<path fill="none" stroke="#003366" stroke-miterlimit="10" d="M129.1,19.2c0.5,0.5,0.8,1.1,0.8,1.8v24.4c0,0.7-0.3,1.2-0.7,1.7
				c-0.5,0.4-1,0.7-1.7,0.7c-0.7,0-1.3-0.2-1.7-0.7c-0.5-0.5-0.7-1-0.7-1.7V21c0-0.7,0.2-1.3,0.7-1.7c0.5-0.5,1-0.7,1.7-0.7
				C128.1,18.6,128.7,18.8,129.1,19.2z M137.1,46.7l-6-8.3V33l5.9-6.5c0.2-0.3,0.5-0.5,0.8-0.6c0.3-0.1,0.6-0.2,1-0.2
				c0.5,0,1,0.2,1.4,0.5l0.1,0.1c0.4,0.4,0.6,0.9,0.6,1.5v0.2c0,0.3-0.1,0.6-0.2,0.8c-0.1,0.2-0.3,0.5-0.5,0.7l-5.8,6.1l6.3,8.5
				c0.3,0.4,0.5,0.8,0.6,1.4v0.2c-0.1,0.6-0.3,1.1-0.7,1.5c-0.4,0.4-1,0.6-1.6,0.6c-0.3,0-0.7-0.1-1-0.2c-0.4-0.2-0.6-0.4-0.7-0.6
				L137.1,46.7z"/>
			<path fill="none" stroke="#003366" stroke-miterlimit="10" d="M156.4,46.2c-0.6,0.5-1.2,0.8-2,1.1c-0.8,0.3-1.8,0.4-2.9,0.4
				c-1.7,0-3.1-0.3-4.1-0.9c-1-0.6-1.8-1.3-2.4-2.2c-0.6-0.9-1-1.8-1.2-2.9c-0.2-1-0.3-2-0.3-2.9V28.2c0-0.7,0.2-1.3,0.7-1.7
				c0.5-0.5,1-0.7,1.7-0.7c0.7,0,1.3,0.2,1.7,0.7c0.5,0.5,0.7,1,0.8,1.7v9.5c0,0.8,0.1,1.5,0.2,2.1c0.1,0.7,0.4,1.2,0.7,1.7
				c0.3,0.5,0.8,0.9,1.4,1.1c0.6,0.3,1.3,0.4,2.2,0.4c0.8,0,1.5-0.1,2.1-0.4c0.6-0.2,1-0.6,1.4-1V46.2z M162.5,28.1l0,17.2
				c0,0.7-0.3,1.2-0.7,1.7c-0.5,0.4-1,0.7-1.7,0.7c-0.7,0-1.3-0.2-1.7-0.7c-0.5-0.4-0.7-1-0.8-1.7V28.1c0.1-0.7,0.3-1.2,0.8-1.7
				c0.5-0.5,1-0.7,1.7-0.7c0.7,0,1.2,0.2,1.7,0.7C162.2,26.9,162.5,27.4,162.5,28.1z"/>
			<path fill="none" stroke="#003366" stroke-miterlimit="10" d="M164.2,43.4c-0.1-0.2-0.1-0.4-0.1-0.5c0-0.1-0.1-0.3-0.1-0.5
				c0-0.7,0.2-1.2,0.7-1.7c0.5-0.5,1-0.7,1.7-0.7c0.4,0,0.9,0.1,1.2,0.3c0.4,0.2,0.7,0.5,0.9,0.9l0.1,0.1c0,0.1,0.1,0.2,0.1,0.3v0.1
				c0.2,0.7,0.6,1.1,1,1.4c0.5,0.3,0.9,0.5,1.4,0.5v4c-0.6,0-1.3-0.1-2-0.3c-0.7-0.2-1.3-0.4-2-0.8c-0.6-0.3-1.2-0.8-1.7-1.3
				C165,44.8,164.6,44.2,164.2,43.4z M171.2,38.4c-0.9-0.3-1.8-0.6-2.6-0.9c-0.8-0.3-1.6-0.7-2.3-1.1c-0.7-0.4-1.2-1-1.6-1.6
				c-0.4-0.6-0.6-1.4-0.6-2.4c0-1,0.2-1.9,0.6-2.7c0.4-0.8,0.9-1.5,1.5-2.1c0.6-0.6,1.4-1,2.2-1.3c0.9-0.3,1.8-0.5,2.7-0.5v4
				c-0.7,0.1-1.3,0.3-1.6,0.7c-0.4,0.4-0.5,0.9-0.5,1.3c0,0.5,0.2,1,0.6,1.3c0.4,0.3,0.9,0.6,1.5,0.9V38.4z M172.3,25.8
				c0.5,0.1,1.1,0.2,1.6,0.3c0.6,0.1,1.1,0.4,1.6,0.6c0.5,0.3,1,0.6,1.5,1.1c0.4,0.4,0.8,1,1.1,1.6v0.1c0.2,0.4,0.2,0.7,0.2,1
				c0,0.7-0.2,1.2-0.7,1.7c-0.5,0.4-1,0.7-1.6,0.7c-0.2,0-0.4,0-0.7-0.1c-0.3-0.1-0.5-0.2-0.7-0.4c-0.2-0.2-0.4-0.3-0.6-0.6
				c-0.2-0.2-0.2-0.4-0.2-0.7c-0.1-0.3-0.3-0.5-0.5-0.8c-0.2-0.2-0.5-0.4-1-0.5V25.8z M172.3,43.6c0.6-0.1,1.1-0.4,1.6-0.8
				c0.4-0.4,0.6-0.9,0.6-1.5c0-0.6-0.2-1.1-0.5-1.4c-0.3-0.3-0.9-0.7-1.7-1v-4.5l0.2,0.1c0.8,0.2,1.6,0.5,2.5,0.7
				c0.8,0.3,1.6,0.6,2.2,1.1c0.7,0.5,1.2,1,1.6,1.8c0.4,0.7,0.6,1.6,0.6,2.8c0,1-0.2,1.9-0.6,2.7c-0.4,0.8-0.9,1.5-1.5,2.1
				c-0.7,0.6-1.4,1.1-2.3,1.4c-0.9,0.4-1.8,0.6-2.8,0.6V43.6z"/>
		</g>
	</g>
</g>
<g>
	<g opacity="0.3">
		<path d="M197.3,48.2c-1.1-0.1-2.2-0.4-3.1-0.9c-0.9-0.5-1.7-1.1-2.4-1.9c-0.7-0.8-1.2-1.6-1.5-2.6c-0.4-1-0.6-2-0.6-3.1
			c0-1.1,0.2-2.2,0.6-3.2c0.4-1,0.9-1.8,1.6-2.6c0.7-0.8,1.5-1.4,2.4-1.9c0.9-0.5,1.9-0.8,3-0.9v3.6c-0.6,0.1-1.1,0.3-1.5,0.6
			c-0.5,0.3-0.9,0.6-1.2,1c-0.3,0.4-0.6,0.9-0.8,1.5c-0.2,0.6-0.3,1.2-0.3,1.8c0,1.3,0.4,2.4,1.1,3.2c0.7,0.9,1.6,1.4,2.7,1.6V48.2z
			 M198.2,34.7v-3.6c0.7,0,1.5,0.1,2.2,0.3c0.7,0.2,1.4,0.5,2.1,0.8c0.7,0.4,1.2,0.8,1.8,1.3c0.5,0.5,1,1.1,1.3,1.7
			c0.2,0.3,0.2,0.6,0.2,0.9c0,0.5-0.2,1-0.5,1.3c-0.4,0.4-0.8,0.6-1.3,0.6h-0.1c-0.4,0-0.8-0.1-1.1-0.3c-0.3-0.2-0.5-0.5-0.7-0.8
			c-0.4-0.7-1-1.2-1.6-1.6C199.9,35,199.1,34.7,198.2,34.7z M202.3,42.2c0.4-0.5,0.9-0.8,1.7-0.8c0.5,0,0.9,0.2,1.3,0.6
			c0.3,0.4,0.5,0.8,0.5,1.3c0,0.4-0.1,0.7-0.2,0.9l-0.1,0.2c-0.8,1.1-1.8,2.1-3,2.8c-1.2,0.7-2.6,1.1-4.2,1.1h-0.1v-3.6h0.1
			c0.9,0,1.7-0.2,2.4-0.7c0.7-0.5,1.2-1,1.6-1.6C202.2,42.3,202.3,42.2,202.3,42.2z"/>
		<path d="M211.2,39.7c0,0.7,0.1,1.3,0.3,1.9c0.2,0.6,0.5,1.1,0.9,1.5c0.4,0.4,0.8,0.8,1.4,1c0.5,0.3,1.1,0.4,1.7,0.5v3.6
			c-1.3-0.1-2.5-0.3-3.5-0.9c-1-0.5-1.9-1.2-2.6-2c-0.7-0.8-1.2-1.7-1.6-2.7c-0.3-1-0.5-2-0.5-3c0-1,0.2-2,0.5-3
			c0.3-1,0.9-1.9,1.6-2.7c0.7-0.8,1.5-1.5,2.6-2c1-0.5,2.2-0.8,3.5-0.9v3.6c-0.6,0.1-1.2,0.2-1.7,0.5c-0.5,0.3-1,0.6-1.4,1
			c-0.4,0.4-0.7,0.9-0.9,1.5C211.3,38.4,211.2,39,211.2,39.7z M216.4,44.6c0.6-0.1,1.2-0.2,1.7-0.5c0.5-0.3,1-0.6,1.3-1
			c0.4-0.4,0.7-0.9,0.9-1.5c0.2-0.6,0.3-1.2,0.3-1.9c0-0.7-0.1-1.3-0.3-1.9c-0.2-0.6-0.5-1.1-0.9-1.5c-0.4-0.4-0.8-0.8-1.3-1
			c-0.5-0.3-1.1-0.4-1.7-0.5v-3.6c1.3,0.1,2.5,0.4,3.5,0.9c1,0.5,1.9,1.2,2.6,2c0.7,0.8,1.2,1.7,1.6,2.7c0.3,1,0.5,2,0.5,3
			c0,1-0.2,2-0.5,3c-0.3,1-0.9,1.9-1.6,2.7c-0.7,0.8-1.5,1.5-2.6,2c-1,0.5-2.2,0.8-3.5,0.9V44.6z"/>
		<path d="M230.3,32.9v13.3v0.2c0,0.5-0.2,1-0.6,1.3c-0.4,0.3-0.8,0.5-1.3,0.5c-0.5,0-0.9-0.2-1.3-0.5c-0.4-0.3-0.6-0.8-0.6-1.3
			V32.9c0-0.5,0.2-1,0.6-1.3c0.4-0.3,0.8-0.5,1.3-0.5c0.5,0,0.9,0.2,1.3,0.5C230.1,32,230.3,32.4,230.3,32.9z M236.8,46.3v-7.4
			c0-0.4,0-0.9-0.1-1.4c-0.1-0.5-0.2-0.9-0.5-1.3c-0.2-0.4-0.5-0.7-0.9-1c-0.4-0.3-0.9-0.4-1.6-0.4c-0.6,0-1.1,0.1-1.5,0.3
			c-0.4,0.2-0.7,0.4-1,0.7v-3.5c0.4-0.3,0.9-0.6,1.5-0.8c0.6-0.2,1.3-0.4,2.1-0.4c0.4,0,0.8,0.1,1.3,0.2c0.5,0.1,0.9,0.3,1.4,0.5
			c0.4,0.2,0.9,0.6,1.2,0.9c0.4,0.4,0.7,0.9,1,1.5c0.2-0.4,0.5-0.8,0.9-1.2c0.3-0.4,0.7-0.7,1.2-1c0.4-0.3,0.9-0.5,1.5-0.7
			c0.5-0.2,1.1-0.3,1.8-0.3c0.7,0,1.4,0.1,2.2,0.3c0.8,0.2,1.5,0.7,2.1,1.3c0.4,0.4,0.7,0.8,0.9,1.1c0.2,0.4,0.4,0.8,0.5,1.3
			c0.1,0.5,0.2,1,0.3,1.6c0.1,0.6,0.1,1.3,0.1,2.1v7.4c0,0.5-0.2,1-0.6,1.3c-0.4,0.4-0.8,0.6-1.4,0.6c-0.6,0-1-0.2-1.4-0.6
			c-0.4-0.4-0.6-0.8-0.6-1.3V39c0-0.5,0-1-0.1-1.5c-0.1-0.5-0.2-1-0.4-1.4c-0.2-0.4-0.5-0.8-0.9-1c-0.4-0.3-1-0.4-1.7-0.4
			c-0.7,0-1.3,0.1-1.7,0.4c-0.4,0.3-0.8,0.6-1,1c-0.2,0.4-0.4,0.8-0.5,1.3c-0.1,0.5-0.1,1-0.1,1.5v7.3c0,0.6-0.2,1-0.5,1.4
			c-0.3,0.4-0.8,0.6-1.4,0.6c-0.5,0-1-0.2-1.3-0.6S236.8,46.8,236.8,46.3z"/>
		<path d="M197.3,48.2c-1.1-0.1-2.2-0.4-3.1-0.9c-0.9-0.5-1.7-1.1-2.4-1.9c-0.7-0.8-1.2-1.6-1.5-2.6c-0.4-1-0.6-2-0.6-3.1
			c0-1.1,0.2-2.2,0.6-3.2c0.4-1,0.9-1.8,1.6-2.6c0.7-0.8,1.5-1.4,2.4-1.9c0.9-0.5,1.9-0.8,3-0.9v3.6c-0.6,0.1-1.1,0.3-1.5,0.6
			c-0.5,0.3-0.9,0.6-1.2,1c-0.3,0.4-0.6,0.9-0.8,1.5c-0.2,0.6-0.3,1.2-0.3,1.8c0,1.3,0.4,2.4,1.1,3.2c0.7,0.9,1.6,1.4,2.7,1.6V48.2z
			 M198.2,34.7v-3.6c0.7,0,1.5,0.1,2.2,0.3c0.7,0.2,1.4,0.5,2.1,0.8c0.7,0.4,1.2,0.8,1.8,1.3c0.5,0.5,1,1.1,1.3,1.7
			c0.2,0.3,0.2,0.6,0.2,0.9c0,0.5-0.2,1-0.5,1.3c-0.4,0.4-0.8,0.6-1.3,0.6h-0.1c-0.4,0-0.8-0.1-1.1-0.3c-0.3-0.2-0.5-0.5-0.7-0.8
			c-0.4-0.7-1-1.2-1.6-1.6C199.9,35,199.1,34.7,198.2,34.7z M202.3,42.2c0.4-0.5,0.9-0.8,1.7-0.8c0.5,0,0.9,0.2,1.3,0.6
			c0.3,0.4,0.5,0.8,0.5,1.3c0,0.4-0.1,0.7-0.2,0.9l-0.1,0.2c-0.8,1.1-1.8,2.1-3,2.8c-1.2,0.7-2.6,1.1-4.2,1.1h-0.1v-3.6h0.1
			c0.9,0,1.7-0.2,2.4-0.7c0.7-0.5,1.2-1,1.6-1.6C202.2,42.3,202.3,42.2,202.3,42.2z"/>
		<path d="M211.2,39.7c0,0.7,0.1,1.3,0.3,1.9c0.2,0.6,0.5,1.1,0.9,1.5c0.4,0.4,0.8,0.8,1.4,1c0.5,0.3,1.1,0.4,1.7,0.5v3.6
			c-1.3-0.1-2.5-0.3-3.5-0.9c-1-0.5-1.9-1.2-2.6-2c-0.7-0.8-1.2-1.7-1.6-2.7c-0.3-1-0.5-2-0.5-3c0-1,0.2-2,0.5-3
			c0.3-1,0.9-1.9,1.6-2.7c0.7-0.8,1.5-1.5,2.6-2c1-0.5,2.2-0.8,3.5-0.9v3.6c-0.6,0.1-1.2,0.2-1.7,0.5c-0.5,0.3-1,0.6-1.4,1
			c-0.4,0.4-0.7,0.9-0.9,1.5C211.3,38.4,211.2,39,211.2,39.7z M216.4,44.6c0.6-0.1,1.2-0.2,1.7-0.5c0.5-0.3,1-0.6,1.3-1
			c0.4-0.4,0.7-0.9,0.9-1.5c0.2-0.6,0.3-1.2,0.3-1.9c0-0.7-0.1-1.3-0.3-1.9c-0.2-0.6-0.5-1.1-0.9-1.5c-0.4-0.4-0.8-0.8-1.3-1
			c-0.5-0.3-1.1-0.4-1.7-0.5v-3.6c1.3,0.1,2.5,0.4,3.5,0.9c1,0.5,1.9,1.2,2.6,2c0.7,0.8,1.2,1.7,1.6,2.7c0.3,1,0.5,2,0.5,3
			c0,1-0.2,2-0.5,3c-0.3,1-0.9,1.9-1.6,2.7c-0.7,0.8-1.5,1.5-2.6,2c-1,0.5-2.2,0.8-3.5,0.9V44.6z"/>
		<path d="M230.3,32.9v13.3v0.2c0,0.5-0.2,1-0.6,1.3c-0.4,0.3-0.8,0.5-1.3,0.5c-0.5,0-0.9-0.2-1.3-0.5c-0.4-0.3-0.6-0.8-0.6-1.3
			V32.9c0-0.5,0.2-1,0.6-1.3c0.4-0.3,0.8-0.5,1.3-0.5c0.5,0,0.9,0.2,1.3,0.5C230.1,32,230.3,32.4,230.3,32.9z M236.8,46.3v-7.4
			c0-0.4,0-0.9-0.1-1.4c-0.1-0.5-0.2-0.9-0.5-1.3c-0.2-0.4-0.5-0.7-0.9-1c-0.4-0.3-0.9-0.4-1.6-0.4c-0.6,0-1.1,0.1-1.5,0.3
			c-0.4,0.2-0.7,0.4-1,0.7v-3.5c0.4-0.3,0.9-0.6,1.5-0.8c0.6-0.2,1.3-0.4,2.1-0.4c0.4,0,0.8,0.1,1.3,0.2c0.5,0.1,0.9,0.3,1.4,0.5
			c0.4,0.2,0.9,0.6,1.2,0.9c0.4,0.4,0.7,0.9,1,1.5c0.2-0.4,0.5-0.8,0.9-1.2c0.3-0.4,0.7-0.7,1.2-1c0.4-0.3,0.9-0.5,1.5-0.7
			c0.5-0.2,1.1-0.3,1.8-0.3c0.7,0,1.4,0.1,2.2,0.3c0.8,0.2,1.5,0.7,2.1,1.3c0.4,0.4,0.7,0.8,0.9,1.1c0.2,0.4,0.4,0.8,0.5,1.3
			c0.1,0.5,0.2,1,0.3,1.6c0.1,0.6,0.1,1.3,0.1,2.1v7.4c0,0.5-0.2,1-0.6,1.3c-0.4,0.4-0.8,0.6-1.4,0.6c-0.6,0-1-0.2-1.4-0.6
			c-0.4-0.4-0.6-0.8-0.6-1.3V39c0-0.5,0-1-0.1-1.5c-0.1-0.5-0.2-1-0.4-1.4c-0.2-0.4-0.5-0.8-0.9-1c-0.4-0.3-1-0.4-1.7-0.4
			c-0.7,0-1.3,0.1-1.7,0.4c-0.4,0.3-0.8,0.6-1,1c-0.2,0.4-0.4,0.8-0.5,1.3c-0.1,0.5-0.1,1-0.1,1.5v7.3c0,0.6-0.2,1-0.5,1.4
			c-0.3,0.4-0.8,0.6-1.4,0.6c-0.5,0-1-0.2-1.3-0.6S236.8,46.8,236.8,46.3z"/>
		<path fill="none" stroke="#000000" stroke-miterlimit="10" d="M197.3,48.2c-1.1-0.1-2.2-0.4-3.1-0.9c-0.9-0.5-1.7-1.1-2.4-1.9
			c-0.7-0.8-1.2-1.6-1.5-2.6c-0.4-1-0.6-2-0.6-3.1c0-1.1,0.2-2.2,0.6-3.2c0.4-1,0.9-1.8,1.6-2.6c0.7-0.8,1.5-1.4,2.4-1.9
			c0.9-0.5,1.9-0.8,3-0.9v3.6c-0.6,0.1-1.1,0.3-1.5,0.6c-0.5,0.3-0.9,0.6-1.2,1c-0.3,0.4-0.6,0.9-0.8,1.5c-0.2,0.6-0.3,1.2-0.3,1.8
			c0,1.3,0.4,2.4,1.1,3.2c0.7,0.9,1.6,1.4,2.7,1.6V48.2z M198.2,34.7v-3.6c0.7,0,1.5,0.1,2.2,0.3c0.7,0.2,1.4,0.5,2.1,0.8
			c0.7,0.4,1.2,0.8,1.8,1.3c0.5,0.5,1,1.1,1.3,1.7c0.2,0.3,0.2,0.6,0.2,0.9c0,0.5-0.2,1-0.5,1.3c-0.4,0.4-0.8,0.6-1.3,0.6h-0.1
			c-0.4,0-0.8-0.1-1.1-0.3c-0.3-0.2-0.5-0.5-0.7-0.8c-0.4-0.7-1-1.2-1.6-1.6C199.9,35,199.1,34.7,198.2,34.7z M202.3,42.2
			c0.4-0.5,0.9-0.8,1.7-0.8c0.5,0,0.9,0.2,1.3,0.6c0.3,0.4,0.5,0.8,0.5,1.3c0,0.4-0.1,0.7-0.2,0.9l-0.1,0.2c-0.8,1.1-1.8,2.1-3,2.8
			c-1.2,0.7-2.6,1.1-4.2,1.1h-0.1v-3.6h0.1c0.9,0,1.7-0.2,2.4-0.7c0.7-0.5,1.2-1,1.6-1.6C202.2,42.3,202.3,42.2,202.3,42.2z"/>
		<path fill="none" stroke="#000000" stroke-miterlimit="10" d="M211.2,39.7c0,0.7,0.1,1.3,0.3,1.9c0.2,0.6,0.5,1.1,0.9,1.5
			c0.4,0.4,0.8,0.8,1.4,1c0.5,0.3,1.1,0.4,1.7,0.5v3.6c-1.3-0.1-2.5-0.3-3.5-0.9c-1-0.5-1.9-1.2-2.6-2c-0.7-0.8-1.2-1.7-1.6-2.7
			c-0.3-1-0.5-2-0.5-3c0-1,0.2-2,0.5-3c0.3-1,0.9-1.9,1.6-2.7c0.7-0.8,1.5-1.5,2.6-2c1-0.5,2.2-0.8,3.5-0.9v3.6
			c-0.6,0.1-1.2,0.2-1.7,0.5c-0.5,0.3-1,0.6-1.4,1c-0.4,0.4-0.7,0.9-0.9,1.5C211.3,38.4,211.2,39,211.2,39.7z M216.4,44.6
			c0.6-0.1,1.2-0.2,1.7-0.5c0.5-0.3,1-0.6,1.3-1c0.4-0.4,0.7-0.9,0.9-1.5c0.2-0.6,0.3-1.2,0.3-1.9c0-0.7-0.1-1.3-0.3-1.9
			c-0.2-0.6-0.5-1.1-0.9-1.5c-0.4-0.4-0.8-0.8-1.3-1c-0.5-0.3-1.1-0.4-1.7-0.5v-3.6c1.3,0.1,2.5,0.4,3.5,0.9c1,0.5,1.9,1.2,2.6,2
			c0.7,0.8,1.2,1.7,1.6,2.7c0.3,1,0.5,2,0.5,3c0,1-0.2,2-0.5,3c-0.3,1-0.9,1.9-1.6,2.7c-0.7,0.8-1.5,1.5-2.6,2
			c-1,0.5-2.2,0.8-3.5,0.9V44.6z"/>
		<path fill="none" stroke="#000000" stroke-miterlimit="10" d="M230.3,32.9v13.3v0.2c0,0.5-0.2,1-0.6,1.3c-0.4,0.3-0.8,0.5-1.3,0.5
			c-0.5,0-0.9-0.2-1.3-0.5c-0.4-0.3-0.6-0.8-0.6-1.3V32.9c0-0.5,0.2-1,0.6-1.3c0.4-0.3,0.8-0.5,1.3-0.5c0.5,0,0.9,0.2,1.3,0.5
			C230.1,32,230.3,32.4,230.3,32.9z M236.8,46.3v-7.4c0-0.4,0-0.9-0.1-1.4c-0.1-0.5-0.2-0.9-0.5-1.3c-0.2-0.4-0.5-0.7-0.9-1
			c-0.4-0.3-0.9-0.4-1.6-0.4c-0.6,0-1.1,0.1-1.5,0.3c-0.4,0.2-0.7,0.4-1,0.7v-3.5c0.4-0.3,0.9-0.6,1.5-0.8c0.6-0.2,1.3-0.4,2.1-0.4
			c0.4,0,0.8,0.1,1.3,0.2c0.5,0.1,0.9,0.3,1.4,0.5c0.4,0.2,0.9,0.6,1.2,0.9c0.4,0.4,0.7,0.9,1,1.5c0.2-0.4,0.5-0.8,0.9-1.2
			c0.3-0.4,0.7-0.7,1.2-1c0.4-0.3,0.9-0.5,1.5-0.7c0.5-0.2,1.1-0.3,1.8-0.3c0.7,0,1.4,0.1,2.2,0.3c0.8,0.2,1.5,0.7,2.1,1.3
			c0.4,0.4,0.7,0.8,0.9,1.1c0.2,0.4,0.4,0.8,0.5,1.3c0.1,0.5,0.2,1,0.3,1.6c0.1,0.6,0.1,1.3,0.1,2.1v7.4c0,0.5-0.2,1-0.6,1.3
			c-0.4,0.4-0.8,0.6-1.4,0.6c-0.6,0-1-0.2-1.4-0.6c-0.4-0.4-0.6-0.8-0.6-1.3V39c0-0.5,0-1-0.1-1.5c-0.1-0.5-0.2-1-0.4-1.4
			c-0.2-0.4-0.5-0.8-0.9-1c-0.4-0.3-1-0.4-1.7-0.4c-0.7,0-1.3,0.1-1.7,0.4c-0.4,0.3-0.8,0.6-1,1c-0.2,0.4-0.4,0.8-0.5,1.3
			c-0.1,0.5-0.1,1-0.1,1.5v7.3c0,0.6-0.2,1-0.5,1.4c-0.3,0.4-0.8,0.6-1.4,0.6c-0.5,0-1-0.2-1.3-0.6S236.8,46.8,236.8,46.3z"/>
	</g>
	<g>
		<g>
			<path fill="#008800" d="M196.8,47.7c-1.1-0.1-2.2-0.4-3.1-0.9c-0.9-0.5-1.7-1.1-2.4-1.9c-0.7-0.8-1.2-1.6-1.5-2.6
				c-0.4-1-0.6-2-0.6-3.1c0-1.1,0.2-2.2,0.6-3.2c0.4-1,0.9-1.8,1.6-2.6c0.7-0.8,1.5-1.4,2.4-1.9c0.9-0.5,1.9-0.8,3-0.9v3.6
				c-0.6,0.1-1.1,0.3-1.5,0.6c-0.5,0.3-0.9,0.6-1.2,1c-0.3,0.4-0.6,0.9-0.8,1.5c-0.2,0.6-0.3,1.2-0.3,1.8c0,1.3,0.4,2.4,1.1,3.2
				c0.7,0.9,1.6,1.4,2.7,1.6V47.7z M197.7,34.2v-3.6c0.7,0,1.5,0.1,2.2,0.3c0.7,0.2,1.4,0.5,2.1,0.8c0.7,0.4,1.2,0.8,1.8,1.3
				c0.5,0.5,1,1.1,1.3,1.7c0.2,0.3,0.2,0.6,0.2,0.9c0,0.5-0.2,1-0.5,1.3c-0.4,0.4-0.8,0.6-1.3,0.6h-0.1c-0.4,0-0.8-0.1-1.1-0.3
				c-0.3-0.2-0.5-0.5-0.7-0.8c-0.4-0.7-1-1.2-1.6-1.6C199.4,34.5,198.6,34.2,197.7,34.2z M201.8,41.7c0.4-0.5,0.9-0.8,1.7-0.8
				c0.5,0,0.9,0.2,1.3,0.6c0.3,0.4,0.5,0.8,0.5,1.3c0,0.4-0.1,0.7-0.2,0.9l-0.1,0.2c-0.8,1.1-1.8,2.1-3,2.8
				c-1.2,0.7-2.6,1.1-4.2,1.1h-0.1v-3.6h0.1c0.9,0,1.7-0.2,2.4-0.7c0.7-0.5,1.2-1,1.6-1.6C201.7,41.8,201.8,41.7,201.8,41.7z"/>
			<path fill="#008800" d="M210.7,39.2c0,0.7,0.1,1.3,0.3,1.9c0.2,0.6,0.5,1.1,0.9,1.5c0.4,0.4,0.8,0.8,1.4,1
				c0.5,0.3,1.1,0.4,1.7,0.5v3.6c-1.3-0.1-2.5-0.3-3.5-0.9c-1-0.5-1.9-1.2-2.6-2c-0.7-0.8-1.2-1.7-1.6-2.7c-0.3-1-0.5-2-0.5-3
				c0-1,0.2-2,0.5-3c0.3-1,0.9-1.9,1.6-2.7c0.7-0.8,1.5-1.5,2.6-2c1-0.5,2.2-0.8,3.5-0.9v3.6c-0.6,0.1-1.2,0.2-1.7,0.5
				c-0.5,0.3-1,0.6-1.4,1c-0.4,0.4-0.7,0.9-0.9,1.5C210.8,37.9,210.7,38.5,210.7,39.2z M215.9,44.1c0.6-0.1,1.2-0.2,1.7-0.5
				c0.5-0.3,1-0.6,1.3-1c0.4-0.4,0.7-0.9,0.9-1.5c0.2-0.6,0.3-1.2,0.3-1.9c0-0.7-0.1-1.3-0.3-1.9c-0.2-0.6-0.5-1.1-0.9-1.5
				c-0.4-0.4-0.8-0.8-1.3-1c-0.5-0.3-1.1-0.4-1.7-0.5v-3.6c1.3,0.1,2.5,0.4,3.5,0.9c1,0.5,1.9,1.2,2.6,2c0.7,0.8,1.2,1.7,1.6,2.7
				c0.3,1,0.5,2,0.5,3c0,1-0.2,2-0.5,3c-0.3,1-0.9,1.9-1.6,2.7c-0.7,0.8-1.5,1.5-2.6,2c-1,0.5-2.2,0.8-3.5,0.9V44.1z"/>
			<path fill="#008800" d="M229.8,32.4v13.3v0.2c0,0.5-0.2,1-0.6,1.3c-0.4,0.3-0.8,0.5-1.3,0.5c-0.5,0-0.9-0.2-1.3-0.5
				c-0.4-0.3-0.6-0.8-0.6-1.3V32.4c0-0.5,0.2-1,0.6-1.3c0.4-0.3,0.8-0.5,1.3-0.5c0.5,0,0.9,0.2,1.3,0.5
				C229.6,31.5,229.8,31.9,229.8,32.4z M236.3,45.8v-7.4c0-0.4,0-0.9-0.1-1.4c-0.1-0.5-0.2-0.9-0.5-1.3c-0.2-0.4-0.5-0.7-0.9-1
				c-0.4-0.3-0.9-0.4-1.6-0.4c-0.6,0-1.1,0.1-1.5,0.3c-0.4,0.2-0.7,0.4-1,0.7v-3.5c0.4-0.3,0.9-0.6,1.5-0.8c0.6-0.2,1.3-0.4,2.1-0.4
				c0.4,0,0.8,0.1,1.3,0.2c0.5,0.1,0.9,0.3,1.4,0.5c0.4,0.2,0.9,0.6,1.2,0.9c0.4,0.4,0.7,0.9,1,1.5c0.2-0.4,0.5-0.8,0.9-1.2
				c0.3-0.4,0.7-0.7,1.2-1c0.4-0.3,0.9-0.5,1.5-0.7c0.5-0.2,1.1-0.3,1.8-0.3c0.7,0,1.4,0.1,2.2,0.3c0.8,0.2,1.5,0.7,2.1,1.3
				c0.4,0.4,0.7,0.8,0.9,1.1c0.2,0.4,0.4,0.8,0.5,1.3c0.1,0.5,0.2,1,0.3,1.6c0.1,0.6,0.1,1.3,0.1,2.1v7.4c0,0.5-0.2,1-0.6,1.3
				c-0.4,0.4-0.8,0.6-1.4,0.6c-0.6,0-1-0.2-1.4-0.6c-0.4-0.4-0.6-0.8-0.6-1.3v-7.3c0-0.5,0-1-0.1-1.5c-0.1-0.5-0.2-1-0.4-1.4
				c-0.2-0.4-0.5-0.8-0.9-1c-0.4-0.3-1-0.4-1.7-0.4c-0.7,0-1.3,0.1-1.7,0.4c-0.4,0.3-0.8,0.6-1,1c-0.2,0.4-0.4,0.8-0.5,1.3
				c-0.1,0.5-0.1,1-0.1,1.5v7.3c0,0.6-0.2,1-0.5,1.4c-0.3,0.4-0.8,0.6-1.4,0.6c-0.5,0-1-0.2-1.3-0.6S236.3,46.3,236.3,45.8z"/>
		</g>
		<g>
			<linearGradient id="SVGID_8_" gradientUnits="userSpaceOnUse" x1="219.8403" y1="30.6081" x2="219.8403" y2="47.7299">
				<stop  offset="0" style="stop-color:#009900"/>
				<stop  offset="1" style="stop-color:#007700"/>
			</linearGradient>
			<path fill="url(#SVGID_8_)" d="M196.8,47.7c-1.1-0.1-2.2-0.4-3.1-0.9c-0.9-0.5-1.7-1.1-2.4-1.9c-0.7-0.8-1.2-1.6-1.5-2.6
				c-0.4-1-0.6-2-0.6-3.1c0-1.1,0.2-2.2,0.6-3.2c0.4-1,0.9-1.8,1.6-2.6c0.7-0.8,1.5-1.4,2.4-1.9c0.9-0.5,1.9-0.8,3-0.9v3.6
				c-0.6,0.1-1.1,0.3-1.5,0.6c-0.5,0.3-0.9,0.6-1.2,1c-0.3,0.4-0.6,0.9-0.8,1.5c-0.2,0.6-0.3,1.2-0.3,1.8c0,1.3,0.4,2.4,1.1,3.2
				c0.7,0.9,1.6,1.4,2.7,1.6V47.7z M197.7,34.2v-3.6c0.7,0,1.5,0.1,2.2,0.3c0.7,0.2,1.4,0.5,2.1,0.8c0.7,0.4,1.2,0.8,1.8,1.3
				c0.5,0.5,1,1.1,1.3,1.7c0.2,0.3,0.2,0.6,0.2,0.9c0,0.5-0.2,1-0.5,1.3c-0.4,0.4-0.8,0.6-1.3,0.6h-0.1c-0.4,0-0.8-0.1-1.1-0.3
				c-0.3-0.2-0.5-0.5-0.7-0.8c-0.4-0.7-1-1.2-1.6-1.6C199.4,34.5,198.6,34.2,197.7,34.2z M201.8,41.7c0.4-0.5,0.9-0.8,1.7-0.8
				c0.5,0,0.9,0.2,1.3,0.6c0.3,0.4,0.5,0.8,0.5,1.3c0,0.4-0.1,0.7-0.2,0.9l-0.1,0.2c-0.8,1.1-1.8,2.1-3,2.8
				c-1.2,0.7-2.6,1.1-4.2,1.1h-0.1v-3.6h0.1c0.9,0,1.7-0.2,2.4-0.7c0.7-0.5,1.2-1,1.6-1.6C201.7,41.8,201.8,41.7,201.8,41.7z"/>
			<linearGradient id="SVGID_9_" gradientUnits="userSpaceOnUse" x1="219.8403" y1="30.6081" x2="219.8403" y2="47.7299">
				<stop  offset="0" style="stop-color:#009900"/>
				<stop  offset="1" style="stop-color:#007700"/>
			</linearGradient>
			<path fill="url(#SVGID_9_)" d="M210.7,39.2c0,0.7,0.1,1.3,0.3,1.9c0.2,0.6,0.5,1.1,0.9,1.5c0.4,0.4,0.8,0.8,1.4,1
				c0.5,0.3,1.1,0.4,1.7,0.5v3.6c-1.3-0.1-2.5-0.3-3.5-0.9c-1-0.5-1.9-1.2-2.6-2c-0.7-0.8-1.2-1.7-1.6-2.7c-0.3-1-0.5-2-0.5-3
				c0-1,0.2-2,0.5-3c0.3-1,0.9-1.9,1.6-2.7c0.7-0.8,1.5-1.5,2.6-2c1-0.5,2.2-0.8,3.5-0.9v3.6c-0.6,0.1-1.2,0.2-1.7,0.5
				c-0.5,0.3-1,0.6-1.4,1c-0.4,0.4-0.7,0.9-0.9,1.5C210.8,37.9,210.7,38.5,210.7,39.2z M215.9,44.1c0.6-0.1,1.2-0.2,1.7-0.5
				c0.5-0.3,1-0.6,1.3-1c0.4-0.4,0.7-0.9,0.9-1.5c0.2-0.6,0.3-1.2,0.3-1.9c0-0.7-0.1-1.3-0.3-1.9c-0.2-0.6-0.5-1.1-0.9-1.5
				c-0.4-0.4-0.8-0.8-1.3-1c-0.5-0.3-1.1-0.4-1.7-0.5v-3.6c1.3,0.1,2.5,0.4,3.5,0.9c1,0.5,1.9,1.2,2.6,2c0.7,0.8,1.2,1.7,1.6,2.7
				c0.3,1,0.5,2,0.5,3c0,1-0.2,2-0.5,3c-0.3,1-0.9,1.9-1.6,2.7c-0.7,0.8-1.5,1.5-2.6,2c-1,0.5-2.2,0.8-3.5,0.9V44.1z"/>
			<linearGradient id="SVGID_10_" gradientUnits="userSpaceOnUse" x1="219.8403" y1="30.6081" x2="219.8403" y2="47.7299">
				<stop  offset="0" style="stop-color:#009900"/>
				<stop  offset="1" style="stop-color:#007700"/>
			</linearGradient>
			<path fill="url(#SVGID_10_)" d="M229.8,32.4v13.3v0.2c0,0.5-0.2,1-0.6,1.3c-0.4,0.3-0.8,0.5-1.3,0.5c-0.5,0-0.9-0.2-1.3-0.5
				c-0.4-0.3-0.6-0.8-0.6-1.3V32.4c0-0.5,0.2-1,0.6-1.3c0.4-0.3,0.8-0.5,1.3-0.5c0.5,0,0.9,0.2,1.3,0.5
				C229.6,31.5,229.8,31.9,229.8,32.4z M236.3,45.8v-7.4c0-0.4,0-0.9-0.1-1.4c-0.1-0.5-0.2-0.9-0.5-1.3c-0.2-0.4-0.5-0.7-0.9-1
				c-0.4-0.3-0.9-0.4-1.6-0.4c-0.6,0-1.1,0.1-1.5,0.3c-0.4,0.2-0.7,0.4-1,0.7v-3.5c0.4-0.3,0.9-0.6,1.5-0.8c0.6-0.2,1.3-0.4,2.1-0.4
				c0.4,0,0.8,0.1,1.3,0.2c0.5,0.1,0.9,0.3,1.4,0.5c0.4,0.2,0.9,0.6,1.2,0.9c0.4,0.4,0.7,0.9,1,1.5c0.2-0.4,0.5-0.8,0.9-1.2
				c0.3-0.4,0.7-0.7,1.2-1c0.4-0.3,0.9-0.5,1.5-0.7c0.5-0.2,1.1-0.3,1.8-0.3c0.7,0,1.4,0.1,2.2,0.3c0.8,0.2,1.5,0.7,2.1,1.3
				c0.4,0.4,0.7,0.8,0.9,1.1c0.2,0.4,0.4,0.8,0.5,1.3c0.1,0.5,0.2,1,0.3,1.6c0.1,0.6,0.1,1.3,0.1,2.1v7.4c0,0.5-0.2,1-0.6,1.3
				c-0.4,0.4-0.8,0.6-1.4,0.6c-0.6,0-1-0.2-1.4-0.6c-0.4-0.4-0.6-0.8-0.6-1.3v-7.3c0-0.5,0-1-0.1-1.5c-0.1-0.5-0.2-1-0.4-1.4
				c-0.2-0.4-0.5-0.8-0.9-1c-0.4-0.3-1-0.4-1.7-0.4c-0.7,0-1.3,0.1-1.7,0.4c-0.4,0.3-0.8,0.6-1,1c-0.2,0.4-0.4,0.8-0.5,1.3
				c-0.1,0.5-0.1,1-0.1,1.5v7.3c0,0.6-0.2,1-0.5,1.4c-0.3,0.4-0.8,0.6-1.4,0.6c-0.5,0-1-0.2-1.3-0.6S236.3,46.3,236.3,45.8z"/>
		</g>
		<g opacity="0.5">
			<path fill="none" stroke="#14542B" stroke-miterlimit="10" d="M196.8,47.7c-1.1-0.1-2.2-0.4-3.1-0.9c-0.9-0.5-1.7-1.1-2.4-1.9
				c-0.7-0.8-1.2-1.6-1.5-2.6c-0.4-1-0.6-2-0.6-3.1c0-1.1,0.2-2.2,0.6-3.2c0.4-1,0.9-1.8,1.6-2.6c0.7-0.8,1.5-1.4,2.4-1.9
				c0.9-0.5,1.9-0.8,3-0.9v3.6c-0.6,0.1-1.1,0.3-1.5,0.6c-0.5,0.3-0.9,0.6-1.2,1c-0.3,0.4-0.6,0.9-0.8,1.5c-0.2,0.6-0.3,1.2-0.3,1.8
				c0,1.3,0.4,2.4,1.1,3.2c0.7,0.9,1.6,1.4,2.7,1.6V47.7z M197.7,34.2v-3.6c0.7,0,1.5,0.1,2.2,0.3c0.7,0.2,1.4,0.5,2.1,0.8
				c0.7,0.4,1.2,0.8,1.8,1.3c0.5,0.5,1,1.1,1.3,1.7c0.2,0.3,0.2,0.6,0.2,0.9c0,0.5-0.2,1-0.5,1.3c-0.4,0.4-0.8,0.6-1.3,0.6h-0.1
				c-0.4,0-0.8-0.1-1.1-0.3c-0.3-0.2-0.5-0.5-0.7-0.8c-0.4-0.7-1-1.2-1.6-1.6C199.4,34.5,198.6,34.2,197.7,34.2z M201.8,41.7
				c0.4-0.5,0.9-0.8,1.7-0.8c0.5,0,0.9,0.2,1.3,0.6c0.3,0.4,0.5,0.8,0.5,1.3c0,0.4-0.1,0.7-0.2,0.9l-0.1,0.2c-0.8,1.1-1.8,2.1-3,2.8
				c-1.2,0.7-2.6,1.1-4.2,1.1h-0.1v-3.6h0.1c0.9,0,1.7-0.2,2.4-0.7c0.7-0.5,1.2-1,1.6-1.6C201.7,41.8,201.8,41.7,201.8,41.7z"/>
			<path fill="none" stroke="#14542B" stroke-miterlimit="10" d="M210.7,39.2c0,0.7,0.1,1.3,0.3,1.9c0.2,0.6,0.5,1.1,0.9,1.5
				c0.4,0.4,0.8,0.8,1.4,1c0.5,0.3,1.1,0.4,1.7,0.5v3.6c-1.3-0.1-2.5-0.3-3.5-0.9c-1-0.5-1.9-1.2-2.6-2c-0.7-0.8-1.2-1.7-1.6-2.7
				c-0.3-1-0.5-2-0.5-3c0-1,0.2-2,0.5-3c0.3-1,0.9-1.9,1.6-2.7c0.7-0.8,1.5-1.5,2.6-2c1-0.5,2.2-0.8,3.5-0.9v3.6
				c-0.6,0.1-1.2,0.2-1.7,0.5c-0.5,0.3-1,0.6-1.4,1c-0.4,0.4-0.7,0.9-0.9,1.5C210.8,37.9,210.7,38.5,210.7,39.2z M215.9,44.1
				c0.6-0.1,1.2-0.2,1.7-0.5c0.5-0.3,1-0.6,1.3-1c0.4-0.4,0.7-0.9,0.9-1.5c0.2-0.6,0.3-1.2,0.3-1.9c0-0.7-0.1-1.3-0.3-1.9
				c-0.2-0.6-0.5-1.1-0.9-1.5c-0.4-0.4-0.8-0.8-1.3-1c-0.5-0.3-1.1-0.4-1.7-0.5v-3.6c1.3,0.1,2.5,0.4,3.5,0.9c1,0.5,1.9,1.2,2.6,2
				c0.7,0.8,1.2,1.7,1.6,2.7c0.3,1,0.5,2,0.5,3c0,1-0.2,2-0.5,3c-0.3,1-0.9,1.9-1.6,2.7c-0.7,0.8-1.5,1.5-2.6,2
				c-1,0.5-2.2,0.8-3.5,0.9V44.1z"/>
			<path fill="none" stroke="#14542B" stroke-miterlimit="10" d="M229.8,32.4v13.3v0.2c0,0.5-0.2,1-0.6,1.3
				c-0.4,0.3-0.8,0.5-1.3,0.5c-0.5,0-0.9-0.2-1.3-0.5c-0.4-0.3-0.6-0.8-0.6-1.3V32.4c0-0.5,0.2-1,0.6-1.3c0.4-0.3,0.8-0.5,1.3-0.5
				c0.5,0,0.9,0.2,1.3,0.5C229.6,31.5,229.8,31.9,229.8,32.4z M236.3,45.8v-7.4c0-0.4,0-0.9-0.1-1.4c-0.1-0.5-0.2-0.9-0.5-1.3
				c-0.2-0.4-0.5-0.7-0.9-1c-0.4-0.3-0.9-0.4-1.6-0.4c-0.6,0-1.1,0.1-1.5,0.3c-0.4,0.2-0.7,0.4-1,0.7v-3.5c0.4-0.3,0.9-0.6,1.5-0.8
				c0.6-0.2,1.3-0.4,2.1-0.4c0.4,0,0.8,0.1,1.3,0.2c0.5,0.1,0.9,0.3,1.4,0.5c0.4,0.2,0.9,0.6,1.2,0.9c0.4,0.4,0.7,0.9,1,1.5
				c0.2-0.4,0.5-0.8,0.9-1.2c0.3-0.4,0.7-0.7,1.2-1c0.4-0.3,0.9-0.5,1.5-0.7c0.5-0.2,1.1-0.3,1.8-0.3c0.7,0,1.4,0.1,2.2,0.3
				c0.8,0.2,1.5,0.7,2.1,1.3c0.4,0.4,0.7,0.8,0.9,1.1c0.2,0.4,0.4,0.8,0.5,1.3c0.1,0.5,0.2,1,0.3,1.6c0.1,0.6,0.1,1.3,0.1,2.1v7.4
				c0,0.5-0.2,1-0.6,1.3c-0.4,0.4-0.8,0.6-1.4,0.6c-0.6,0-1-0.2-1.4-0.6c-0.4-0.4-0.6-0.8-0.6-1.3v-7.3c0-0.5,0-1-0.1-1.5
				c-0.1-0.5-0.2-1-0.4-1.4c-0.2-0.4-0.5-0.8-0.9-1c-0.4-0.3-1-0.4-1.7-0.4c-0.7,0-1.3,0.1-1.7,0.4c-0.4,0.3-0.8,0.6-1,1
				c-0.2,0.4-0.4,0.8-0.5,1.3c-0.1,0.5-0.1,1-0.1,1.5v7.3c0,0.6-0.2,1-0.5,1.4c-0.3,0.4-0.8,0.6-1.4,0.6c-0.5,0-1-0.2-1.3-0.6
				S236.3,46.3,236.3,45.8z"/>
		</g>
	</g>
</g>
<g>
	<g opacity="0.3">
		<ellipse cx="127.7" cy="15.6" rx="3" ry="2.3"/>
		<ellipse opacity="0.5" fill="none" stroke="#000000" stroke-miterlimit="10" cx="127.7" cy="15.6" rx="3" ry="2.3"/>
	</g>
	<g>
		<linearGradient id="SVGID_11_" gradientUnits="userSpaceOnUse" x1="127.1619" y1="12.7518" x2="127.1619" y2="17.3705">
			<stop  offset="0" style="stop-color:#009900"/>
			<stop  offset="1" style="stop-color:#007700"/>
		</linearGradient>
		<ellipse fill="url(#SVGID_11_)" cx="127.2" cy="15.1" rx="3" ry="2.3"/>
		<ellipse opacity="0.5" fill="none" stroke="#14542B" stroke-miterlimit="10" cx="127.2" cy="15.1" rx="3" ry="2.3"/>
	</g>
</g>
<g>
	<g opacity="0.3">
		<ellipse cx="127.7" cy="9.4" rx="3" ry="2.3"/>
		<ellipse opacity="0.5" fill="none" stroke="#000000" stroke-miterlimit="10" cx="127.7" cy="9.4" rx="3" ry="2.3"/>
	</g>
	<g>
		<ellipse fill="#CC3333" cx="127.2" cy="8.9" rx="3" ry="2.3"/>
		<ellipse opacity="0.5" fill="none" stroke="#990033" stroke-miterlimit="10" cx="127.2" cy="8.9" rx="3" ry="2.3"/>
	</g>
</g>
<g>
	<g opacity="0.3">
		<ellipse cx="127.7" cy="3.3" rx="3" ry="2.3"/>
		<ellipse opacity="0.5" fill="none" stroke="#000000" stroke-miterlimit="10" cx="127.7" cy="3.3" rx="3" ry="2.3"/>
	</g>
	<g>
		<linearGradient id="SVGID_12_" gradientUnits="userSpaceOnUse" x1="127.1619" y1="0.5" x2="127.1619" y2="5.1187">
			<stop  offset="0" style="stop-color:#336699"/>
			<stop  offset="1" style="stop-color:#005095"/>
		</linearGradient>
		<ellipse fill="url(#SVGID_12_)" cx="127.2" cy="2.8" rx="3" ry="2.3"/>
		<ellipse opacity="0.5" fill="none" stroke="#003366" stroke-miterlimit="10" cx="127.2" cy="2.8" rx="3" ry="2.3"/>
	</g>
</g>
<g>
	<g opacity="0.3">
		<ellipse cx="120.5" cy="9.4" rx="3" ry="2.3"/>
		<ellipse opacity="0.5" fill="none" stroke="#000000" stroke-miterlimit="10" cx="120.5" cy="9.4" rx="3" ry="2.3"/>
	</g>
	<g>
		<ellipse fill="#FFCC00" cx="120" cy="8.9" rx="3" ry="2.3"/>
		<ellipse opacity="0.5" fill="none" stroke="#CC9900" stroke-miterlimit="10" cx="120" cy="8.9" rx="3" ry="2.3"/>
	</g>
</g>
<g>
	<g opacity="0.3">
		<ellipse cx="120.5" cy="15.6" rx="3" ry="2.3"/>
		<ellipse opacity="0.5" fill="none" stroke="#000000" stroke-miterlimit="10" cx="120.5" cy="15.6" rx="3" ry="2.3"/>
	</g>
	<g>
		<linearGradient id="SVGID_13_" gradientUnits="userSpaceOnUse" x1="120.015" y1="12.7518" x2="120.015" y2="17.3705">
			<stop  offset="0" style="stop-color:#336699"/>
			<stop  offset="1" style="stop-color:#005095"/>
		</linearGradient>
		<ellipse fill="url(#SVGID_13_)" cx="120" cy="15.1" rx="3" ry="2.3"/>
		<ellipse opacity="0.5" fill="none" stroke="#003366" stroke-miterlimit="10" cx="120" cy="15.1" rx="3" ry="2.3"/>
	</g>
</g>
<g>
	<g opacity="0.3">
		<ellipse cx="113.4" cy="15.6" rx="3" ry="2.3"/>
		<ellipse opacity="0.5" fill="none" stroke="#000000" stroke-miterlimit="10" cx="113.4" cy="15.6" rx="3" ry="2.3"/>
	</g>
	<g>
		<ellipse fill="#CC3333" cx="112.9" cy="15.1" rx="3" ry="2.3"/>
		<ellipse opacity="0.5" fill="none" stroke="#990033" stroke-miterlimit="10" cx="112.9" cy="15.1" rx="3" ry="2.3"/>
	</g>
</g>
<g>
	<g opacity="0.3">
		<ellipse cx="120.5" cy="21.2" rx="3" ry="2.3"/>
		<ellipse opacity="0.5" fill="none" stroke="#000000" stroke-miterlimit="10" cx="120.5" cy="21.2" rx="3" ry="2.3"/>
	</g>
	<g>
		<ellipse fill="#CC3333" cx="120" cy="20.7" rx="3" ry="2.3"/>
		<ellipse opacity="0.5" fill="none" stroke="#990033" stroke-miterlimit="10" cx="120" cy="20.7" rx="3" ry="2.3"/>
	</g>
</g>
<g>
	<g opacity="0.3">
		<ellipse cx="113.4" cy="21.2" rx="3" ry="2.3"/>
		<ellipse opacity="0.5" fill="none" stroke="#000000" stroke-miterlimit="10" cx="113.4" cy="21.2" rx="3" ry="2.3"/>
	</g>
	<g>
		<linearGradient id="SVGID_14_" gradientUnits="userSpaceOnUse" x1="112.8682" y1="18.3671" x2="112.8682" y2="22.9859">
			<stop  offset="0" style="stop-color:#009900"/>
			<stop  offset="1" style="stop-color:#007700"/>
		</linearGradient>
		<ellipse fill="url(#SVGID_14_)" cx="112.9" cy="20.7" rx="3" ry="2.3"/>
		<ellipse opacity="0.5" fill="none" stroke="#14542B" stroke-miterlimit="10" cx="112.9" cy="20.7" rx="3" ry="2.3"/>
	</g>
</g>
<g>
	<g opacity="0.3">
		<ellipse cx="106.2" cy="21.2" rx="3" ry="2.3"/>
		<ellipse opacity="0.5" fill="none" stroke="#000000" stroke-miterlimit="10" cx="106.2" cy="21.2" rx="3" ry="2.3"/>
	</g>
	<g>
		<ellipse fill="#FFCC00" cx="105.7" cy="20.7" rx="3" ry="2.3"/>
		<ellipse opacity="0.5" fill="none" stroke="#CC9900" stroke-miterlimit="10" cx="105.7" cy="20.7" rx="3" ry="2.3"/>
	</g>
</g>
<g>
	<g opacity="0.3">
		<ellipse cx="184.8" cy="45.2" rx="3" ry="2.3"/>
		<ellipse opacity="0.5" fill="none" stroke="#000000" stroke-miterlimit="10" cx="184.8" cy="45.2" rx="3" ry="2.3"/>
	</g>
	<g>
		<ellipse fill="#CC3333" cx="184.3" cy="44.7" rx="3" ry="2.3"/>
		<ellipse opacity="0.5" fill="none" stroke="#990033" stroke-miterlimit="10" cx="184.3" cy="44.7" rx="3" ry="2.3"/>
	</g>
</g>
</svg>
