<svg width="100vw" height="100vh" viewBox="0 0 1920 1080" fill="none" xmlns="http://www.w3.org/2000/svg">
<rect width="1920" height="1080" fill="#003462"/>
<g clip-path="url(#clip0)">
<path d="M527.346 478.075C525.878 472.649 523.013 467.701 519.038 463.726C515.063 459.751 510.116 456.887 504.69 455.418C484.824 450 404.87 450 404.87 450C404.87 450 324.912 450.164 305.046 455.582C299.62 457.051 294.672 459.915 290.697 463.891C286.722 467.866 283.858 472.813 282.39 478.24C276.381 513.538 274.05 567.324 282.555 601.21C284.023 606.636 286.888 611.584 290.863 615.559C294.838 619.534 299.785 622.398 305.211 623.867C325.077 629.285 405.033 629.285 405.033 629.285C405.033 629.285 484.988 629.285 504.853 623.867C510.28 622.399 515.227 619.534 519.202 615.559C523.177 611.584 526.042 606.637 527.51 601.21C533.848 565.862 535.801 512.11 527.346 478.076V478.075Z" fill="#FF0000"/>
<path d="M379.42 578.06L445.749 539.642L379.421 501.224L379.42 578.06Z" fill="white"/>
</g>
<path d="M605.52 484.604C605.52 488.933 605.015 492.432 604.006 495.102C602.997 497.771 601.19 500.31 598.586 502.719C596.014 505.128 594.257 506.918 593.312 508.09C592.401 509.262 591.701 510.45 591.213 511.654C590.757 512.859 590.529 514.177 590.529 515.609C590.529 520.72 593.036 523.275 598.049 523.275C600.555 523.275 602.541 522.543 604.006 521.078C605.503 519.613 606.285 517.562 606.35 514.926H620.461C620.396 521.176 618.394 526.042 614.455 529.525C610.516 533.041 605.129 534.799 598.293 534.799C591.359 534.799 585.972 533.139 582.131 529.818C578.29 526.531 576.369 521.827 576.369 515.707C576.369 510.531 578.859 505.453 583.84 500.473L588.576 495.932C590.204 494.467 591.327 492.937 591.945 491.342C592.596 489.747 592.954 487.501 593.02 484.604H605.52ZM607.277 469.662C607.277 471.843 606.529 473.633 605.031 475.033C603.534 476.433 601.646 477.133 599.367 477.133C597.089 477.133 595.201 476.433 593.703 475.033C592.206 473.633 591.457 471.843 591.457 469.662C591.457 467.481 592.173 465.691 593.605 464.291C595.07 462.891 596.991 462.191 599.367 462.191C601.743 462.191 603.648 462.891 605.08 464.291C606.545 465.691 607.277 467.481 607.277 469.662ZM687.453 482.064C687.453 488.705 686.379 494.483 684.23 499.398C682.082 504.281 679.104 508.204 675.295 511.166L687.111 520.443L677.785 528.695L662.648 516.537C660.923 516.83 659.133 516.977 657.277 516.977C651.385 516.977 646.128 515.561 641.506 512.729C636.883 509.896 633.303 505.86 630.764 500.619C628.225 495.346 626.939 489.291 626.906 482.455V478.939C626.906 471.941 628.16 465.788 630.666 460.482C633.205 455.144 636.77 451.059 641.359 448.227C645.982 445.362 651.255 443.93 657.18 443.93C663.104 443.93 668.361 445.362 672.951 448.227C677.574 451.059 681.138 455.144 683.645 460.482C686.184 465.788 687.453 471.924 687.453 478.891V482.064ZM672.609 478.842C672.609 471.387 671.275 465.723 668.605 461.85C665.936 457.976 662.128 456.039 657.18 456.039C652.264 456.039 648.472 457.96 645.803 461.801C643.133 465.609 641.783 471.208 641.75 478.598V482.064C641.75 489.324 643.085 494.955 645.754 498.959C648.423 502.963 652.264 504.965 657.277 504.965C662.193 504.965 665.969 503.044 668.605 499.203C671.242 495.329 672.577 489.698 672.609 482.309V478.842ZM728.908 510.629C725.425 514.861 720.607 516.977 714.455 516.977C708.791 516.977 704.462 515.349 701.467 512.094C698.505 508.839 696.991 504.07 696.926 497.787V463.168H711.037V497.299C711.037 502.8 713.544 505.551 718.557 505.551C723.342 505.551 726.63 503.891 728.42 500.57V463.168H742.58V516H729.299L728.908 510.629ZM777.541 516.977C769.794 516.977 763.479 514.6 758.596 509.848C753.745 505.095 751.32 498.764 751.32 490.854V489.486C751.32 484.18 752.346 479.444 754.396 475.277C756.447 471.078 759.344 467.855 763.088 465.609C766.864 463.331 771.161 462.191 775.979 462.191C783.205 462.191 788.885 464.47 793.02 469.027C797.186 473.585 799.27 480.046 799.27 488.412V494.174H765.627C766.083 497.624 767.45 500.391 769.729 502.475C772.04 504.558 774.953 505.6 778.469 505.6C783.905 505.6 788.153 503.63 791.213 499.691L798.146 507.455C796.031 510.45 793.166 512.794 789.553 514.486C785.939 516.146 781.936 516.977 777.541 516.977ZM775.93 473.617C773.13 473.617 770.852 474.561 769.094 476.449C767.368 478.337 766.262 481.039 765.773 484.555H785.402V483.432C785.337 480.307 784.491 477.898 782.863 476.205C781.236 474.48 778.924 473.617 775.93 473.617ZM777.199 441H792.58L779.055 456.137H767.58L777.199 441ZM856.545 516.977C848.798 516.977 842.482 514.6 837.6 509.848C832.749 505.095 830.324 498.764 830.324 490.854V489.486C830.324 484.18 831.35 479.444 833.4 475.277C835.451 471.078 838.348 467.855 842.092 465.609C845.868 463.331 850.165 462.191 854.982 462.191C862.209 462.191 867.889 464.47 872.023 469.027C876.19 473.585 878.273 480.046 878.273 488.412V494.174H844.631C845.087 497.624 846.454 500.391 848.732 502.475C851.044 504.558 853.957 505.6 857.473 505.6C862.909 505.6 867.157 503.63 870.217 499.691L877.15 507.455C875.035 510.45 872.17 512.794 868.557 514.486C864.943 516.146 860.939 516.977 856.545 516.977ZM854.934 473.617C852.134 473.617 849.855 474.561 848.098 476.449C846.372 478.337 845.266 481.039 844.777 484.555H864.406V483.432C864.341 480.307 863.495 477.898 861.867 476.205C860.24 474.48 857.928 473.617 854.934 473.617ZM914.943 501.4C914.943 499.675 914.081 498.324 912.355 497.348C910.663 496.339 907.928 495.443 904.152 494.662C891.587 492.025 885.305 486.687 885.305 478.646C885.305 473.959 887.242 470.053 891.115 466.928C895.021 463.77 900.116 462.191 906.398 462.191C913.104 462.191 918.459 463.77 922.463 466.928C926.499 470.085 928.518 474.187 928.518 479.232H914.406C914.406 477.214 913.755 475.554 912.453 474.252C911.151 472.917 909.117 472.25 906.35 472.25C903.973 472.25 902.134 472.787 900.832 473.861C899.53 474.936 898.879 476.303 898.879 477.963C898.879 479.525 899.611 480.795 901.076 481.771C902.574 482.715 905.08 483.546 908.596 484.262C912.111 484.945 915.074 485.727 917.482 486.605C924.937 489.34 928.664 494.076 928.664 500.814C928.664 505.632 926.597 509.538 922.463 512.533C918.329 515.495 912.99 516.977 906.447 516.977C902.02 516.977 898.081 516.195 894.631 514.633C891.213 513.038 888.527 510.873 886.574 508.139C884.621 505.372 883.645 502.393 883.645 499.203H897.023C897.154 501.71 898.081 503.63 899.807 504.965C901.532 506.299 903.843 506.967 906.74 506.967C909.442 506.967 911.477 506.462 912.844 505.453C914.243 504.411 914.943 503.061 914.943 501.4ZM977.59 516H963.43V441H977.59V516ZM1019.88 516C1019.22 514.73 1018.75 513.152 1018.46 511.264C1015.04 515.072 1010.6 516.977 1005.13 516.977C999.953 516.977 995.656 515.479 992.238 512.484C988.853 509.49 987.16 505.714 987.16 501.156C987.16 495.557 989.227 491.26 993.361 488.266C997.528 485.271 1003.53 483.757 1011.38 483.725H1017.87V480.697C1017.87 478.256 1017.24 476.303 1015.97 474.838C1014.73 473.373 1012.76 472.641 1010.06 472.641C1007.68 472.641 1005.81 473.21 1004.45 474.35C1003.11 475.489 1002.44 477.051 1002.44 479.037H988.332C988.332 475.977 989.276 473.145 991.164 470.541C993.052 467.937 995.721 465.902 999.172 464.438C1002.62 462.94 1006.5 462.191 1010.79 462.191C1017.3 462.191 1022.46 463.835 1026.27 467.123C1030.11 470.378 1032.03 474.968 1032.03 480.893V503.793C1032.07 508.806 1032.77 512.598 1034.13 515.17V516H1019.88ZM1008.21 506.186C1010.29 506.186 1012.21 505.73 1013.97 504.818C1015.72 503.874 1017.03 502.621 1017.87 501.059V491.977H1012.6C1005.54 491.977 1001.78 494.418 1001.32 499.301L1001.27 500.131C1001.27 501.889 1001.89 503.337 1003.13 504.477C1004.36 505.616 1006.06 506.186 1008.21 506.186ZM635.158 609.318C634.605 616.968 631.773 622.99 626.662 627.385C621.584 631.779 614.878 633.977 606.545 633.977C597.43 633.977 590.253 630.917 585.012 624.797C579.803 618.645 577.199 610.214 577.199 599.504V595.158C577.199 588.322 578.404 582.3 580.812 577.092C583.221 571.883 586.656 567.896 591.115 565.129C595.607 562.329 600.816 560.93 606.74 560.93C614.943 560.93 621.551 563.127 626.564 567.521C631.577 571.916 634.475 578.085 635.256 586.027H620.607C620.249 581.438 618.964 578.117 616.75 576.066C614.569 573.983 611.232 572.941 606.74 572.941C601.857 572.941 598.195 574.699 595.754 578.215C593.345 581.698 592.108 587.118 592.043 594.475V599.846C592.043 607.528 593.199 613.143 595.51 616.691C597.854 620.24 601.532 622.014 606.545 622.014C611.07 622.014 614.439 620.988 616.652 618.938C618.898 616.854 620.184 613.648 620.51 609.318H635.158ZM641.652 606.096C641.652 600.855 642.661 596.184 644.68 592.082C646.698 587.98 649.595 584.807 653.371 582.561C657.18 580.314 661.59 579.191 666.604 579.191C673.732 579.191 679.543 581.372 684.035 585.734C688.56 590.096 691.083 596.021 691.604 603.508L691.701 607.121C691.701 615.227 689.439 621.737 684.914 626.652C680.389 631.535 674.318 633.977 666.701 633.977C659.084 633.977 652.997 631.535 648.439 626.652C643.915 621.77 641.652 615.129 641.652 606.73V606.096ZM655.764 607.121C655.764 612.134 656.708 615.975 658.596 618.645C660.484 621.281 663.186 622.6 666.701 622.6C670.119 622.6 672.788 621.298 674.709 618.693C676.63 616.057 677.59 611.857 677.59 606.096C677.59 601.18 676.63 597.372 674.709 594.67C672.788 591.968 670.087 590.617 666.604 590.617C663.153 590.617 660.484 591.968 658.596 594.67C656.708 597.339 655.764 601.49 655.764 607.121ZM713.381 580.168L713.82 586.271C717.596 581.551 722.658 579.191 729.006 579.191C734.605 579.191 738.771 580.835 741.506 584.123C744.24 587.411 745.64 592.326 745.705 598.869V633H731.594V599.211C731.594 596.216 730.943 594.051 729.641 592.717C728.339 591.35 726.174 590.666 723.146 590.666C719.175 590.666 716.197 592.359 714.211 595.744V633H700.1V580.168H713.381ZM773.342 567.18V580.168H782.375V590.52H773.342V616.887C773.342 618.84 773.716 620.24 774.465 621.086C775.214 621.932 776.646 622.355 778.762 622.355C780.324 622.355 781.708 622.242 782.912 622.014V632.707C780.145 633.553 777.297 633.977 774.367 633.977C764.471 633.977 759.426 628.98 759.23 618.986V590.52H751.516V580.168H759.23V567.18H773.342ZM820.852 633C820.201 631.73 819.729 630.152 819.436 628.264C816.018 632.072 811.574 633.977 806.105 633.977C800.93 633.977 796.633 632.479 793.215 629.484C789.829 626.49 788.137 622.714 788.137 618.156C788.137 612.557 790.204 608.26 794.338 605.266C798.505 602.271 804.51 600.757 812.355 600.725H818.85V597.697C818.85 595.256 818.215 593.303 816.945 591.838C815.708 590.373 813.739 589.641 811.037 589.641C808.661 589.641 806.789 590.21 805.422 591.35C804.087 592.489 803.42 594.051 803.42 596.037H789.309C789.309 592.977 790.253 590.145 792.141 587.541C794.029 584.937 796.698 582.902 800.148 581.438C803.599 579.94 807.473 579.191 811.77 579.191C818.28 579.191 823.439 580.835 827.248 584.123C831.089 587.378 833.01 591.968 833.01 597.893V620.793C833.042 625.806 833.742 629.598 835.109 632.17V633H820.852ZM809.182 623.186C811.265 623.186 813.186 622.73 814.943 621.818C816.701 620.874 818.003 619.621 818.85 618.059V608.977H813.576C806.512 608.977 802.753 611.418 802.297 616.301L802.248 617.131C802.248 618.889 802.867 620.337 804.104 621.477C805.34 622.616 807.033 623.186 809.182 623.186ZM891.457 607.072C891.457 615.536 889.65 622.144 886.037 626.896C882.424 631.617 877.378 633.977 870.9 633.977C865.171 633.977 860.598 631.779 857.18 627.385L856.545 633H843.85V558H857.961V584.904C861.216 581.096 865.497 579.191 870.803 579.191C877.248 579.191 882.294 581.568 885.939 586.32C889.618 591.04 891.457 597.697 891.457 606.291V607.072ZM877.346 606.047C877.346 600.708 876.499 596.818 874.807 594.377C873.114 591.903 870.591 590.666 867.238 590.666C862.746 590.666 859.654 592.505 857.961 596.184V617.033C859.686 620.744 862.811 622.6 867.336 622.6C871.893 622.6 874.888 620.354 876.32 615.861C877.004 613.713 877.346 610.441 877.346 606.047ZM915.09 633H900.93V580.168H915.09V633ZM900.1 566.496C900.1 564.38 900.799 562.639 902.199 561.271C903.632 559.904 905.568 559.221 908.01 559.221C910.419 559.221 912.339 559.904 913.771 561.271C915.204 562.639 915.92 564.38 915.92 566.496C915.92 568.645 915.188 570.402 913.723 571.77C912.29 573.137 910.386 573.82 908.01 573.82C905.633 573.82 903.713 573.137 902.248 571.77C900.816 570.402 900.1 568.645 900.1 566.496ZM941.652 633H927.492V558H941.652V633ZM968.215 633H954.055V580.168H968.215V633ZM953.225 566.496C953.225 564.38 953.924 562.639 955.324 561.271C956.757 559.904 958.693 559.221 961.135 559.221C963.544 559.221 965.464 559.904 966.896 561.271C968.329 562.639 969.045 564.38 969.045 566.496C969.045 568.645 968.312 570.402 966.848 571.77C965.415 573.137 963.511 573.82 961.135 573.82C958.758 573.82 956.838 573.137 955.373 571.77C953.941 570.402 953.225 568.645 953.225 566.496ZM977.688 606.193C977.688 597.958 979.527 591.398 983.205 586.516C986.916 581.633 991.978 579.191 998.391 579.191C1003.53 579.191 1007.78 581.112 1011.13 584.953V558H1025.29V633H1012.55L1011.87 627.385C1008.35 631.779 1003.83 633.977 998.293 633.977C992.076 633.977 987.079 631.535 983.303 626.652C979.559 621.737 977.688 614.917 977.688 606.193ZM991.799 607.219C991.799 612.167 992.661 615.959 994.387 618.596C996.112 621.232 998.618 622.551 1001.91 622.551C1006.27 622.551 1009.34 620.712 1011.13 617.033V596.184C1009.38 592.505 1006.33 590.666 1002 590.666C995.201 590.666 991.799 596.184 991.799 607.219ZM1066.85 633C1066.2 631.73 1065.72 630.152 1065.43 628.264C1062.01 632.072 1057.57 633.977 1052.1 633.977C1046.93 633.977 1042.63 632.479 1039.21 629.484C1035.83 626.49 1034.13 622.714 1034.13 618.156C1034.13 612.557 1036.2 608.26 1040.33 605.266C1044.5 602.271 1050.51 600.757 1058.35 600.725H1064.85V597.697C1064.85 595.256 1064.21 593.303 1062.94 591.838C1061.7 590.373 1059.74 589.641 1057.03 589.641C1054.66 589.641 1052.79 590.21 1051.42 591.35C1050.08 592.489 1049.42 594.051 1049.42 596.037H1035.3C1035.3 592.977 1036.25 590.145 1038.14 587.541C1040.02 584.937 1042.69 582.902 1046.14 581.438C1049.6 579.94 1053.47 579.191 1057.77 579.191C1064.28 579.191 1069.44 580.835 1073.24 584.123C1077.09 587.378 1079.01 591.968 1079.01 597.893V620.793C1079.04 625.806 1079.74 629.598 1081.11 632.17V633H1066.85ZM1055.18 623.186C1057.26 623.186 1059.18 622.73 1060.94 621.818C1062.7 620.874 1064 619.621 1064.85 618.059V608.977H1059.57C1052.51 608.977 1048.75 611.418 1048.29 616.301L1048.24 617.131C1048.24 618.889 1048.86 620.337 1050.1 621.477C1051.34 622.616 1053.03 623.186 1055.18 623.186ZM1087.65 606.193C1087.65 597.958 1089.49 591.398 1093.17 586.516C1096.88 581.633 1101.94 579.191 1108.35 579.191C1113.49 579.191 1117.74 581.112 1121.1 584.953V558H1135.26V633H1122.51L1121.83 627.385C1118.31 631.779 1113.79 633.977 1108.25 633.977C1102.04 633.977 1097.04 631.535 1093.26 626.652C1089.52 621.737 1087.65 614.917 1087.65 606.193ZM1101.76 607.219C1101.76 612.167 1102.62 615.959 1104.35 618.596C1106.07 621.232 1108.58 622.551 1111.87 622.551C1116.23 622.551 1119.31 620.712 1121.1 617.033V596.184C1119.34 592.505 1116.29 590.666 1111.96 590.666C1105.16 590.666 1101.76 596.184 1101.76 607.219ZM1228.27 624.016C1225.64 627.173 1221.91 629.631 1217.09 631.389C1212.27 633.114 1206.94 633.977 1201.08 633.977C1194.92 633.977 1189.52 632.642 1184.87 629.973C1180.24 627.271 1176.66 623.365 1174.12 618.254C1171.62 613.143 1170.33 607.137 1170.27 600.236V595.402C1170.27 588.306 1171.45 582.17 1173.83 576.994C1176.24 571.786 1179.69 567.814 1184.18 565.08C1188.71 562.313 1194 560.93 1200.05 560.93C1208.48 560.93 1215.07 562.948 1219.83 566.984C1224.58 570.988 1227.39 576.831 1228.27 584.514H1214.02C1213.36 580.445 1211.92 577.466 1209.67 575.578C1207.46 573.69 1204.4 572.746 1200.49 572.746C1195.51 572.746 1191.72 574.618 1189.11 578.361C1186.51 582.105 1185.19 587.671 1185.16 595.061V599.602C1185.16 607.056 1186.57 612.688 1189.41 616.496C1192.24 620.305 1196.39 622.209 1201.86 622.209C1207.36 622.209 1211.28 621.037 1213.62 618.693V606.438H1200.29V595.646H1228.27V624.016ZM1263.58 633.977C1255.83 633.977 1249.51 631.6 1244.63 626.848C1239.78 622.095 1237.36 615.764 1237.36 607.854V606.486C1237.36 601.18 1238.38 596.444 1240.43 592.277C1242.48 588.078 1245.38 584.855 1249.12 582.609C1252.9 580.331 1257.2 579.191 1262.01 579.191C1269.24 579.191 1274.92 581.47 1279.05 586.027C1283.22 590.585 1285.3 597.046 1285.3 605.412V611.174H1251.66C1252.12 614.624 1253.49 617.391 1255.76 619.475C1258.07 621.558 1260.99 622.6 1264.5 622.6C1269.94 622.6 1274.19 620.63 1277.25 616.691L1284.18 624.455C1282.07 627.45 1279.2 629.794 1275.59 631.486C1271.97 633.146 1267.97 633.977 1263.58 633.977ZM1261.96 590.617C1259.17 590.617 1256.89 591.561 1255.13 593.449C1253.4 595.337 1252.3 598.039 1251.81 601.555H1271.44V600.432C1271.37 597.307 1270.53 594.898 1268.9 593.205C1267.27 591.48 1264.96 590.617 1261.96 590.617ZM1323.05 593.4C1321.13 593.14 1319.44 593.01 1317.97 593.01C1312.63 593.01 1309.13 594.816 1307.47 598.43V633H1293.36V580.168H1306.69L1307.08 586.467C1309.91 581.617 1313.84 579.191 1318.85 579.191C1320.41 579.191 1321.88 579.403 1323.24 579.826L1323.05 593.4ZM1353.22 633.977C1345.48 633.977 1339.16 631.6 1334.28 626.848C1329.43 622.095 1327 615.764 1327 607.854V606.486C1327 601.18 1328.03 596.444 1330.08 592.277C1332.13 588.078 1335.03 584.855 1338.77 582.609C1342.55 580.331 1346.84 579.191 1351.66 579.191C1358.89 579.191 1364.57 581.47 1368.7 586.027C1372.87 590.585 1374.95 597.046 1374.95 605.412V611.174H1341.31C1341.77 614.624 1343.13 617.391 1345.41 619.475C1347.72 621.558 1350.64 622.6 1354.15 622.6C1359.59 622.6 1363.84 620.63 1366.9 616.691L1373.83 624.455C1371.71 627.45 1368.85 629.794 1365.24 631.486C1361.62 633.146 1357.62 633.977 1353.22 633.977ZM1351.61 590.617C1348.81 590.617 1346.54 591.561 1344.78 593.449C1343.05 595.337 1341.95 598.039 1341.46 601.555H1361.09V600.432C1361.02 597.307 1360.17 594.898 1358.55 593.205C1356.92 591.48 1354.61 590.617 1351.61 590.617ZM1396 580.168L1396.44 586.271C1400.21 581.551 1405.28 579.191 1411.62 579.191C1417.22 579.191 1421.39 580.835 1424.12 584.123C1426.86 587.411 1428.26 592.326 1428.32 598.869V633H1414.21V599.211C1414.21 596.216 1413.56 594.051 1412.26 592.717C1410.96 591.35 1408.79 590.666 1405.76 590.666C1401.79 590.666 1398.81 592.359 1396.83 595.744V633H1382.72V580.168H1396ZM1461.04 622.6C1463.64 622.6 1465.76 621.883 1467.38 620.451C1469.01 619.019 1469.86 617.115 1469.92 614.738H1483.16C1483.12 618.319 1482.15 621.607 1480.23 624.602C1478.31 627.564 1475.67 629.875 1472.32 631.535C1469 633.163 1465.32 633.977 1461.28 633.977C1453.73 633.977 1447.77 631.584 1443.41 626.799C1439.05 621.981 1436.87 615.34 1436.87 606.877V605.949C1436.87 597.811 1439.03 591.317 1443.36 586.467C1447.69 581.617 1453.63 579.191 1461.18 579.191C1467.79 579.191 1473.08 581.079 1477.05 584.855C1481.06 588.599 1483.09 593.596 1483.16 599.846H1469.92C1469.86 597.111 1469.01 594.898 1467.38 593.205C1465.76 591.48 1463.61 590.617 1460.94 590.617C1457.65 590.617 1455.16 591.822 1453.47 594.23C1451.81 596.607 1450.98 600.48 1450.98 605.852V607.316C1450.98 612.753 1451.81 616.659 1453.47 619.035C1455.13 621.411 1457.65 622.6 1461.04 622.6ZM1506.11 633H1491.95V580.168H1506.11V633ZM1491.12 566.496C1491.12 564.38 1491.82 562.639 1493.21 561.271C1494.65 559.904 1496.58 559.221 1499.03 559.221C1501.43 559.221 1503.35 559.904 1504.79 561.271C1506.22 562.639 1506.94 564.38 1506.94 566.496C1506.94 568.645 1506.2 570.402 1504.74 571.77C1503.31 573.137 1501.4 573.82 1499.03 573.82C1496.65 573.82 1494.73 573.137 1493.26 571.77C1491.83 570.402 1491.12 568.645 1491.12 566.496ZM1548.39 633C1547.74 631.73 1547.27 630.152 1546.97 628.264C1543.56 632.072 1539.11 633.977 1533.64 633.977C1528.47 633.977 1524.17 632.479 1520.75 629.484C1517.37 626.49 1515.68 622.714 1515.68 618.156C1515.68 612.557 1517.74 608.26 1521.88 605.266C1526.04 602.271 1532.05 600.757 1539.89 600.725H1546.39V597.697C1546.39 595.256 1545.75 593.303 1544.48 591.838C1543.25 590.373 1541.28 589.641 1538.58 589.641C1536.2 589.641 1534.33 590.21 1532.96 591.35C1531.63 592.489 1530.96 594.051 1530.96 596.037H1516.85C1516.85 592.977 1517.79 590.145 1519.68 587.541C1521.57 584.937 1524.24 582.902 1527.69 581.438C1531.14 579.94 1535.01 579.191 1539.31 579.191C1545.82 579.191 1550.98 580.835 1554.79 584.123C1558.63 587.378 1560.55 591.968 1560.55 597.893V620.793C1560.58 625.806 1561.28 629.598 1562.65 632.17V633H1548.39ZM1536.72 623.186C1538.8 623.186 1540.72 622.73 1542.48 621.818C1544.24 620.874 1545.54 619.621 1546.39 618.059V608.977H1541.12C1534.05 608.977 1530.29 611.418 1529.84 616.301L1529.79 617.131C1529.79 618.889 1530.41 620.337 1531.64 621.477C1532.88 622.616 1534.57 623.186 1536.72 623.186ZM1586.28 633H1572.12V558H1586.28V633ZM1609.47 611.174C1609.47 606.617 1610.03 602.987 1611.13 600.285C1612.24 597.583 1614.26 594.93 1617.19 592.326C1620.15 589.689 1622.12 587.557 1623.1 585.93C1624.07 584.27 1624.56 582.528 1624.56 580.705C1624.56 575.204 1622.02 572.453 1616.95 572.453C1614.54 572.453 1612.6 573.202 1611.13 574.699C1609.7 576.164 1608.95 578.199 1608.89 580.803H1594.73C1594.79 574.585 1596.8 569.719 1600.73 566.203C1604.71 562.688 1610.11 560.93 1616.95 560.93C1623.85 560.93 1629.2 562.606 1633.01 565.959C1636.82 569.279 1638.72 573.983 1638.72 580.07C1638.72 582.837 1638.1 585.458 1636.87 587.932C1635.63 590.373 1633.47 593.091 1630.37 596.086L1626.42 599.846C1623.94 602.222 1622.53 605.005 1622.17 608.195L1621.97 611.174H1609.47ZM1608.06 626.164C1608.06 623.983 1608.79 622.193 1610.26 620.793C1611.75 619.361 1613.66 618.645 1615.97 618.645C1618.28 618.645 1620.17 619.361 1621.63 620.793C1623.13 622.193 1623.88 623.983 1623.88 626.164C1623.88 628.312 1623.15 630.087 1621.68 631.486C1620.25 632.886 1618.35 633.586 1615.97 633.586C1613.59 633.586 1611.67 632.886 1610.21 631.486C1608.77 630.087 1608.06 628.312 1608.06 626.164Z" fill="white"/>
<defs>
<clipPath id="clip0">
<rect width="256" height="180" fill="white" transform="translate(277 450)"/>
</clipPath>
</defs>
</svg>
