<svg width="100vw" height="100vh" viewBox="0 0 1920 1080" fill="none" xmlns="http://www.w3.org/2000/svg">
<rect width="1920" height="1080" fill="#003462"/>
<g clip-path="url(#clip0)">
<path d="M527.346 478.075C525.878 472.649 523.013 467.701 519.038 463.726C515.063 459.751 510.116 456.887 504.69 455.418C484.824 450 404.87 450 404.87 450C404.87 450 324.912 450.164 305.046 455.582C299.619 457.051 294.672 459.915 290.697 463.891C286.722 467.866 283.858 472.813 282.39 478.24C276.381 513.538 274.05 567.324 282.555 601.21C284.023 606.636 286.888 611.584 290.863 615.559C294.838 619.534 299.785 622.398 305.211 623.867C325.077 629.285 405.033 629.285 405.033 629.285C405.033 629.285 484.988 629.285 504.853 623.867C510.28 622.399 515.227 619.534 519.202 615.559C523.177 611.584 526.041 606.637 527.51 601.21C533.848 565.862 535.801 512.11 527.346 478.076V478.075Z" fill="#FF0000"/>
<path d="M379.42 578.06L445.749 539.642L379.421 501.224L379.42 578.06Z" fill="white"/>
</g>
<path d="M634.719 495.492L644.289 444.906H658.889L643.117 516H628.371L616.799 468.441L605.227 516H590.48L574.709 444.906H589.309L598.928 495.395L610.646 444.906H623.049L634.719 495.492ZM679.689 468.93C683.433 464.438 688.137 462.191 693.801 462.191C705.259 462.191 711.07 468.848 711.232 482.162V516H697.121V482.553C697.121 479.525 696.47 477.296 695.168 475.863C693.866 474.398 691.701 473.666 688.674 473.666C684.54 473.666 681.545 475.261 679.689 478.451V516H665.578V441H679.689V468.93ZM752.492 516C751.841 514.73 751.369 513.152 751.076 511.264C747.658 515.072 743.215 516.977 737.746 516.977C732.57 516.977 728.273 515.479 724.855 512.484C721.47 509.49 719.777 505.714 719.777 501.156C719.777 495.557 721.844 491.26 725.979 488.266C730.145 485.271 736.151 483.757 743.996 483.725H750.49V480.697C750.49 478.256 749.855 476.303 748.586 474.838C747.349 473.373 745.38 472.641 742.678 472.641C740.301 472.641 738.43 473.21 737.062 474.35C735.728 475.489 735.061 477.051 735.061 479.037H720.949C720.949 475.977 721.893 473.145 723.781 470.541C725.669 467.937 728.339 465.902 731.789 464.438C735.24 462.94 739.113 462.191 743.41 462.191C749.921 462.191 755.08 463.835 758.889 467.123C762.73 470.378 764.65 474.968 764.65 480.893V503.793C764.683 508.806 765.383 512.598 766.75 515.17V516H752.492ZM740.822 506.186C742.906 506.186 744.826 505.73 746.584 504.818C748.342 503.874 749.644 502.621 750.49 501.059V491.977H745.217C738.153 491.977 734.393 494.418 733.938 499.301L733.889 500.131C733.889 501.889 734.507 503.337 735.744 504.477C736.981 505.616 738.674 506.186 740.822 506.186ZM792.385 450.18V463.168H801.418V473.52H792.385V499.887C792.385 501.84 792.759 503.24 793.508 504.086C794.257 504.932 795.689 505.355 797.805 505.355C799.367 505.355 800.751 505.242 801.955 505.014V515.707C799.188 516.553 796.34 516.977 793.41 516.977C783.514 516.977 778.469 511.98 778.273 501.986V473.52H770.559V463.168H778.273V450.18H792.385ZM850.686 516H836.037V444.906H850.686V516ZM891.994 501.4C891.994 499.675 891.132 498.324 889.406 497.348C887.714 496.339 884.979 495.443 881.203 494.662C868.638 492.025 862.355 486.687 862.355 478.646C862.355 473.959 864.292 470.053 868.166 466.928C872.072 463.77 877.167 462.191 883.449 462.191C890.155 462.191 895.51 463.77 899.514 466.928C903.55 470.085 905.568 474.187 905.568 479.232H891.457C891.457 477.214 890.806 475.554 889.504 474.252C888.202 472.917 886.167 472.25 883.4 472.25C881.024 472.25 879.185 472.787 877.883 473.861C876.581 474.936 875.93 476.303 875.93 477.963C875.93 479.525 876.662 480.795 878.127 481.771C879.624 482.715 882.131 483.546 885.646 484.262C889.162 484.945 892.124 485.727 894.533 486.605C901.988 489.34 905.715 494.076 905.715 500.814C905.715 505.632 903.648 509.538 899.514 512.533C895.38 515.495 890.041 516.977 883.498 516.977C879.071 516.977 875.132 516.195 871.682 514.633C868.264 513.038 865.578 510.873 863.625 508.139C861.672 505.372 860.695 502.393 860.695 499.203H874.074C874.204 501.71 875.132 503.63 876.857 504.965C878.583 506.299 880.894 506.967 883.791 506.967C886.493 506.967 888.527 506.462 889.895 505.453C891.294 504.411 891.994 503.061 891.994 501.4ZM959.816 444.906L978.078 496.469L996.242 444.906H1015.48V516H1000.78V496.566L1002.25 463.021L983.059 516H973L953.859 463.07L955.324 496.566V516H940.676V444.906H959.816ZM1057.96 516C1057.31 514.73 1056.84 513.152 1056.54 511.264C1053.13 515.072 1048.68 516.977 1043.21 516.977C1038.04 516.977 1033.74 515.479 1030.32 512.484C1026.94 509.49 1025.25 505.714 1025.25 501.156C1025.25 495.557 1027.31 491.26 1031.45 488.266C1035.61 485.271 1041.62 483.757 1049.46 483.725H1055.96V480.697C1055.96 478.256 1055.32 476.303 1054.05 474.838C1052.82 473.373 1050.85 472.641 1048.15 472.641C1045.77 472.641 1043.9 473.21 1042.53 474.35C1041.2 475.489 1040.53 477.051 1040.53 479.037H1026.42C1026.42 475.977 1027.36 473.145 1029.25 470.541C1031.14 467.937 1033.81 465.902 1037.26 464.438C1040.71 462.94 1044.58 462.191 1048.88 462.191C1055.39 462.191 1060.55 463.835 1064.36 467.123C1068.2 470.378 1070.12 474.968 1070.12 480.893V503.793C1070.15 508.806 1070.85 512.598 1072.22 515.17V516H1057.96ZM1046.29 506.186C1048.37 506.186 1050.29 505.73 1052.05 504.818C1053.81 503.874 1055.11 502.621 1055.96 501.059V491.977H1050.69C1043.62 491.977 1039.86 494.418 1039.41 499.301L1039.36 500.131C1039.36 501.889 1039.98 503.337 1041.21 504.477C1042.45 505.616 1044.14 506.186 1046.29 506.186ZM1093.95 463.168L1094.39 469.271C1098.16 464.551 1103.22 462.191 1109.57 462.191C1115.17 462.191 1119.34 463.835 1122.07 467.123C1124.81 470.411 1126.21 475.326 1126.27 481.869V516H1112.16V482.211C1112.16 479.216 1111.51 477.051 1110.21 475.717C1108.9 474.35 1106.74 473.666 1103.71 473.666C1099.74 473.666 1096.76 475.359 1094.78 478.744V516H1080.67V463.168H1093.95ZM1167.63 516C1166.98 514.73 1166.51 513.152 1166.21 511.264C1162.79 515.072 1158.35 516.977 1152.88 516.977C1147.71 516.977 1143.41 515.479 1139.99 512.484C1136.61 509.49 1134.91 505.714 1134.91 501.156C1134.91 495.557 1136.98 491.26 1141.12 488.266C1145.28 485.271 1151.29 483.757 1159.13 483.725H1165.63V480.697C1165.63 478.256 1164.99 476.303 1163.72 474.838C1162.49 473.373 1160.52 472.641 1157.81 472.641C1155.44 472.641 1153.57 473.21 1152.2 474.35C1150.86 475.489 1150.2 477.051 1150.2 479.037H1136.09C1136.09 475.977 1137.03 473.145 1138.92 470.541C1140.81 467.937 1143.48 465.902 1146.93 464.438C1150.38 462.94 1154.25 462.191 1158.55 462.191C1165.06 462.191 1170.22 463.835 1174.03 467.123C1177.87 470.378 1179.79 474.968 1179.79 480.893V503.793C1179.82 508.806 1180.52 512.598 1181.89 515.17V516H1167.63ZM1155.96 506.186C1158.04 506.186 1159.96 505.73 1161.72 504.818C1163.48 503.874 1164.78 502.621 1165.63 501.059V491.977H1160.35C1153.29 491.977 1149.53 494.418 1149.07 499.301L1149.03 500.131C1149.03 501.889 1149.64 503.337 1150.88 504.477C1152.12 505.616 1153.81 506.186 1155.96 506.186ZM1188.58 489.193C1188.58 481.088 1190.5 474.561 1194.34 469.613C1198.21 464.665 1203.42 462.191 1209.96 462.191C1215.76 462.191 1220.27 464.177 1223.49 468.148L1224.07 463.168H1236.87V514.242C1236.87 518.865 1235.81 522.885 1233.69 526.303C1231.61 529.721 1228.66 532.325 1224.86 534.115C1221.05 535.906 1216.59 536.801 1211.48 536.801C1207.6 536.801 1203.83 536.02 1200.15 534.457C1196.47 532.927 1193.69 530.941 1191.8 528.5L1198.05 519.906C1201.56 523.845 1205.83 525.814 1210.84 525.814C1214.59 525.814 1217.5 524.805 1219.58 522.787C1221.67 520.801 1222.71 517.969 1222.71 514.291V511.459C1219.45 515.137 1215.17 516.977 1209.87 516.977C1203.52 516.977 1198.37 514.503 1194.44 509.555C1190.53 504.574 1188.58 497.982 1188.58 489.779V489.193ZM1202.69 490.219C1202.69 495.004 1203.65 498.764 1205.57 501.498C1207.49 504.2 1210.13 505.551 1213.48 505.551C1217.78 505.551 1220.85 503.939 1222.71 500.717V478.5C1220.82 475.277 1217.78 473.666 1213.58 473.666C1210.19 473.666 1207.52 475.049 1205.57 477.816C1203.65 480.583 1202.69 484.717 1202.69 490.219ZM1272.07 516.977C1264.32 516.977 1258.01 514.6 1253.13 509.848C1248.28 505.095 1245.85 498.764 1245.85 490.854V489.486C1245.85 484.18 1246.88 479.444 1248.93 475.277C1250.98 471.078 1253.88 467.855 1257.62 465.609C1261.4 463.331 1265.69 462.191 1270.51 462.191C1277.74 462.191 1283.42 464.47 1287.55 469.027C1291.72 473.585 1293.8 480.046 1293.8 488.412V494.174H1260.16C1260.61 497.624 1261.98 500.391 1264.26 502.475C1266.57 504.558 1269.48 505.6 1273 505.6C1278.44 505.6 1282.68 503.63 1285.74 499.691L1292.68 507.455C1290.56 510.45 1287.7 512.794 1284.08 514.486C1280.47 516.146 1276.47 516.977 1272.07 516.977ZM1270.46 473.617C1267.66 473.617 1265.38 474.561 1263.62 476.449C1261.9 478.337 1260.79 481.039 1260.3 484.555H1279.93V483.432C1279.87 480.307 1279.02 477.898 1277.39 476.205C1275.77 474.48 1273.46 473.617 1270.46 473.617ZM1315.09 463.168L1315.53 469.076C1319.27 464.486 1324.33 462.191 1330.71 462.191C1337.52 462.191 1342.19 464.877 1344.73 470.248C1348.44 464.877 1353.73 462.191 1360.6 462.191C1366.33 462.191 1370.59 463.868 1373.39 467.221C1376.19 470.541 1377.59 475.554 1377.59 482.26V516H1363.43V482.309C1363.43 479.314 1362.84 477.133 1361.67 475.766C1360.5 474.366 1358.43 473.666 1355.47 473.666C1351.24 473.666 1348.31 475.684 1346.68 479.721L1346.73 516H1332.62V482.357C1332.62 479.298 1332.02 477.084 1330.81 475.717C1329.61 474.35 1327.56 473.666 1324.66 473.666C1320.66 473.666 1317.76 475.326 1315.97 478.646V516H1301.86V463.168H1315.09ZM1412.79 516.977C1405.05 516.977 1398.73 514.6 1393.85 509.848C1389 505.095 1386.57 498.764 1386.57 490.854V489.486C1386.57 484.18 1387.6 479.444 1389.65 475.277C1391.7 471.078 1394.6 467.855 1398.34 465.609C1402.12 463.331 1406.41 462.191 1411.23 462.191C1418.46 462.191 1424.14 464.47 1428.27 469.027C1432.44 473.585 1434.52 480.046 1434.52 488.412V494.174H1400.88C1401.34 497.624 1402.7 500.391 1404.98 502.475C1407.29 504.558 1410.21 505.6 1413.72 505.6C1419.16 505.6 1423.41 503.63 1426.47 499.691L1433.4 507.455C1431.28 510.45 1428.42 512.794 1424.81 514.486C1421.19 516.146 1417.19 516.977 1412.79 516.977ZM1411.18 473.617C1408.38 473.617 1406.11 474.561 1404.35 476.449C1402.62 478.337 1401.52 481.039 1401.03 484.555H1420.66V483.432C1420.59 480.307 1419.74 477.898 1418.12 476.205C1416.49 474.48 1414.18 473.617 1411.18 473.617ZM1455.57 463.168L1456.01 469.271C1459.78 464.551 1464.85 462.191 1471.19 462.191C1476.79 462.191 1480.96 463.835 1483.69 467.123C1486.43 470.411 1487.83 475.326 1487.89 481.869V516H1473.78V482.211C1473.78 479.216 1473.13 477.051 1471.83 475.717C1470.53 474.35 1468.36 473.666 1465.33 473.666C1461.36 473.666 1458.38 475.359 1456.4 478.744V516H1442.29V463.168H1455.57ZM1515.53 450.18V463.168H1524.56V473.52H1515.53V499.887C1515.53 501.84 1515.9 503.24 1516.65 504.086C1517.4 504.932 1518.83 505.355 1520.95 505.355C1522.51 505.355 1523.9 505.242 1525.1 505.014V515.707C1522.33 516.553 1519.48 516.977 1516.55 516.977C1506.66 516.977 1501.61 511.98 1501.42 501.986V473.52H1493.7V463.168H1501.42V450.18H1515.53ZM619.484 618.352H593.801L588.918 633H573.342L599.807 561.906H613.381L639.992 633H624.416L619.484 618.352ZM597.756 606.486H615.529L606.594 579.875L597.756 606.486ZM667.678 622.6C670.282 622.6 672.398 621.883 674.025 620.451C675.653 619.019 676.499 617.115 676.564 614.738H689.797C689.764 618.319 688.788 621.607 686.867 624.602C684.947 627.564 682.31 629.875 678.957 631.535C675.637 633.163 671.958 633.977 667.922 633.977C660.37 633.977 654.413 631.584 650.051 626.799C645.689 621.981 643.508 615.34 643.508 606.877V605.949C643.508 597.811 645.673 591.317 650.002 586.467C654.331 581.617 660.272 579.191 667.824 579.191C674.432 579.191 679.722 581.079 683.693 584.855C687.697 588.599 689.732 593.596 689.797 599.846H676.564C676.499 597.111 675.653 594.898 674.025 593.205C672.398 591.48 670.249 590.617 667.58 590.617C664.292 590.617 661.802 591.822 660.109 594.23C658.449 596.607 657.619 600.48 657.619 605.852V607.316C657.619 612.753 658.449 616.659 660.109 619.035C661.77 621.411 664.292 622.6 667.678 622.6ZM719.826 622.6C722.43 622.6 724.546 621.883 726.174 620.451C727.801 619.019 728.648 617.115 728.713 614.738H741.945C741.913 618.319 740.936 621.607 739.016 624.602C737.095 627.564 734.458 629.875 731.105 631.535C727.785 633.163 724.107 633.977 720.07 633.977C712.518 633.977 706.561 631.584 702.199 626.799C697.837 621.981 695.656 615.34 695.656 606.877V605.949C695.656 597.811 697.821 591.317 702.15 586.467C706.48 581.617 712.421 579.191 719.973 579.191C726.581 579.191 731.87 581.079 735.842 584.855C739.846 588.599 741.88 593.596 741.945 599.846H728.713C728.648 597.111 727.801 594.898 726.174 593.205C724.546 591.48 722.398 590.617 719.729 590.617C716.441 590.617 713.951 591.822 712.258 594.23C710.598 596.607 709.768 600.48 709.768 605.852V607.316C709.768 612.753 710.598 616.659 712.258 619.035C713.918 621.411 716.441 622.6 719.826 622.6ZM747.805 606.096C747.805 600.855 748.814 596.184 750.832 592.082C752.85 587.98 755.747 584.807 759.523 582.561C763.332 580.314 767.743 579.191 772.756 579.191C779.885 579.191 785.695 581.372 790.188 585.734C794.712 590.096 797.235 596.021 797.756 603.508L797.854 607.121C797.854 615.227 795.591 621.737 791.066 626.652C786.542 631.535 780.471 633.977 772.854 633.977C765.236 633.977 759.149 631.535 754.592 626.652C750.067 621.77 747.805 615.129 747.805 606.73V606.096ZM761.916 607.121C761.916 612.134 762.86 615.975 764.748 618.645C766.636 621.281 769.338 622.6 772.854 622.6C776.271 622.6 778.941 621.298 780.861 618.693C782.782 616.057 783.742 611.857 783.742 606.096C783.742 601.18 782.782 597.372 780.861 594.67C778.941 591.968 776.239 590.617 772.756 590.617C769.305 590.617 766.636 591.968 764.748 594.67C762.86 597.339 761.916 601.49 761.916 607.121ZM838.186 627.629C834.702 631.861 829.885 633.977 823.732 633.977C818.068 633.977 813.739 632.349 810.744 629.094C807.782 625.839 806.268 621.07 806.203 614.787V580.168H820.314V614.299C820.314 619.8 822.821 622.551 827.834 622.551C832.619 622.551 835.907 620.891 837.697 617.57V580.168H851.857V633H838.576L838.186 627.629ZM875.49 580.168L875.93 586.271C879.706 581.551 884.768 579.191 891.115 579.191C896.714 579.191 900.881 580.835 903.615 584.123C906.35 587.411 907.749 592.326 907.814 598.869V633H893.703V599.211C893.703 596.216 893.052 594.051 891.75 592.717C890.448 591.35 888.283 590.666 885.256 590.666C881.285 590.666 878.306 592.359 876.32 595.744V633H862.209V580.168H875.49ZM935.451 567.18V580.168H944.484V590.52H935.451V616.887C935.451 618.84 935.826 620.24 936.574 621.086C937.323 621.932 938.755 622.355 940.871 622.355C942.434 622.355 943.817 622.242 945.021 622.014V632.707C942.255 633.553 939.406 633.977 936.477 633.977C926.581 633.977 921.535 628.98 921.34 618.986V590.52H913.625V580.168H921.34V567.18H935.451ZM967.238 633H953.078V580.168H967.238V633ZM952.248 566.496C952.248 564.38 952.948 562.639 954.348 561.271C955.78 559.904 957.717 559.221 960.158 559.221C962.567 559.221 964.488 559.904 965.92 561.271C967.352 562.639 968.068 564.38 968.068 566.496C968.068 568.645 967.336 570.402 965.871 571.77C964.439 573.137 962.535 573.82 960.158 573.82C957.782 573.82 955.861 573.137 954.396 571.77C952.964 570.402 952.248 568.645 952.248 566.496ZM991.896 580.168L992.336 586.271C996.112 581.551 1001.17 579.191 1007.52 579.191C1013.12 579.191 1017.29 580.835 1020.02 584.123C1022.76 587.411 1024.16 592.326 1024.22 598.869V633H1010.11V599.211C1010.11 596.216 1009.46 594.051 1008.16 592.717C1006.85 591.35 1004.69 590.666 1001.66 590.666C997.691 590.666 994.712 592.359 992.727 595.744V633H978.615V580.168H991.896ZM1032.91 606.193C1032.91 598.088 1034.83 591.561 1038.67 586.613C1042.55 581.665 1047.76 579.191 1054.3 579.191C1060.09 579.191 1064.6 581.177 1067.82 585.148L1068.41 580.168H1081.2V631.242C1081.2 635.865 1080.15 639.885 1078.03 643.303C1075.95 646.721 1073 649.325 1069.19 651.115C1065.38 652.906 1060.92 653.801 1055.81 653.801C1051.94 653.801 1048.16 653.02 1044.48 651.457C1040.81 649.927 1038.02 647.941 1036.13 645.5L1042.38 636.906C1045.9 640.845 1050.16 642.814 1055.18 642.814C1058.92 642.814 1061.83 641.805 1063.92 639.787C1066 637.801 1067.04 634.969 1067.04 631.291V628.459C1063.79 632.137 1059.51 633.977 1054.2 633.977C1047.85 633.977 1042.71 631.503 1038.77 626.555C1034.87 621.574 1032.91 614.982 1032.91 606.779V606.193ZM1047.02 607.219C1047.02 612.004 1047.98 615.764 1049.9 618.498C1051.82 621.2 1054.46 622.551 1057.81 622.551C1062.11 622.551 1065.19 620.939 1067.04 617.717V595.5C1065.15 592.277 1062.11 590.666 1057.91 590.666C1054.53 590.666 1051.86 592.049 1049.9 594.816C1047.98 597.583 1047.02 601.717 1047.02 607.219ZM1103.62 611.174C1103.62 606.617 1104.17 602.987 1105.28 600.285C1106.38 597.583 1108.4 594.93 1111.33 592.326C1114.29 589.689 1116.26 587.557 1117.24 585.93C1118.21 584.27 1118.7 582.528 1118.7 580.705C1118.7 575.204 1116.16 572.453 1111.09 572.453C1108.68 572.453 1106.74 573.202 1105.28 574.699C1103.84 576.164 1103.09 578.199 1103.03 580.803H1088.87C1088.93 574.585 1090.94 569.719 1094.88 566.203C1098.85 562.688 1104.25 560.93 1111.09 560.93C1117.99 560.93 1123.34 562.606 1127.15 565.959C1130.96 569.279 1132.86 573.983 1132.86 580.07C1132.86 582.837 1132.24 585.458 1131.01 587.932C1129.77 590.373 1127.61 593.091 1124.51 596.086L1120.56 599.846C1118.08 602.222 1116.67 605.005 1116.31 608.195L1116.12 611.174H1103.62ZM1102.2 626.164C1102.2 623.983 1102.93 622.193 1104.4 620.793C1105.89 619.361 1107.8 618.645 1110.11 618.645C1112.42 618.645 1114.31 619.361 1115.77 620.793C1117.27 622.193 1118.02 623.983 1118.02 626.164C1118.02 628.312 1117.29 630.087 1115.82 631.486C1114.39 632.886 1112.49 633.586 1110.11 633.586C1107.73 633.586 1105.81 632.886 1104.35 631.486C1102.92 630.087 1102.2 628.312 1102.2 626.164Z" fill="white"/>
<defs>
<clipPath id="clip0">
<rect width="256" height="180" fill="white" transform="translate(277 450)"/>
</clipPath>
</defs>
</svg>
